<svg width="34" height="34" viewBox="0 0 34 34" fill="none" xmlns="http://www.w3.org/2000/svg">
<ellipse cx="16.9049" cy="17" rx="16.6901" ry="16.5" fill="#0077B5"/>
<path d="M7.73648 13.9053H12.1723V26.1666H7.73648L7.73648 13.9053Z" fill="white"/>
<path d="M21.5856 13.8906C18.4182 13.8906 17.8915 15.6066 17.8915 15.6066V13.9053H14.4644V26.1666H17.9286C17.9286 26.1666 17.9286 20.0946 17.9286 19.0973C17.9286 18.0926 18.5146 16.7726 20.3839 16.7726C22.2458 16.7726 22.4683 18.5766 22.4535 18.7966C22.4312 19.0166 22.4164 26.1666 22.4164 26.1666H26.0734C26.0734 26.1666 26.0734 19.1926 26.0734 17.66C26.0734 14.8953 24.2041 13.8906 21.5856 13.8906V13.8906Z" fill="white"/>
<ellipse cx="9.96183" cy="10.0259" rx="2.21793" ry="2.19267" fill="white"/>
</svg>
