<svg width="54" height="64" viewBox="0 0 54 64" fill="none" xmlns="http://www.w3.org/2000/svg">
<path d="M71.7266 56.6154C71.7266 65.0137 64.9182 71.8221 56.5198 71.8221C48.1215 71.8221 41.3136 65.0137 41.3136 56.6154C41.3136 48.217 48.1215 41.4091 56.5198 41.4091C64.9182 41.4091 71.7266 48.217 71.7266 56.6154Z" fill="url(#paint0_radial_9_1867)"/>
<path d="M71.6556 58.0817C71.3588 61.2083 70.1124 64.0587 68.21 66.3413C67.4586 67.2433 66.6049 68.058 65.6657 68.7632L55.1667 58.2643L52.5249 55.623C51.3548 54.5445 50.6208 52.9985 50.6208 51.2819C50.6208 48.0242 53.2621 45.3829 56.5198 45.3829C58.2364 45.3829 59.7824 46.1169 60.8609 47.287L71.6556 58.0817Z" fill="url(#paint1_linear_9_1867)"/>
<path d="M68.2094 66.3414C67.458 67.2433 66.6049 68.058 65.6656 68.7633C63.1207 70.6852 59.953 71.8222 56.5197 71.8222C56.0896 71.8222 55.6639 71.8048 55.2424 71.7675L48.2493 64.784C48.9946 61.4229 51.7366 58.8146 55.1666 58.2643C55.6081 58.1939 56.0599 58.1565 56.5197 58.1565C58.8604 58.1565 60.9778 59.1061 62.5108 60.6385L68.2094 66.3414Z" fill="url(#paint2_linear_9_1867)"/>
<path d="M62.4193 51.2824C62.4193 54.5407 59.7781 57.1814 56.5198 57.1814C53.2621 57.1814 50.6208 54.5407 50.6208 51.2824C50.6208 48.0242 53.2621 45.3829 56.5198 45.3829C59.7781 45.3829 62.4193 48.0242 62.4193 51.2824Z" fill="url(#paint3_linear_9_1867)"/>
<path d="M64.7913 64.7846C62.6847 66.9194 59.7563 68.2416 56.5197 68.2416C53.2837 68.2416 50.3553 66.9194 48.2493 64.7846C49.0905 60.9917 52.4733 58.1565 56.5197 58.1565C58.8604 58.1565 60.9778 59.1061 62.5108 60.6385C63.6294 61.756 64.437 63.1855 64.7913 64.7846Z" fill="url(#paint4_linear_9_1867)"/>
<path d="M71.7266 16.0289C71.7266 24.4272 64.9182 31.2352 56.5198 31.2352C48.1215 31.2352 41.3136 24.4272 41.3136 16.0289C41.3136 7.63061 48.1215 0.822144 56.5198 0.822144C64.9182 0.822144 71.7266 7.63061 71.7266 16.0289Z" fill="url(#paint5_linear_9_1867)"/>
<path d="M71.6556 17.4952C71.3588 20.6213 70.1124 23.4716 68.21 25.7549C67.4586 26.6568 66.6049 27.4709 65.6657 28.1767L55.1667 17.6772L52.5249 15.0359C51.3548 13.9575 50.6208 12.412 50.6208 10.6954C50.6208 7.43716 53.2621 4.7959 56.5198 4.7959C58.2364 4.7959 59.7824 5.52988 60.8609 6.70047L71.6556 17.4952Z" fill="url(#paint6_linear_9_1867)"/>
<path d="M68.2094 25.7549C67.4581 26.6568 66.6049 27.471 65.6656 28.1768C63.1203 30.0981 59.953 31.2351 56.5198 31.2351C56.0897 31.2351 55.6639 31.2178 55.2425 31.1804L48.2488 24.1975C48.9947 20.8358 51.7362 18.2276 55.1661 17.6773C55.6081 17.6068 56.0599 17.5695 56.5198 17.5695C58.8599 17.5695 60.9779 18.519 62.5109 20.0515L68.2094 25.7549Z" fill="url(#paint7_linear_9_1867)"/>
<path d="M62.4193 10.6955C62.4193 13.9537 59.7781 16.595 56.5198 16.595C53.2621 16.595 50.6208 13.9537 50.6208 10.6955C50.6208 7.43777 53.2621 4.79651 56.5198 4.79651C59.7781 4.79651 62.4193 7.43777 62.4193 10.6955Z" fill="url(#paint8_linear_9_1867)"/>
<path d="M64.7913 24.1976C62.6847 26.3324 59.7563 27.6547 56.5197 27.6547C53.2837 27.6547 50.3553 26.3324 48.2493 24.1976C49.0905 20.4047 52.4733 17.5701 56.5197 17.5701C58.8604 17.5701 60.9778 18.5191 62.5108 20.0521C63.6294 21.169 64.437 22.5985 64.7913 24.1976Z" fill="url(#paint9_linear_9_1867)"/>
<path d="M31.1396 56.6154C31.1396 65.0137 24.3317 71.8221 15.9333 71.8221C7.53503 71.8221 0.726562 65.0137 0.726562 56.6154C0.726562 48.217 7.53503 41.4091 15.9333 41.4091C24.3317 41.4091 31.1396 48.217 31.1396 56.6154Z" fill="url(#paint10_radial_9_1867)"/>
<path d="M31.0681 58.0817C30.7718 61.2078 29.5253 64.0587 27.6224 66.3413C26.8711 67.2433 26.0179 68.058 25.0786 68.7632L14.5791 58.2643L11.9378 55.623C10.7678 54.5445 10.0338 52.9985 10.0338 51.2819C10.0338 48.0242 12.6751 45.3829 15.9328 45.3829C17.6494 45.3829 19.1954 46.1169 20.2733 47.287L31.0681 58.0817Z" fill="url(#paint11_linear_9_1867)"/>
<path d="M27.6224 66.3414C26.8711 67.2433 26.018 68.058 25.0787 68.7633C22.5338 70.6852 19.366 71.8222 15.9334 71.8222C15.5027 71.8222 15.077 71.8048 14.6555 71.7675L7.66235 64.784C8.40771 61.4229 11.1497 58.8146 14.5797 58.2643C15.0212 58.1939 15.4729 58.1565 15.9334 58.1565C18.2735 58.1565 20.3915 59.1061 21.9239 60.6385L27.6224 66.3414Z" fill="url(#paint12_linear_9_1867)"/>
<path d="M21.8323 51.2824C21.8323 54.5407 19.191 57.1814 15.9333 57.1814C12.6751 57.1814 10.0338 54.5407 10.0338 51.2824C10.0338 48.0242 12.6751 45.3829 15.9333 45.3829C19.191 45.3829 21.8323 48.0242 21.8323 51.2824Z" fill="url(#paint13_linear_9_1867)"/>
<path d="M24.2038 64.7846C22.0977 66.9194 19.1693 68.2416 15.9328 68.2416C12.6962 68.2416 9.76836 66.9194 7.66174 64.7846C8.50352 60.9917 11.8864 58.1565 15.9328 58.1565C18.2734 58.1565 20.3908 59.1061 21.9238 60.639C23.0424 61.756 23.8501 63.1855 24.2038 64.7846Z" fill="url(#paint14_linear_9_1867)"/>
<path d="M24.2038 64.784C24.1707 64.8187 24.1366 64.8517 24.1025 64.8848C22.1107 66.8565 19.4077 68.1095 16.4132 68.2302L14.9176 66.7314L14.8949 66.713C14.6311 66.4947 14.4935 66.1605 14.5249 65.8197L15.0455 60.4077C15.0552 60.313 15.0953 60.2284 15.1554 60.1613C15.15 60.1537 15.1457 60.1467 15.1397 60.138C15.0552 60.0838 14.9837 60.0064 14.9404 59.9099L14.3413 58.5823C14.2996 58.4918 14.2952 58.3959 14.3196 58.3098C14.3954 58.2952 14.4718 58.2811 14.5493 58.2697C14.6034 58.2594 14.6592 58.2507 14.714 58.2437C14.7573 58.2367 14.8017 58.2307 14.8461 58.2253C14.8965 58.2193 14.9463 58.2123 14.9983 58.208C15.0595 58.2009 15.1213 58.195 15.1831 58.1895C15.2432 58.1836 15.3049 58.1792 15.3667 58.1749C15.4295 58.1706 15.4929 58.1679 15.5557 58.1652C15.6809 58.1592 15.8065 58.1565 15.9333 58.1565C16.164 58.1565 16.3932 58.1652 16.6201 58.1836C16.6803 58.1895 16.7404 58.1939 16.7994 58.2009C16.9213 58.2123 17.0432 58.228 17.1635 58.2453C17.222 58.254 17.2826 58.2637 17.3411 58.274C17.4099 58.2838 17.4787 58.2968 17.5464 58.3114C19.2397 58.637 20.7527 59.4668 21.9243 60.6385C23.0424 61.756 23.85 63.1855 24.2038 64.784Z" fill="url(#paint15_linear_9_1867)"/>
<path d="M16.9713 66.7135L16.3814 67.2016C16.1214 67.4166 15.7449 67.4166 15.4849 67.2016L14.895 66.7135C14.6312 66.4958 14.4931 66.161 14.5256 65.8203L15.0461 60.4083C15.0678 60.1824 15.2574 60.0101 15.4843 60.0101H16.3819C16.6089 60.0101 16.7985 60.1824 16.8201 60.4083L17.3407 65.8203C17.3732 66.1604 17.2351 66.4958 16.9713 66.7135Z" fill="url(#paint16_linear_9_1867)"/>
<path d="M16.8201 60.4083C16.7984 60.1824 16.6088 60.0101 16.3819 60.0101H15.4843C15.3505 60.0101 15.2308 60.0708 15.1495 60.1667L16.9723 61.9889L16.8201 60.4083Z" fill="url(#paint17_linear_9_1867)"/>
<path d="M17.5248 58.5823L16.9251 59.9105C16.8379 60.1039 16.6456 60.2274 16.4322 60.2274H15.4339C15.2204 60.2274 15.0281 60.1039 14.9409 59.9105L14.3413 58.5823C14.2996 58.4923 14.2958 58.3959 14.3202 58.3098C14.8418 58.2096 15.3813 58.1565 15.9333 58.1565C16.4853 58.1565 17.0243 58.2096 17.5465 58.3114C17.5708 58.3975 17.5649 58.4923 17.5248 58.5823Z" fill="url(#paint18_linear_9_1867)"/>
<path d="M31.1396 16.0289C31.1396 24.4272 24.3317 31.2352 15.9333 31.2352C7.53503 31.2352 0.726562 24.4272 0.726562 16.0289C0.726562 7.63061 7.53503 0.822144 15.9333 0.822144C24.3317 0.822144 31.1396 7.63061 31.1396 16.0289Z" fill="url(#paint19_radial_9_1867)"/>
<path d="M31.0686 17.4952C30.7718 20.6213 29.5253 23.4716 27.6229 25.7549C26.8716 26.6568 26.0179 27.4709 25.0792 28.1767L11.9384 15.0359C10.7683 13.9575 10.0338 12.412 10.0338 10.6954C10.0338 7.43716 12.6751 4.7959 15.9333 4.7959C17.6494 4.7959 19.1954 5.53043 20.2739 6.70047L31.0686 17.4952Z" fill="url(#paint20_linear_9_1867)"/>
<path d="M27.6224 25.7549C26.8711 26.6568 26.018 27.471 25.0787 28.1768C22.5338 30.0981 19.366 31.2351 15.9334 31.2351C15.5027 31.2351 15.077 31.2178 14.6555 31.1804L7.66235 24.1975C8.40771 20.8358 11.1497 18.2276 14.5797 17.6773C15.0212 17.6068 15.4729 17.5695 15.9334 17.5695C18.2735 17.5695 20.3915 18.519 21.9239 20.0515L27.6224 25.7549Z" fill="url(#paint21_linear_9_1867)"/>
<path d="M21.8323 10.6955C21.8323 13.9537 19.191 16.595 15.9333 16.595C12.6751 16.595 10.0338 13.9537 10.0338 10.6955C10.0338 7.43777 12.6751 4.79651 15.9333 4.79651C19.191 4.79651 21.8323 7.43777 21.8323 10.6955Z" fill="url(#paint22_linear_9_1867)"/>
<path d="M24.2038 24.1976C22.0977 26.3324 19.1693 27.6547 15.9328 27.6547C12.6962 27.6547 9.76836 26.3324 7.66174 24.1976C8.50352 20.4047 11.8864 17.5701 15.9328 17.5701C18.2734 17.5701 20.3908 18.5191 21.9238 20.0521C23.0424 21.169 23.8501 22.5985 24.2038 24.1976Z" fill="url(#paint23_linear_9_1867)"/>
<path d="M24.2038 24.1975C24.1707 24.2317 24.1366 24.2647 24.1025 24.2978C22.1107 26.2695 19.4077 27.523 16.4132 27.6432L14.9176 26.1444L14.8949 26.1259C14.6311 25.9082 14.4935 25.574 14.5249 25.2327L15.0455 19.8207C15.0552 19.7265 15.0953 19.642 15.1554 19.5742C15.15 19.5672 15.1457 19.5596 15.1397 19.5515C15.0552 19.4968 14.9837 19.4193 14.9404 19.3234L14.3413 17.9952C14.2996 17.9048 14.2952 17.8089 14.3196 17.7228C14.3954 17.7087 14.4718 17.694 14.5487 17.6827C14.6034 17.6724 14.6592 17.6643 14.714 17.6567C14.7567 17.6496 14.8012 17.6442 14.8461 17.6383C14.896 17.6323 14.9463 17.6253 14.9978 17.6209C15.0595 17.6139 15.1213 17.6079 15.1831 17.6025C15.2432 17.5965 15.3049 17.5922 15.3667 17.5879C15.4295 17.5835 15.4924 17.5808 15.5557 17.5781C15.6803 17.5722 15.8065 17.5695 15.9327 17.5695C16.1635 17.5695 16.3932 17.5781 16.6196 17.5965C16.6803 17.6025 16.7404 17.6068 16.7989 17.6139C16.9208 17.6253 17.0427 17.641 17.1635 17.6583C17.222 17.667 17.2821 17.6767 17.3411 17.687C17.4099 17.6968 17.4787 17.7098 17.5459 17.7244C19.2397 18.0499 20.7527 18.8798 21.9238 20.0515C23.0424 21.169 23.85 22.5985 24.2038 24.1975Z" fill="url(#paint24_linear_9_1867)"/>
<path d="M16.9713 26.1265L16.3814 26.6145C16.1214 26.8296 15.7449 26.8296 15.4849 26.6145L14.895 26.1265C14.6312 25.9087 14.4931 25.574 14.5256 25.2332L15.0461 19.8212C15.0678 19.5954 15.2574 19.4231 15.4843 19.4231H16.3819C16.6089 19.4231 16.7985 19.5954 16.8201 19.8212L17.3407 25.2332C17.3732 25.574 17.2351 25.9087 16.9713 26.1265Z" fill="url(#paint25_linear_9_1867)"/>
<path d="M16.8201 19.8212C16.7984 19.5954 16.6088 19.4231 16.3819 19.4231H15.4843C15.3505 19.4231 15.2308 19.4843 15.1495 19.5796L16.9723 21.4019L16.8201 19.8212Z" fill="url(#paint26_linear_9_1867)"/>
<path d="M17.5248 17.9958L16.9251 19.3235C16.8379 19.5169 16.6456 19.6404 16.4322 19.6404H15.4339C15.2204 19.6404 15.0281 19.5169 14.9409 19.3235L14.3413 17.9958C14.2996 17.9054 14.2952 17.8095 14.3196 17.7234C14.8418 17.6226 15.3808 17.5701 15.9327 17.5701C16.4847 17.5701 17.0242 17.6226 17.5459 17.7244C17.5708 17.8106 17.5649 17.9054 17.5248 17.9958Z" fill="url(#paint27_linear_9_1867)"/>
<path d="M51.6819 20.7985L44.1395 18.5272C38.9783 16.9725 33.4742 16.9725 28.3136 18.5272L20.7711 20.7985C19.6341 21.1408 18.7197 21.9907 18.2956 23.0996L14.688 32.52C12.0164 39.4964 14.2346 47.3991 20.1455 51.9666L30.0085 59.5876C33.6708 62.4174 38.7822 62.4174 42.4446 59.5876L52.3076 51.9666C58.2185 47.3991 60.4367 39.4964 57.7651 32.52L54.1574 23.0996C53.7333 21.9907 52.8184 21.1408 51.6819 20.7985Z" fill="url(#paint28_linear_9_1867)"/>
<path d="M42.4446 59.5876L52.3076 51.9666C58.2185 47.3991 60.4367 39.4964 57.7651 32.52L54.1575 23.0995C53.7333 21.9907 52.819 21.1408 51.682 20.7985L44.1395 18.5272C41.5595 17.7498 38.8927 17.3615 36.2266 17.3615V61.7099C38.4199 61.7099 40.6131 61.0025 42.4446 59.5876Z" fill="url(#paint29_linear_9_1867)"/>
<path d="M49.4892 23.4565L43.0171 21.5075C38.5883 20.1739 33.8647 20.1739 29.4359 21.5075L22.9638 23.4565C21.9883 23.7507 21.2034 24.4798 20.8393 25.4315L17.7436 33.5157C15.4512 39.5019 17.3541 46.2838 22.427 50.2034L30.8903 56.7427C34.0332 59.171 38.4193 59.171 41.5621 56.7427L50.026 50.2034C55.0983 46.2838 57.0018 39.5019 54.7094 33.5157L51.6137 25.4315C51.2497 24.4798 50.4647 23.7507 49.4892 23.4565Z" fill="url(#paint30_linear_9_1867)"/>
<path d="M52.63 39.2998C52.63 38.8426 52.6105 38.3897 52.5736 37.9417L46.2565 31.6241C45.587 30.9551 44.502 30.9551 43.833 31.6241L34.6633 40.7937C33.9943 41.4627 32.9093 41.4627 32.2398 40.7937L28.6208 37.1742C27.9513 36.5052 26.8663 36.5052 26.1973 37.1742L24.5895 38.7824C23.92 39.4514 23.92 40.5364 24.5895 41.2054L38.8733 55.4897C46.6741 54.2243 52.63 47.4581 52.63 39.2998Z" fill="url(#paint31_linear_9_1867)"/>
<path d="M31.957 48.5734C32.7826 49.399 34.1211 49.399 34.9466 48.5734L47.8642 35.6558C48.5332 34.9863 48.5332 33.9013 47.8642 33.2323L46.2565 31.6241C45.587 30.9551 44.502 30.9551 43.833 31.6241L34.6633 40.7937C33.9943 41.4627 32.9093 41.4627 32.2398 40.7937L28.6208 37.1742C27.9513 36.5052 26.8663 36.5052 26.1973 37.1742L24.5895 38.7824C23.92 39.4514 23.92 40.5364 24.5895 41.2054L31.957 48.5734Z" fill="url(#paint32_linear_9_1867)"/>
<path d="M41.5622 56.7427L50.026 50.2034C55.0984 46.2838 57.0019 39.5019 54.7095 33.5157L51.6137 25.4316C51.2492 24.4798 50.4648 23.7507 49.4892 23.4566L43.0166 21.5076C40.8022 20.8408 38.5146 20.5071 36.2266 20.5071V58.5638C38.1089 58.5638 39.9913 57.9572 41.5622 56.7427Z" fill="url(#paint33_linear_9_1867)"/>
<path d="M47.6821 25.6477L42.0919 23.9641C38.2665 22.8119 34.1865 22.8119 30.3611 23.9641L24.7709 25.6477C23.928 25.9012 23.2504 26.5312 22.9357 27.3529L20.2619 34.3358C18.2815 39.5067 19.9255 45.3645 24.3072 48.7495L31.6173 54.3982C34.3322 56.4957 38.1208 56.4957 40.8352 54.3982L48.1458 48.7495C52.527 45.364 54.171 39.5067 52.1911 34.3358L49.5173 27.3529C49.2026 26.5312 48.525 25.9012 47.6821 25.6477Z" fill="url(#paint34_radial_9_1867)"/>
<defs>
<radialGradient id="paint0_radial_9_1867" cx="0" cy="0" r="1" gradientUnits="userSpaceOnUse" gradientTransform="translate(50.9412 46.4488) scale(24.9717)">
<stop stop-color="#FF6E3A"/>
<stop offset="0.2085" stop-color="#FF6A3C"/>
<stop offset="0.396" stop-color="#FF5F44"/>
<stop offset="0.5755" stop-color="#FF4D50"/>
<stop offset="0.7501" stop-color="#FF3361"/>
<stop offset="0.9195" stop-color="#FF1278"/>
<stop offset="1" stop-color="#FF0084"/>
</radialGradient>
<linearGradient id="paint1_linear_9_1867" x1="76.8864" y1="58.1781" x2="62.2425" y2="46.325" gradientUnits="userSpaceOnUse">
<stop stop-color="#FF0084" stop-opacity="0.01"/>
<stop offset="0.0737" stop-color="#F4087E" stop-opacity="0.07451"/>
<stop offset="0.3347" stop-color="#D2216B" stop-opacity="0.333333"/>
<stop offset="0.583" stop-color="#BA335E" stop-opacity="0.584314"/>
<stop offset="0.8111" stop-color="#AB3D56" stop-opacity="0.811765"/>
<stop offset="1" stop-color="#A64153"/>
</linearGradient>
<linearGradient id="paint2_linear_9_1867" x1="68.6981" y1="72.9577" x2="66.685" y2="63.8317" gradientUnits="userSpaceOnUse">
<stop stop-color="#FF0084" stop-opacity="0.01"/>
<stop offset="0.0737" stop-color="#F4087E" stop-opacity="0.07451"/>
<stop offset="0.3347" stop-color="#D2216B" stop-opacity="0.333333"/>
<stop offset="0.583" stop-color="#BA335E" stop-opacity="0.584314"/>
<stop offset="0.8111" stop-color="#AB3D56" stop-opacity="0.811765"/>
<stop offset="1" stop-color="#A64153"/>
</linearGradient>
<linearGradient id="paint3_linear_9_1867" x1="51.4023" y1="48.563" x2="51.4023" y2="58.7986" gradientUnits="userSpaceOnUse">
<stop stop-color="#ECF7FF"/>
<stop offset="1" stop-color="#C2E0FF"/>
</linearGradient>
<linearGradient id="paint4_linear_9_1867" x1="49.3448" y1="60.8747" x2="49.3448" y2="69.6237" gradientUnits="userSpaceOnUse">
<stop stop-color="#ECF7FF"/>
<stop offset="1" stop-color="#C2E0FF"/>
</linearGradient>
<linearGradient id="paint5_linear_9_1867" x1="41.3136" y1="31.2352" x2="71.7266" y2="31.2352" gradientUnits="userSpaceOnUse">
<stop stop-color="#00C6F6"/>
<stop offset="0.8567" stop-color="#0B9CFD"/>
<stop offset="1" stop-color="#0D94FE"/>
</linearGradient>
<linearGradient id="paint6_linear_9_1867" x1="76.8863" y1="17.5911" x2="62.2421" y2="5.7383" gradientUnits="userSpaceOnUse">
<stop stop-color="#0D94FE" stop-opacity="0.01"/>
<stop offset="0.5142" stop-color="#0681CD" stop-opacity="0.513725"/>
<stop offset="1" stop-color="#0070A2"/>
</linearGradient>
<linearGradient id="paint7_linear_9_1867" x1="68.6983" y1="32.3708" x2="66.6854" y2="23.2449" gradientUnits="userSpaceOnUse">
<stop stop-color="#0D94FE" stop-opacity="0.01"/>
<stop offset="0.5142" stop-color="#0681CD" stop-opacity="0.513725"/>
<stop offset="1" stop-color="#0070A2"/>
</linearGradient>
<linearGradient id="paint8_linear_9_1867" x1="51.4023" y1="7.97616" x2="51.4023" y2="18.2118" gradientUnits="userSpaceOnUse">
<stop stop-color="#ECF7FF"/>
<stop offset="1" stop-color="#C2E0FF"/>
</linearGradient>
<linearGradient id="paint9_linear_9_1867" x1="49.3445" y1="20.2879" x2="49.3445" y2="29.0369" gradientUnits="userSpaceOnUse">
<stop stop-color="#ECF7FF"/>
<stop offset="1" stop-color="#C2E0FF"/>
</linearGradient>
<radialGradient id="paint10_radial_9_1867" cx="0" cy="0" r="1" gradientUnits="userSpaceOnUse" gradientTransform="translate(10.3541 46.4488) scale(24.9717)">
<stop stop-color="#8BE1E2"/>
<stop offset="0.1873" stop-color="#87E1E1"/>
<stop offset="0.3558" stop-color="#7CE2DD"/>
<stop offset="0.5172" stop-color="#6AE2D7"/>
<stop offset="0.6741" stop-color="#50E4CE"/>
<stop offset="0.8278" stop-color="#2FE5C2"/>
<stop offset="0.9772" stop-color="#07E7B4"/>
<stop offset="1" stop-color="#00E7B2"/>
</radialGradient>
<linearGradient id="paint11_linear_9_1867" x1="36.2992" y1="58.1779" x2="21.655" y2="46.3252" gradientUnits="userSpaceOnUse">
<stop offset="0.0029" stop-color="#00E7B2" stop-opacity="0.01"/>
<stop offset="0.4308" stop-color="#1BC4B7" stop-opacity="0.427451"/>
<stop offset="1" stop-color="#3B9ABE"/>
</linearGradient>
<linearGradient id="paint12_linear_9_1867" x1="28.1111" y1="72.9576" x2="26.0981" y2="63.8317" gradientUnits="userSpaceOnUse">
<stop offset="0.0029" stop-color="#00E7B2" stop-opacity="0.01"/>
<stop offset="0.4308" stop-color="#1BC4B7" stop-opacity="0.427451"/>
<stop offset="1" stop-color="#3B9ABE"/>
</linearGradient>
<linearGradient id="paint13_linear_9_1867" x1="10.8152" y1="48.563" x2="10.8152" y2="58.7986" gradientUnits="userSpaceOnUse">
<stop stop-color="#ECF7FF"/>
<stop offset="1" stop-color="#C2E0FF"/>
</linearGradient>
<linearGradient id="paint14_linear_9_1867" x1="8.75787" y1="60.8747" x2="8.75787" y2="69.6237" gradientUnits="userSpaceOnUse">
<stop stop-color="#ECF7FF"/>
<stop offset="1" stop-color="#C2E0FF"/>
</linearGradient>
<linearGradient id="paint15_linear_9_1867" x1="21.7649" y1="61.1127" x2="15.0721" y2="58.8195" gradientUnits="userSpaceOnUse">
<stop offset="0.0029" stop-color="#C2E0FF" stop-opacity="0.01"/>
<stop offset="0.0763" stop-color="#BFDCFD" stop-opacity="0.07451"/>
<stop offset="1" stop-color="#9EB2E7"/>
</linearGradient>
<linearGradient id="paint16_linear_9_1867" x1="14.5209" y1="67.3628" x2="17.3454" y2="67.3628" gradientUnits="userSpaceOnUse">
<stop stop-color="#FF6E3A"/>
<stop offset="0.1596" stop-color="#FF6440"/>
<stop offset="0.4266" stop-color="#FF4B52"/>
<stop offset="0.7662" stop-color="#FF216E"/>
<stop offset="1" stop-color="#FF0084"/>
</linearGradient>
<linearGradient id="paint17_linear_9_1867" x1="18.6994" y1="60.4725" x2="16.0664" y2="58.2383" gradientUnits="userSpaceOnUse">
<stop stop-color="#E4003D" stop-opacity="0.01"/>
<stop offset="0.5838" stop-color="#BD294B" stop-opacity="0.584314"/>
<stop offset="1" stop-color="#A64153"/>
</linearGradient>
<linearGradient id="paint18_linear_9_1867" x1="14.3049" y1="60.2274" x2="17.5608" y2="60.2274" gradientUnits="userSpaceOnUse">
<stop stop-color="#FF6E3A"/>
<stop offset="0.1596" stop-color="#FF6440"/>
<stop offset="0.4266" stop-color="#FF4B52"/>
<stop offset="0.7662" stop-color="#FF216E"/>
<stop offset="1" stop-color="#FF0084"/>
</linearGradient>
<radialGradient id="paint19_radial_9_1867" cx="0" cy="0" r="1" gradientUnits="userSpaceOnUse" gradientTransform="translate(10.3541 5.86195) scale(24.9717)">
<stop stop-color="#FFD459"/>
<stop offset="0.2296" stop-color="#FFD355"/>
<stop offset="0.4362" stop-color="#FFCF4A"/>
<stop offset="0.634" stop-color="#FFC838"/>
<stop offset="0.825" stop-color="#FFBF1F"/>
<stop offset="1" stop-color="#FFB400"/>
</radialGradient>
<linearGradient id="paint20_linear_9_1867" x1="30.9626" y1="12.2545" x2="16.3185" y2="0.401691" gradientUnits="userSpaceOnUse">
<stop stop-color="#E58200" stop-opacity="0.01"/>
<stop offset="0.0396" stop-color="#E27F04" stop-opacity="0.039216"/>
<stop offset="0.4671" stop-color="#C15D2F" stop-opacity="0.466667"/>
<stop offset="0.8016" stop-color="#AD4949" stop-opacity="0.8"/>
<stop offset="1" stop-color="#A64153"/>
</linearGradient>
<linearGradient id="paint21_linear_9_1867" x1="26.0436" y1="27.9771" x2="24.0305" y2="18.8512" gradientUnits="userSpaceOnUse">
<stop stop-color="#E58200" stop-opacity="0.01"/>
<stop offset="0.0396" stop-color="#E27F04" stop-opacity="0.039216"/>
<stop offset="0.4671" stop-color="#C15D2F" stop-opacity="0.466667"/>
<stop offset="0.8016" stop-color="#AD4949" stop-opacity="0.8"/>
<stop offset="1" stop-color="#A64153"/>
</linearGradient>
<linearGradient id="paint22_linear_9_1867" x1="10.8152" y1="7.97616" x2="10.8152" y2="18.2118" gradientUnits="userSpaceOnUse">
<stop stop-color="#FFFCF8"/>
<stop offset="0.1875" stop-color="#FAF8F6"/>
<stop offset="0.4041" stop-color="#ECEEF2"/>
<stop offset="0.6353" stop-color="#D5DCEA"/>
<stop offset="0.875" stop-color="#B5C4DF"/>
<stop offset="1" stop-color="#A1B5D8"/>
</linearGradient>
<linearGradient id="paint23_linear_9_1867" x1="8.75746" y1="20.2879" x2="8.75746" y2="29.0369" gradientUnits="userSpaceOnUse">
<stop stop-color="#ECF7FF"/>
<stop offset="1" stop-color="#C2E0FF"/>
</linearGradient>
<linearGradient id="paint24_linear_9_1867" x1="21.7649" y1="20.5258" x2="15.0721" y2="18.2326" gradientUnits="userSpaceOnUse">
<stop offset="0.0029" stop-color="#C2E0FF" stop-opacity="0.01"/>
<stop offset="0.0763" stop-color="#BFDCFD" stop-opacity="0.07451"/>
<stop offset="1" stop-color="#9EB2E7"/>
</linearGradient>
<linearGradient id="paint25_linear_9_1867" x1="14.5209" y1="26.7758" x2="17.3454" y2="26.7758" gradientUnits="userSpaceOnUse">
<stop stop-color="#FF6E3A"/>
<stop offset="0.1596" stop-color="#FF6440"/>
<stop offset="0.4266" stop-color="#FF4B52"/>
<stop offset="0.7662" stop-color="#FF216E"/>
<stop offset="1" stop-color="#FF0084"/>
</linearGradient>
<linearGradient id="paint26_linear_9_1867" x1="18.6994" y1="19.8855" x2="16.0664" y2="17.6513" gradientUnits="userSpaceOnUse">
<stop stop-color="#E4003D" stop-opacity="0.01"/>
<stop offset="0.5838" stop-color="#BD294B" stop-opacity="0.584314"/>
<stop offset="1" stop-color="#A64153"/>
</linearGradient>
<linearGradient id="paint27_linear_9_1867" x1="14.3046" y1="19.6404" x2="17.5606" y2="19.6404" gradientUnits="userSpaceOnUse">
<stop stop-color="#FF6E3A"/>
<stop offset="0.1596" stop-color="#FF6440"/>
<stop offset="0.4266" stop-color="#FF4B52"/>
<stop offset="0.7662" stop-color="#FF216E"/>
<stop offset="1" stop-color="#FF0084"/>
</linearGradient>
<linearGradient id="paint28_linear_9_1867" x1="17.1119" y1="35.8053" x2="35.1499" y2="54.6404" gradientUnits="userSpaceOnUse">
<stop stop-color="#ECF7FF"/>
<stop offset="1" stop-color="#C2E0FF"/>
</linearGradient>
<linearGradient id="paint29_linear_9_1867" x1="55.9532" y1="12.2776" x2="28.0994" y2="12.2776" gradientUnits="userSpaceOnUse">
<stop offset="0.0029" stop-color="#C2E0FF" stop-opacity="0.01"/>
<stop offset="0.0763" stop-color="#BFDCFD" stop-opacity="0.07451"/>
<stop offset="1" stop-color="#9EB2E7"/>
</linearGradient>
<linearGradient id="paint30_linear_9_1867" x1="16.2064" y1="40.3249" x2="39.1232" y2="64.2547" gradientUnits="userSpaceOnUse">
<stop stop-color="#45425A"/>
<stop offset="1" stop-color="#2D3251"/>
</linearGradient>
<linearGradient id="paint31_linear_9_1867" x1="49.4383" y1="43.7255" x2="43.9888" y2="36.2485" gradientUnits="userSpaceOnUse">
<stop stop-color="#2D3251" stop-opacity="0.01"/>
<stop offset="1" stop-color="#131830"/>
</linearGradient>
<linearGradient id="paint32_linear_9_1867" x1="31.0897" y1="38.4699" x2="35.1204" y2="45.7459" gradientUnits="userSpaceOnUse">
<stop stop-color="#8BE1E2"/>
<stop offset="0.1873" stop-color="#87E1E1"/>
<stop offset="0.3558" stop-color="#7CE2DD"/>
<stop offset="0.5172" stop-color="#6AE2D7"/>
<stop offset="0.6741" stop-color="#50E4CE"/>
<stop offset="0.8278" stop-color="#2FE5C2"/>
<stop offset="0.9772" stop-color="#07E7B4"/>
<stop offset="1" stop-color="#00E7B2"/>
</linearGradient>
<linearGradient id="paint33_linear_9_1867" x1="48.4691" y1="15.8979" x2="21.1264" y2="13.5542" gradientUnits="userSpaceOnUse">
<stop stop-color="#2D3251" stop-opacity="0.01"/>
<stop offset="1" stop-color="#131830"/>
</linearGradient>
<radialGradient id="paint34_radial_9_1867" cx="0" cy="0" r="1" gradientUnits="userSpaceOnUse" gradientTransform="translate(39.3764 46.4856) scale(39.033 38.1977)">
<stop stop-color="white" stop-opacity="0.01"/>
<stop offset="0.8587" stop-color="white" stop-opacity="0.858824"/>
<stop offset="1" stop-color="white"/>
</radialGradient>
</defs>
</svg>
