<svg width="35" height="34" viewBox="0 0 35 34" fill="none" xmlns="http://www.w3.org/2000/svg">
<ellipse cx="17.5" cy="17" rx="16.6901" ry="16.5" fill="url(#paint0_linear_9_2363)"/>
<path fill-rule="evenodd" clip-rule="evenodd" d="M13.9617 7.83325H21.0457C24.2057 7.83325 26.7723 10.3706 26.7723 13.4946V20.4979C26.7723 23.6219 24.2057 26.1593 21.0457 26.1593H13.9617C10.8017 26.1593 8.23514 23.6219 8.23514 20.4979V13.4946C8.23514 10.3706 10.8017 7.83325 13.9617 7.83325ZM21.0383 24.1279C23.0634 24.1279 24.7027 22.4999 24.7027 20.5053V13.5019C24.7027 11.4999 23.056 9.87925 21.0383 9.87925H13.9543C11.9292 9.87925 10.2899 11.5073 10.2899 13.5019V20.5053C10.2899 22.5073 11.9366 24.1279 13.9543 24.1279H21.0383Z" fill="white"/>
<path fill-rule="evenodd" clip-rule="evenodd" d="M12.76 17C12.76 14.4186 14.8889 12.314 17.5 12.314C20.1111 12.314 22.24 14.4186 22.24 17C22.24 19.5813 20.1111 21.686 17.5 21.686C14.8889 21.686 12.76 19.5813 12.76 17ZM14.6219 17C14.6219 18.5693 15.9126 19.8453 17.5 19.8453C19.0874 19.8453 20.3781 18.5693 20.3781 17C20.3781 15.4306 19.0874 14.1546 17.5 14.1546C15.9126 14.1546 14.6219 15.4306 14.6219 17Z" fill="white"/>
<ellipse cx="22.4728" cy="12.0459" rx="0.800801" ry="0.792144" transform="rotate(-9.20797 22.4728 12.0459)" fill="white"/>
<defs>
<linearGradient id="paint0_linear_9_2363" x1="16.651" y1="41.2877" x2="40.0978" y2="17.5707" gradientUnits="userSpaceOnUse">
<stop stop-color="#FEE411"/>
<stop offset="0.0518459" stop-color="#FEDB16"/>
<stop offset="0.1381" stop-color="#FEC125"/>
<stop offset="0.2481" stop-color="#FE983D"/>
<stop offset="0.3762" stop-color="#FE5F5E"/>
<stop offset="0.5" stop-color="#FE2181"/>
<stop offset="1" stop-color="#9000DC"/>
</linearGradient>
</defs>
</svg>
