<svg width="34" height="30" viewBox="0 0 34 30" fill="none" xmlns="http://www.w3.org/2000/svg">
<path d="M15.4155 13.892L13.3872 17.4576C12.6682 18.7198 11.9498 19.982 11.2318 21.2443C10.4476 22.6211 9.66347 23.9982 8.87932 25.3755C8.21769 26.5368 7.55607 27.6998 6.89444 28.8646C6.76506 29.0918 6.53569 29.4992 6.16812 29.4992H0.825124C0.547241 29.4992 0.376689 29.2168 0.608993 28.8585C0.883935 28.3769 1.1579 27.8947 1.43088 27.412C2.00233 26.4108 2.57427 25.4091 3.1467 24.4069C3.78382 23.2901 4.41873 22.1725 5.05144 21.0542C5.63956 20.0191 6.22938 18.9841 6.82093 17.9491C7.48353 16.7838 8.14565 15.6182 8.80728 14.4525C9.4444 13.3301 10.0815 12.2075 10.7186 11.0846C11.3518 9.97381 11.9855 8.86305 12.6197 7.75229C13.0909 6.92376 13.5578 6.09144 14.0282 5.26216C14.6634 4.14433 15.2919 3.02271 15.9396 1.91321C16.1859 1.49137 15.9558 1.88898 16.6806 0.636338C16.7288 0.55098 16.8178 0.498909 16.9137 0.500017H17.1768C17.2763 0.500466 17.3681 0.555238 17.418 0.643912C18.1164 1.89958 18.0333 1.74508 18.1289 1.91397C18.7905 3.07875 19.4521 4.24329 20.1137 5.40757C20.5087 6.10129 20.9038 6.79501 21.2988 7.48873C22.0986 8.89688 22.8987 10.305 23.699 11.7132C24.4003 12.9446 25.1021 14.1758 25.8044 15.4067C26.3867 16.4291 26.9679 17.452 27.5482 18.4754C28.178 19.5816 28.8085 20.6879 29.4397 21.7941C30.0886 22.9336 30.7367 24.0739 31.3842 25.215C32.0487 26.3828 32.7138 27.5506 33.3793 28.7184C33.5999 29.06 33.5264 29.5 33.0904 29.5H27.618L27.56 29.4924C27.5362 29.4844 27.5115 29.4798 27.4865 29.4788C26.3205 29.4788 25.1543 29.4818 23.9879 29.4879C23.9527 29.4892 23.9176 29.4927 23.8828 29.4985H23.8556H12.1154C11.8302 29.4985 11.7478 29.2054 11.9147 28.9078C12.3823 28.0747 12.855 27.2416 13.3262 26.4085L15.225 23.052C15.6911 22.2301 16.1567 21.4076 16.6218 20.5846L16.7005 20.446C16.74 20.3755 16.8132 20.3321 16.8923 20.3324H17.2268C17.3055 20.3322 17.3784 20.3752 17.418 20.4453L17.4606 20.521C17.8047 21.1148 18.1391 21.7146 18.4773 22.3129C18.8841 23.0338 19.2906 23.7546 19.6969 24.4751C19.721 24.5255 19.7726 24.5556 19.827 24.5508C21.4179 24.5468 23.0085 24.5442 24.5988 24.5432C24.6282 24.5432 24.6576 24.5379 24.7039 24.5334L17.035 11.0664" fill="#0977BE"/>
</svg>
