<svg width="135" height="41" viewBox="0 0 135 41" fill="none" xmlns="http://www.w3.org/2000/svg">
<g clip-path="url(#clip0_9_2323)">
<path fill-rule="evenodd" clip-rule="evenodd" d="M5.91998 41C3.05313 41 0.730957 38.6683 0.730957 35.7896V5.21304C0.730957 2.3344 3.05313 0 5.91998 0H129.808C132.675 0 135 2.3344 135 5.21304V35.7896C135 38.6683 132.675 41 129.808 41H5.91998Z" fill="url(#paint0_linear_9_2323)"/>
<mask id="mask0_9_2323" style="mask-type:alpha" maskUnits="userSpaceOnUse" x="0" y="0" width="135" height="41">
<path fill-rule="evenodd" clip-rule="evenodd" d="M5.91998 41C3.05313 41 0.730957 38.6683 0.730957 35.7896V5.21304C0.730957 2.3344 3.05313 0 5.91998 0H129.808C132.675 0 135 2.3344 135 5.21304V35.7896C135 38.6683 132.675 41 129.808 41H5.91998Z" fill="white"/>
</mask>
<g mask="url(#mask0_9_2323)">
<path fill-rule="evenodd" clip-rule="evenodd" d="M21.0956 8.76751C22.0495 7.64433 23.6463 6.81996 24.9774 6.7666L25.198 6.95602C25.3494 8.36733 24.8393 9.94672 23.8296 11.1766C22.8731 12.3398 21.4676 13.0655 20.1657 13.0655L19.892 13.0548L19.6981 12.8707C19.4908 11.286 20.2826 9.70927 21.0956 8.76751ZM16.2042 33.1138C14.5356 33.1138 13.3187 31.5451 12.1178 29.8003C9.71059 26.308 8.32366 20.5481 10.5024 16.7543C11.6475 14.7534 13.7252 13.4889 15.9252 13.4595L15.9916 13.4568C16.9348 13.4568 17.8276 13.8117 18.6167 14.1265C18.6336 14.1331 18.6504 14.1398 18.6672 14.1464C19.2357 14.3702 19.7279 14.564 20.1099 14.564C20.4449 14.564 20.925 14.3762 21.484 14.1576C21.5059 14.1491 21.5279 14.1405 21.55 14.1318C22.3975 13.7957 23.455 13.3768 24.5576 13.3768L24.9774 13.3981C25.9153 13.4382 28.2455 13.777 29.7706 16.0127L29.7998 16.1727L29.7095 16.3088L29.6882 16.3221C29.2445 16.5969 27.0419 18.1123 27.0711 20.9723C27.1003 24.4939 29.9991 25.7878 30.3312 25.9212L30.3471 25.9292L30.4587 26.1906L30.4508 26.2146C30.2727 26.7936 29.7413 28.3036 28.6786 29.8616C27.6636 31.353 26.5078 33.0444 24.6294 33.0791C23.7584 33.095 23.1654 32.8398 22.5924 32.5932L22.5809 32.5882C21.9963 32.3321 21.3905 32.068 20.4447 32.068C19.4494 32.068 18.8154 32.3381 18.2038 32.5986L18.1969 32.6016L18.1968 32.6016C17.6495 32.8364 17.0836 33.0791 16.2998 33.1111L16.2042 33.1138Z" fill="white"/>
<path d="M40.3028 8.30315H42.8306C43.4938 8.30315 44.0808 8.44004 44.5919 8.71381C45.109 8.98758 45.5105 9.36782 45.7965 9.85453C46.0824 10.3351 46.2254 10.8827 46.2254 11.4972C46.2254 12.1116 46.0824 12.6622 45.7965 13.1489C45.5105 13.6295 45.109 14.0067 44.5919 14.2805C44.0808 14.5543 43.4938 14.6912 42.8306 14.6912H40.3028V8.30315ZM42.7941 14.2714C43.3842 14.2714 43.9044 14.1558 44.3546 13.9246C44.8048 13.6873 45.1516 13.3588 45.3949 12.939C45.6383 12.5192 45.76 12.0386 45.76 11.4972C45.76 10.9557 45.6383 10.4751 45.3949 10.0553C45.1516 9.63551 44.8048 9.31002 44.3546 9.07884C43.9044 8.84157 43.3842 8.72293 42.7941 8.72293H40.7682V14.2714H42.7941ZM49.5579 14.7277C49.1076 14.7277 48.7 14.6242 48.335 14.4174C47.9761 14.2105 47.6932 13.9246 47.4863 13.5596C47.2795 13.1885 47.176 12.7717 47.176 12.3093C47.176 11.847 47.2795 11.4333 47.4863 11.0682C47.6932 10.6971 47.9761 10.4082 48.335 10.2013C48.7 9.99445 49.1076 9.89103 49.5579 9.89103C50.0081 9.89103 50.4126 9.99445 50.7716 10.2013C51.1366 10.4082 51.4225 10.6971 51.6294 11.0682C51.8362 11.4333 51.9397 11.847 51.9397 12.3093C51.9397 12.7717 51.8362 13.1885 51.6294 13.5596C51.4225 13.9246 51.1366 14.2105 50.7716 14.4174C50.4126 14.6242 50.0081 14.7277 49.5579 14.7277ZM49.5579 14.317C49.9229 14.317 50.2484 14.2318 50.5343 14.0615C50.8263 13.8911 51.0545 13.6539 51.2187 13.3497C51.3891 13.0455 51.4743 12.6987 51.4743 12.3093C51.4743 11.92 51.3891 11.5732 51.2187 11.269C51.0545 10.9648 50.8263 10.7276 50.5343 10.5572C50.2484 10.3869 49.9229 10.3017 49.5579 10.3017C49.1928 10.3017 48.8643 10.3869 48.5723 10.5572C48.2863 10.7276 48.0582 10.9648 47.8878 11.269C47.7236 11.5732 47.6414 11.92 47.6414 12.3093C47.6414 12.6987 47.7236 13.0455 47.8878 13.3497C48.0582 13.6539 48.2863 13.8911 48.5723 14.0615C48.8643 14.2318 49.1928 14.317 49.5579 14.317ZM60.0252 9.92753L58.2183 14.6912H57.7894L56.1833 10.5572L54.568 14.6912H54.1482L52.3414 9.92753H52.7794L54.3673 14.1801L55.9916 9.92753H56.3841L57.9993 14.171L59.6054 9.92753H60.0252ZM63.4136 9.89103C64.0099 9.89103 64.4814 10.0644 64.8281 10.4112C65.1749 10.758 65.3483 11.2568 65.3483 11.9078V14.6912H64.892V11.9443C64.892 11.4089 64.7551 11.0013 64.4814 10.7215C64.2137 10.4416 63.8365 10.3017 63.3498 10.3017C62.7901 10.3017 62.349 10.469 62.0265 10.8036C61.7041 11.1382 61.5429 11.5884 61.5429 12.1542V14.6912H61.0866V9.92753H61.5246V10.9587C61.6889 10.6241 61.9322 10.3625 62.2547 10.1739C62.5832 9.98533 62.9695 9.89103 63.4136 9.89103ZM67.2268 7.91987H67.6831V14.6912H67.2268V7.91987ZM71.468 14.7277C71.0178 14.7277 70.6101 14.6242 70.2451 14.4174C69.8862 14.2105 69.6033 13.9246 69.3964 13.5596C69.1896 13.1885 69.0861 12.7717 69.0861 12.3093C69.0861 11.847 69.1896 11.4333 69.3964 11.0682C69.6033 10.6971 69.8862 10.4082 70.2451 10.2013C70.6101 9.99445 71.0178 9.89103 71.468 9.89103C71.9182 9.89103 72.3227 9.99445 72.6817 10.2013C73.0467 10.4082 73.3326 10.6971 73.5395 11.0682C73.7463 11.4333 73.8498 11.847 73.8498 12.3093C73.8498 12.7717 73.7463 13.1885 73.5395 13.5596C73.3326 13.9246 73.0467 14.2105 72.6817 14.4174C72.3227 14.6242 71.9182 14.7277 71.468 14.7277ZM71.468 14.317C71.833 14.317 72.1585 14.2318 72.4444 14.0615C72.7364 13.8911 72.9646 13.6539 73.1288 13.3497C73.2992 13.0455 73.3844 12.6987 73.3844 12.3093C73.3844 11.92 73.2992 11.5732 73.1288 11.269C72.9646 10.9648 72.7364 10.7276 72.4444 10.5572C72.1585 10.3869 71.833 10.3017 71.468 10.3017C71.1029 10.3017 70.7744 10.3869 70.4824 10.5572C70.1964 10.7276 69.9683 10.9648 69.7979 11.269C69.6337 11.5732 69.5516 11.92 69.5516 12.3093C69.5516 12.6987 69.6337 13.0455 69.7979 13.3497C69.9683 13.6539 70.1964 13.8911 70.4824 14.0615C70.7744 14.2318 71.1029 14.317 71.468 14.317ZM76.8536 9.89103C77.4438 9.89103 77.897 10.0431 78.2134 10.3473C78.5297 10.6454 78.6879 11.0865 78.6879 11.6705V14.6912H78.2499V13.8425C78.0978 14.1223 77.8757 14.3413 77.5837 14.4995C77.2917 14.6516 76.9418 14.7277 76.5342 14.7277C76.0049 14.7277 75.5852 14.6029 75.2749 14.3535C74.9707 14.1041 74.8186 13.7755 74.8186 13.3679C74.8186 12.9725 74.9585 12.6531 75.2384 12.4097C75.5243 12.1603 75.9776 12.0356 76.5981 12.0356H78.2316V11.6523C78.2316 11.2082 78.1099 10.8705 77.8666 10.6393C77.6293 10.4082 77.2795 10.2926 76.8171 10.2926C76.5008 10.2926 76.1966 10.3473 75.9046 10.4568C75.6186 10.5663 75.3753 10.7123 75.1745 10.8949L74.9464 10.5663C75.1836 10.3534 75.4696 10.1891 75.8042 10.0735C76.1388 9.95187 76.4886 9.89103 76.8536 9.89103ZM76.5981 14.3535C76.9936 14.3535 77.3282 14.2623 77.6019 14.0797C77.8818 13.8972 78.0917 13.6326 78.2316 13.2858V12.3915H76.6072C76.1388 12.3915 75.7981 12.4767 75.5852 12.647C75.3783 12.8173 75.2749 13.0516 75.2749 13.3497C75.2749 13.66 75.3905 13.9063 75.6217 14.0889C75.8528 14.2653 76.1783 14.3535 76.5981 14.3535ZM84.8111 7.91987V14.6912H84.364V13.5687C84.1754 13.9398 83.9107 14.2257 83.57 14.4265C83.2293 14.6273 82.843 14.7277 82.4111 14.7277C81.9669 14.7277 81.5654 14.6242 81.2065 14.4174C80.8475 14.2105 80.5646 13.9246 80.3578 13.5596C80.157 13.1945 80.0566 12.7778 80.0566 12.3093C80.0566 11.8409 80.157 11.4242 80.3578 11.0591C80.5646 10.688 80.8475 10.4021 81.2065 10.2013C81.5654 9.99445 81.9669 9.89103 82.4111 9.89103C82.8369 9.89103 83.2172 9.99141 83.5518 10.1922C83.8925 10.3929 84.1602 10.6728 84.3548 11.0317V7.91987H84.8111ZM82.4384 14.317C82.8035 14.317 83.129 14.2318 83.4149 14.0615C83.7069 13.8911 83.9351 13.6539 84.0993 13.3497C84.2697 13.0455 84.3548 12.6987 84.3548 12.3093C84.3548 11.92 84.2697 11.5732 84.0993 11.269C83.9351 10.9648 83.7069 10.7276 83.4149 10.5572C83.129 10.3869 82.8035 10.3017 82.4384 10.3017C82.0734 10.3017 81.7449 10.3869 81.4529 10.5572C81.1669 10.7276 80.9388 10.9648 80.7684 11.269C80.6042 11.5732 80.522 11.92 80.522 12.3093C80.522 12.6987 80.6042 13.0455 80.7684 13.3497C80.9388 13.6539 81.1669 13.8911 81.4529 14.0615C81.7449 14.2318 82.0734 14.317 82.4384 14.317ZM90.9403 14.7277C90.4901 14.7277 90.0825 14.6242 89.7175 14.4174C89.3585 14.2105 89.0756 13.9246 88.8688 13.5596C88.6619 13.1885 88.5585 12.7717 88.5585 12.3093C88.5585 11.847 88.6619 11.4333 88.8688 11.0682C89.0756 10.6971 89.3585 10.4082 89.7175 10.2013C90.0825 9.99445 90.4901 9.89103 90.9403 9.89103C91.3905 9.89103 91.7951 9.99445 92.1541 10.2013C92.5191 10.4082 92.805 10.6971 93.0119 11.0682C93.2187 11.4333 93.3222 11.847 93.3222 12.3093C93.3222 12.7717 93.2187 13.1885 93.0119 13.5596C92.805 13.9246 92.5191 14.2105 92.1541 14.4174C91.7951 14.6242 91.3905 14.7277 90.9403 14.7277ZM90.9403 14.317C91.3054 14.317 91.6309 14.2318 91.9168 14.0615C92.2088 13.8911 92.437 13.6539 92.6012 13.3497C92.7716 13.0455 92.8567 12.6987 92.8567 12.3093C92.8567 11.92 92.7716 11.5732 92.6012 11.269C92.437 10.9648 92.2088 10.7276 91.9168 10.5572C91.6309 10.3869 91.3054 10.3017 90.9403 10.3017C90.5753 10.3017 90.2468 10.3869 89.9548 10.5572C89.6688 10.7276 89.4407 10.9648 89.2703 11.269C89.1061 11.5732 89.0239 11.92 89.0239 12.3093C89.0239 12.6987 89.1061 13.0455 89.2703 13.3497C89.4407 13.6539 89.6688 13.8911 89.9548 14.0615C90.2468 14.2318 90.5753 14.317 90.9403 14.317ZM97.0648 9.89103C97.661 9.89103 98.1325 10.0644 98.4793 10.4112C98.826 10.758 98.9994 11.2568 98.9994 11.9078V14.6912H98.5431V11.9443C98.5431 11.4089 98.4063 11.0013 98.1325 10.7215C97.8648 10.4416 97.4876 10.3017 97.0009 10.3017C96.4412 10.3017 96.0001 10.469 95.6777 10.8036C95.3552 11.1382 95.194 11.5884 95.194 12.1542V14.6912H94.7377V9.92753H95.1757V10.9587C95.34 10.6241 95.5834 10.3625 95.9058 10.1739C96.2343 9.98533 96.6207 9.89103 97.0648 9.89103ZM105.585 14.39C105.47 14.4995 105.324 14.5847 105.147 14.6455C104.977 14.7003 104.797 14.7277 104.609 14.7277C104.195 14.7277 103.876 14.6151 103.651 14.39C103.426 14.1588 103.313 13.8394 103.313 13.4318V10.3199H102.437V9.92753H103.313V8.8872H103.769V9.92753H105.284V10.3199H103.769V13.3862C103.769 13.6965 103.842 13.9337 103.988 14.098C104.14 14.2562 104.363 14.3353 104.655 14.3353C104.953 14.3353 105.199 14.247 105.394 14.0706L105.585 14.39ZM109.185 9.89103C109.781 9.89103 110.253 10.0644 110.599 10.4112C110.946 10.758 111.12 11.2568 111.12 11.9078V14.6912H110.663V11.9443C110.663 11.4089 110.526 11.0013 110.253 10.7215C109.985 10.4416 109.608 10.3017 109.121 10.3017C108.561 10.3017 108.12 10.469 107.798 10.8036C107.475 11.1382 107.314 11.5884 107.314 12.1542V14.6912H106.858V7.91987H107.314V10.9222C107.478 10.5937 107.722 10.3412 108.044 10.1648C108.367 9.98229 108.747 9.89103 109.185 9.89103ZM117.031 12.4189H112.934C112.946 12.79 113.04 13.1215 113.217 13.4136C113.393 13.6995 113.631 13.9216 113.929 14.0797C114.233 14.2379 114.574 14.317 114.951 14.317C115.261 14.317 115.547 14.2623 115.809 14.1527C116.076 14.0372 116.298 13.8698 116.475 13.6508L116.739 13.952C116.533 14.2014 116.271 14.3931 115.955 14.5269C115.644 14.6607 115.307 14.7277 114.942 14.7277C114.467 14.7277 114.044 14.6242 113.673 14.4174C113.302 14.2105 113.01 13.9246 112.797 13.5596C112.59 13.1945 112.487 12.7778 112.487 12.3093C112.487 11.847 112.584 11.4333 112.779 11.0682C112.98 10.6971 113.253 10.4082 113.6 10.2013C113.947 9.99445 114.336 9.89103 114.768 9.89103C115.2 9.89103 115.587 9.99445 115.927 10.2013C116.274 10.4021 116.545 10.685 116.739 11.05C116.94 11.415 117.041 11.8287 117.041 12.2911L117.031 12.4189ZM114.768 10.2926C114.434 10.2926 114.132 10.3686 113.865 10.5207C113.597 10.6667 113.381 10.8766 113.217 11.1504C113.059 11.4181 112.967 11.7223 112.943 12.063H116.593C116.575 11.7223 116.484 11.4181 116.32 11.1504C116.155 10.8827 115.939 10.6728 115.672 10.5207C115.404 10.3686 115.103 10.2926 114.768 10.2926Z" fill="white"/>
<path fill-rule="evenodd" clip-rule="evenodd" d="M0.730957 -0.353516H64.9336L61.0352 6.1309C59.8222 8.14857 59.2157 9.15741 58.3813 9.89016C57.6429 10.5386 56.7786 11.0275 55.8424 11.3262C54.7845 11.6637 53.6074 11.6637 51.2531 11.6637H0.730957V-0.353516Z" fill="url(#paint1_linear_9_2323)"/>
<path d="M7.43639 8.0766C6.93703 8.0766 6.48524 7.96722 6.081 7.74845C5.68151 7.52493 5.36763 7.22056 5.13936 6.83535C4.91108 6.44538 4.79694 6.00785 4.79694 5.52276C4.79694 5.03767 4.91108 4.60252 5.13936 4.21731C5.36763 3.82733 5.68389 3.52297 6.08813 3.3042C6.49237 3.08068 6.94417 2.96892 7.44352 2.96892C7.83349 2.96892 8.19017 3.0355 8.51357 3.16866C8.83696 3.29707 9.11279 3.48967 9.34107 3.74649L8.87738 4.1959C8.50168 3.80118 8.03323 3.60381 7.47206 3.60381C7.10111 3.60381 6.76583 3.68704 6.46621 3.85349C6.1666 4.01994 5.93119 4.2506 5.75998 4.54545C5.59353 4.83555 5.51031 5.16132 5.51031 5.52276C5.51031 5.8842 5.59353 6.21234 5.75998 6.5072C5.93119 6.7973 6.1666 7.02558 6.46621 7.19203C6.76583 7.35848 7.10111 7.44171 7.47206 7.44171C8.02848 7.44171 8.49692 7.24197 8.87738 6.84248L9.34107 7.2919C9.11279 7.54871 8.83458 7.7437 8.50643 7.87686C8.18304 8.01002 7.82636 8.0766 7.43639 8.0766ZM11.8029 8.06233C11.4272 8.06233 11.0895 7.97911 10.7899 7.81266C10.4903 7.6462 10.2549 7.41793 10.0837 7.12783C9.91723 6.83297 9.834 6.50007 9.834 6.12912C9.834 5.75817 9.91723 5.42764 10.0837 5.13754C10.2549 4.84269 10.4903 4.61441 10.7899 4.45272C11.0895 4.28626 11.4272 4.20304 11.8029 4.20304C12.1786 4.20304 12.5139 4.28626 12.8087 4.45272C13.1083 4.61441 13.3414 4.84269 13.5078 5.13754C13.679 5.42764 13.7646 5.75817 13.7646 6.12912C13.7646 6.50007 13.679 6.83297 13.5078 7.12783C13.3414 7.41793 13.1083 7.6462 12.8087 7.81266C12.5139 7.97911 12.1786 8.06233 11.8029 8.06233ZM11.8029 7.46311C12.0454 7.46311 12.2618 7.40842 12.452 7.29903C12.647 7.1849 12.7992 7.02796 12.9086 6.82821C13.018 6.62372 13.0727 6.39069 13.0727 6.12912C13.0727 5.86755 13.018 5.6369 12.9086 5.43716C12.7992 5.23266 12.647 5.07572 12.452 4.96634C12.2618 4.85695 12.0454 4.80226 11.8029 4.80226C11.5603 4.80226 11.3416 4.85695 11.1466 4.96634C10.9564 5.07572 10.8042 5.23266 10.69 5.43716C10.5807 5.6369 10.526 5.86755 10.526 6.12912C10.526 6.39069 10.5807 6.62372 10.69 6.82821C10.8042 7.02796 10.9564 7.1849 11.1466 7.29903C11.3416 7.40842 11.5603 7.46311 11.8029 7.46311ZM19.5263 4.20304C20.0018 4.20304 20.3775 4.34095 20.6534 4.61679C20.934 4.89262 21.0743 5.30162 21.0743 5.84377V8.01953H20.3894V5.92224C20.3894 5.55605 20.3038 5.28022 20.1326 5.09474C19.9662 4.90927 19.726 4.81653 19.4121 4.81653C19.0649 4.81653 18.7891 4.92591 18.5846 5.14468C18.3801 5.35869 18.2779 5.66781 18.2779 6.07205V8.01953H17.593V5.92224C17.593 5.55605 17.5074 5.28022 17.3362 5.09474C17.1698 4.90927 16.9296 4.81653 16.6157 4.81653C16.2686 4.81653 15.9927 4.92591 15.7882 5.14468C15.5837 5.35869 15.4815 5.66781 15.4815 6.07205V8.01953H14.7967V4.23871H15.453V4.80226C15.5909 4.60728 15.7716 4.45985 15.9951 4.35998C16.2186 4.25535 16.4731 4.20304 16.7584 4.20304C17.0533 4.20304 17.3148 4.26248 17.5431 4.38138C17.7714 4.50027 17.9473 4.67386 18.071 4.90213C18.2137 4.68337 18.411 4.51216 18.6631 4.38851C18.9199 4.26486 19.2076 4.20304 19.5263 4.20304ZM22.4193 4.23871H23.1041V8.01953H22.4193V4.23871ZM22.7617 3.51108C22.6285 3.51108 22.5168 3.46827 22.4264 3.38267C22.3408 3.29707 22.298 3.19244 22.298 3.06879C22.298 2.94514 22.3408 2.84051 22.4264 2.75491C22.5168 2.66455 22.6285 2.61937 22.7617 2.61937C22.8948 2.61937 23.0042 2.66217 23.0898 2.74778C23.1802 2.82862 23.2254 2.93087 23.2254 3.05452C23.2254 3.18293 23.1802 3.29231 23.0898 3.38267C23.0042 3.46827 22.8948 3.51108 22.7617 3.51108ZM26.5154 4.20304C26.9957 4.20304 27.3762 4.34333 27.6568 4.62392C27.9421 4.89976 28.0848 5.30637 28.0848 5.84377V8.01953H27.4V5.92224C27.4 5.55605 27.312 5.28022 27.136 5.09474C26.9601 4.90927 26.708 4.81653 26.3799 4.81653C26.0089 4.81653 25.7164 4.92591 25.5024 5.14468C25.2884 5.35869 25.1814 5.66781 25.1814 6.07205V8.01953H24.4966V4.23871H25.1529V4.8094C25.2908 4.61441 25.4763 4.4646 25.7093 4.35998C25.9471 4.25535 26.2158 4.20304 26.5154 4.20304ZM33.0748 4.23871V7.50591C33.0748 8.16696 32.9107 8.65442 32.5826 8.9683C32.2544 9.28694 31.7646 9.44626 31.113 9.44626C30.7563 9.44626 30.4163 9.39632 30.0929 9.29645C29.7695 9.20134 29.508 9.06342 29.3082 8.8827L29.6364 8.35481C29.8123 8.507 30.0287 8.62589 30.2855 8.71149C30.5471 8.80185 30.8158 8.84703 31.0916 8.84703C31.5339 8.84703 31.8597 8.74241 32.0689 8.53315C32.2829 8.3239 32.3899 8.00526 32.3899 7.57725V7.27763C32.2282 7.47262 32.0285 7.62005 31.7907 7.71992C31.5577 7.81503 31.3033 7.86259 31.0274 7.86259C30.666 7.86259 30.3378 7.7865 30.043 7.63432C29.7529 7.47738 29.5246 7.26099 29.3582 6.98515C29.1917 6.70457 29.1085 6.38593 29.1085 6.02925C29.1085 5.67257 29.1917 5.35631 29.3582 5.08047C29.5246 4.79989 29.7529 4.5835 30.043 4.43131C30.3378 4.27913 30.666 4.20304 31.0274 4.20304C31.3128 4.20304 31.5767 4.25535 31.8193 4.35998C32.0666 4.4646 32.2687 4.61917 32.4256 4.82366V4.23871H33.0748ZM31.1059 7.26337C31.3532 7.26337 31.5743 7.21105 31.7693 7.10643C31.9691 7.0018 32.1236 6.85675 32.233 6.67127C32.3471 6.48104 32.4042 6.26704 32.4042 6.02925C32.4042 5.66305 32.2829 5.3682 32.0404 5.14468C31.7979 4.9164 31.4864 4.80226 31.1059 4.80226C30.7207 4.80226 30.4068 4.9164 30.1643 5.14468C29.9217 5.3682 29.8004 5.66305 29.8004 6.02925C29.8004 6.26704 29.8551 6.48104 29.9645 6.67127C30.0786 6.85675 30.2332 7.0018 30.4282 7.10643C30.6279 7.21105 30.8538 7.26337 31.1059 7.26337ZM38.024 8.0766C37.6483 8.0766 37.2845 8.01953 36.9326 7.90539C36.5854 7.7865 36.312 7.63432 36.1122 7.44884L36.3762 6.89242C36.5664 7.06362 36.8089 7.20392 37.1038 7.3133C37.4034 7.41793 37.7102 7.47024 38.024 7.47024C38.4378 7.47024 38.7469 7.40128 38.9514 7.26337C39.1559 7.12069 39.2582 6.93284 39.2582 6.69981C39.2582 6.5286 39.2011 6.39069 39.087 6.28606C38.9776 6.17668 38.8397 6.09345 38.6732 6.03638C38.5115 5.97931 38.2809 5.91511 37.9812 5.84377C37.6055 5.75341 37.3012 5.66305 37.0681 5.5727C36.8399 5.48234 36.6425 5.34442 36.476 5.15894C36.3144 4.96871 36.2335 4.71428 36.2335 4.39565C36.2335 4.12932 36.3025 3.88916 36.4404 3.67515C36.5831 3.46114 36.7971 3.28993 37.0824 3.16153C37.3677 3.03312 37.7221 2.96892 38.1453 2.96892C38.4402 2.96892 38.7303 3.00697 39.0156 3.08306C39.301 3.15915 39.5459 3.26853 39.7504 3.4112L39.515 3.9819C39.3057 3.84873 39.0822 3.74886 38.8444 3.68228C38.6066 3.61095 38.3736 3.57528 38.1453 3.57528C37.7411 3.57528 37.4367 3.64899 37.2322 3.79642C37.0325 3.94385 36.9326 4.13408 36.9326 4.36711C36.9326 4.53832 36.9897 4.67861 37.1038 4.788C37.2179 4.89262 37.3582 4.97585 37.5247 5.03767C37.6959 5.09474 37.9266 5.15657 38.2167 5.22315C38.5924 5.31351 38.8943 5.40387 39.1226 5.49423C39.3509 5.58458 39.5459 5.7225 39.7076 5.90798C39.874 6.09345 39.9573 6.34313 39.9573 6.65701C39.9573 6.91857 39.8859 7.15874 39.7432 7.3775C39.6006 7.59151 39.3842 7.76272 39.0941 7.89113C38.804 8.01478 38.4473 8.0766 38.024 8.0766ZM42.6038 8.06233C42.2281 8.06233 41.8905 7.97911 41.5909 7.81266C41.2912 7.6462 41.0558 7.41793 40.8846 7.12783C40.7182 6.83297 40.6349 6.50007 40.6349 6.12912C40.6349 5.75817 40.7182 5.42764 40.8846 5.13754C41.0558 4.84269 41.2912 4.61441 41.5909 4.45272C41.8905 4.28626 42.2281 4.20304 42.6038 4.20304C42.9795 4.20304 43.3148 4.28626 43.6097 4.45272C43.9093 4.61441 44.1423 4.84269 44.3088 5.13754C44.48 5.42764 44.5656 5.75817 44.5656 6.12912C44.5656 6.50007 44.48 6.83297 44.3088 7.12783C44.1423 7.41793 43.9093 7.6462 43.6097 7.81266C43.3148 7.97911 42.9795 8.06233 42.6038 8.06233ZM42.6038 7.46311C42.8464 7.46311 43.0628 7.40842 43.253 7.29903C43.448 7.1849 43.6002 7.02796 43.7095 6.82821C43.8189 6.62372 43.8736 6.39069 43.8736 6.12912C43.8736 5.86755 43.8189 5.6369 43.7095 5.43716C43.6002 5.23266 43.448 5.07572 43.253 4.96634C43.0628 4.85695 42.8464 4.80226 42.6038 4.80226C42.3613 4.80226 42.1425 4.85695 41.9475 4.96634C41.7573 5.07572 41.6051 5.23266 41.491 5.43716C41.3816 5.6369 41.3269 5.86755 41.3269 6.12912C41.3269 6.39069 41.3816 6.62372 41.491 6.82821C41.6051 7.02796 41.7573 7.1849 41.9475 7.29903C42.1425 7.40842 42.3613 7.46311 42.6038 7.46311ZM47.2169 8.06233C46.8412 8.06233 46.5036 7.97911 46.204 7.81266C45.9043 7.6462 45.6689 7.41793 45.4977 7.12783C45.3313 6.83297 45.248 6.50007 45.248 6.12912C45.248 5.75817 45.3313 5.42764 45.4977 5.13754C45.6689 4.84269 45.9043 4.61441 46.204 4.45272C46.5036 4.28626 46.8412 4.20304 47.2169 4.20304C47.5926 4.20304 47.9279 4.28626 48.2228 4.45272C48.5224 4.61441 48.7554 4.84269 48.9219 5.13754C49.0931 5.42764 49.1787 5.75817 49.1787 6.12912C49.1787 6.50007 49.0931 6.83297 48.9219 7.12783C48.7554 7.41793 48.5224 7.6462 48.2228 7.81266C47.9279 7.97911 47.5926 8.06233 47.2169 8.06233ZM47.2169 7.46311C47.4595 7.46311 47.6759 7.40842 47.8661 7.29903C48.0611 7.1849 48.2133 7.02796 48.3226 6.82821C48.432 6.62372 48.4867 6.39069 48.4867 6.12912C48.4867 5.86755 48.432 5.6369 48.3226 5.43716C48.2133 5.23266 48.0611 5.07572 47.8661 4.96634C47.6759 4.85695 47.4595 4.80226 47.2169 4.80226C46.9744 4.80226 46.7556 4.85695 46.5606 4.96634C46.3704 5.07572 46.2182 5.23266 46.1041 5.43716C45.9947 5.6369 45.94 5.86755 45.94 6.12912C45.94 6.39069 45.9947 6.62372 46.1041 6.82821C46.2182 7.02796 46.3704 7.1849 46.5606 7.29903C46.7556 7.40842 46.9744 7.46311 47.2169 7.46311ZM52.2295 4.20304C52.7099 4.20304 53.0903 4.34333 53.3709 4.62392C53.6563 4.89976 53.7989 5.30637 53.7989 5.84377V8.01953H53.1141V5.92224C53.1141 5.55605 53.0261 5.28022 52.8502 5.09474C52.6742 4.90927 52.4221 4.81653 52.094 4.81653C51.723 4.81653 51.4306 4.92591 51.2165 5.14468C51.0025 5.35869 50.8955 5.66781 50.8955 6.07205V8.01953H50.2107V4.23871H50.867V4.8094C51.0049 4.61441 51.1904 4.4646 51.4234 4.35998C51.6612 4.25535 51.9299 4.20304 52.2295 4.20304Z" fill="white"/>
</g>
<path d="M47.058 26.9656H41.5997L40.5237 29.4919H38.434L43.3464 18.5755H45.3425L50.2705 29.4919H48.1496L47.058 26.9656ZM46.3874 25.3749L44.3289 20.6028L42.2859 25.3749H46.3874ZM56.0881 21.0707C56.899 21.0707 57.6216 21.2474 58.2558 21.6009C58.9004 21.9544 59.4046 22.4534 59.7685 23.098C60.1324 23.7426 60.3143 24.486 60.3143 25.3281C60.3143 26.1702 60.1324 26.9188 59.7685 27.5738C59.4046 28.2184 58.9004 28.7174 58.2558 29.0709C57.6216 29.4244 56.899 29.6011 56.0881 29.6011C54.9653 29.6011 54.0763 29.2268 53.4214 28.4783V32.5174H51.472V21.1642H53.3278V22.2559C53.6501 21.8608 54.0452 21.5645 54.513 21.367C54.9913 21.1694 55.5163 21.0707 56.0881 21.0707ZM55.8698 27.9324C56.5871 27.9324 57.1746 27.6933 57.632 27.2151C58.0999 26.7368 58.3338 26.1078 58.3338 25.3281C58.3338 24.5483 58.0999 23.9193 57.632 23.4411C57.1746 22.9628 56.5871 22.7237 55.8698 22.7237C55.4019 22.7237 54.9809 22.8329 54.6066 23.0512C54.2323 23.2592 53.936 23.5607 53.7177 23.9557C53.4993 24.3508 53.3902 24.8083 53.3902 25.3281C53.3902 25.8479 53.4993 26.3054 53.7177 26.7004C53.936 27.0955 54.2323 27.4022 54.6066 27.6205C54.9809 27.8285 55.4019 27.9324 55.8698 27.9324ZM66.7795 21.0707C67.5904 21.0707 68.313 21.2474 68.9472 21.6009C69.5917 21.9544 70.096 22.4534 70.4599 23.098C70.8238 23.7426 71.0057 24.486 71.0057 25.3281C71.0057 26.1702 70.8238 26.9188 70.4599 27.5738C70.096 28.2184 69.5917 28.7174 68.9472 29.0709C68.313 29.4244 67.5904 29.6011 66.7795 29.6011C65.6566 29.6011 64.7677 29.2268 64.1127 28.4783V32.5174H62.1633V21.1642H64.0191V22.2559C64.3414 21.8608 64.7365 21.5645 65.2044 21.367C65.6826 21.1694 66.2076 21.0707 66.7795 21.0707ZM66.5611 27.9324C67.2785 27.9324 67.8659 27.6933 68.3234 27.2151C68.7912 26.7368 69.0251 26.1078 69.0251 25.3281C69.0251 24.5483 68.7912 23.9193 68.3234 23.4411C67.8659 22.9628 67.2785 22.7237 66.5611 22.7237C66.0933 22.7237 65.6722 22.8329 65.2979 23.0512C64.9237 23.2592 64.6273 23.5607 64.409 23.9557C64.1907 24.3508 64.0815 24.8083 64.0815 25.3281C64.0815 25.8479 64.1907 26.3054 64.409 26.7004C64.6273 27.0955 64.9237 27.4022 65.2979 27.6205C65.6722 27.8285 66.0933 27.9324 66.5611 27.9324ZM80.7361 29.6479C79.894 29.6479 79.0779 29.5283 78.2877 29.2892C77.508 29.0501 76.8894 28.733 76.4319 28.3379L77.1337 26.7628C77.5808 27.1163 78.1266 27.4074 78.7712 27.6361C79.4262 27.8545 80.0812 27.9636 80.7361 27.9636C81.5471 27.9636 82.1501 27.8337 82.5452 27.5738C82.9506 27.3138 83.1534 26.9708 83.1534 26.5445C83.1534 26.2326 83.039 25.9779 82.8103 25.7803C82.592 25.5724 82.3112 25.4113 81.9682 25.2969C81.6251 25.1825 81.1572 25.0526 80.5646 24.907C79.7329 24.7095 79.0571 24.5119 78.5373 24.3144C78.0278 24.1169 77.586 23.8102 77.2117 23.3943C76.8478 22.968 76.6659 22.3962 76.6659 21.6789C76.6659 21.0759 76.827 20.53 77.1493 20.0414C77.482 19.5423 77.9758 19.1473 78.6308 18.8562C79.2962 18.5651 80.1072 18.4195 81.0636 18.4195C81.729 18.4195 82.384 18.5027 83.0286 18.669C83.6732 18.8354 84.2294 19.0745 84.6973 19.3864L84.0579 20.9615C83.5796 20.6808 83.0806 20.4677 82.5608 20.3221C82.0409 20.1765 81.5367 20.1038 81.048 20.1038C80.2475 20.1038 79.6497 20.2389 79.2546 20.5092C78.87 20.7796 78.6776 21.1382 78.6776 21.5853C78.6776 21.8972 78.7868 22.1519 79.0051 22.3494C79.2338 22.547 79.5197 22.7029 79.8628 22.8173C80.2059 22.9317 80.6738 23.0616 81.2664 23.2072C82.0773 23.3943 82.7427 23.5918 83.2625 23.7998C83.7824 23.9973 84.2242 24.304 84.5881 24.7199C84.9624 25.1357 85.1495 25.6972 85.1495 26.4041C85.1495 27.0071 84.9832 27.553 84.6505 28.0416C84.3282 28.5303 83.8344 28.9201 83.169 29.2112C82.5036 29.5023 81.6926 29.6479 80.7361 29.6479ZM91.9789 29.0397C91.7502 29.2268 91.4695 29.3672 91.1368 29.4608C90.8145 29.5543 90.4714 29.6011 90.1075 29.6011C89.1926 29.6011 88.4857 29.362 87.9866 28.8837C87.4876 28.4055 87.2381 27.7089 87.2381 26.794V22.7861H85.8657V21.2266H87.2381V19.324H89.1874V21.2266H91.4175V22.7861H89.1874V26.7472C89.1874 27.1527 89.2862 27.4646 89.4837 27.6829C89.6813 27.8909 89.9672 27.9948 90.3415 27.9948C90.7781 27.9948 91.142 27.8805 91.4331 27.6517L91.9789 29.0397ZM97.0418 29.6011C96.1996 29.6011 95.4407 29.4192 94.7649 29.0553C94.0891 28.6914 93.5589 28.1872 93.1742 27.5426C92.7999 26.8876 92.6128 26.1494 92.6128 25.3281C92.6128 24.5067 92.7999 23.7738 93.1742 23.1292C93.5589 22.4846 94.0891 21.9804 94.7649 21.6165C95.4407 21.2526 96.1996 21.0707 97.0418 21.0707C97.8943 21.0707 98.6584 21.2526 99.3342 21.6165C100.01 21.9804 100.535 22.4846 100.909 23.1292C101.294 23.7738 101.486 24.5067 101.486 25.3281C101.486 26.1494 101.294 26.8876 100.909 27.5426C100.535 28.1872 100.01 28.6914 99.3342 29.0553C98.6584 29.4192 97.8943 29.6011 97.0418 29.6011ZM97.0418 27.9324C97.7591 27.9324 98.3517 27.6933 98.8196 27.2151C99.2874 26.7368 99.5214 26.1078 99.5214 25.3281C99.5214 24.5483 99.2874 23.9193 98.8196 23.4411C98.3517 22.9628 97.7591 22.7237 97.0418 22.7237C96.3244 22.7237 95.7318 22.9628 95.2639 23.4411C94.8065 23.9193 94.5778 24.5483 94.5778 25.3281C94.5778 26.1078 94.8065 26.7368 95.2639 27.2151C95.7318 27.6933 96.3244 27.9324 97.0418 27.9324ZM105.206 22.3806C105.768 21.5073 106.756 21.0707 108.17 21.0707V22.9265C108.003 22.8953 107.852 22.8797 107.717 22.8797C106.958 22.8797 106.366 23.1032 105.939 23.5503C105.513 23.9869 105.3 24.6211 105.3 25.4528V29.4919H103.351V21.1642H105.206V22.3806ZM117.569 25.3749C117.569 25.51 117.559 25.7024 117.538 25.9519H111.004C111.118 26.5653 111.414 27.0539 111.893 27.4178C112.381 27.7713 112.984 27.948 113.702 27.948C114.617 27.948 115.37 27.6465 115.963 27.0435L117.008 28.2443C116.634 28.6914 116.16 29.0293 115.589 29.258C115.017 29.4867 114.372 29.6011 113.655 29.6011C112.74 29.6011 111.934 29.4192 111.238 29.0553C110.541 28.6914 110 28.1872 109.616 27.5426C109.242 26.8876 109.054 26.1494 109.054 25.3281C109.054 24.5171 109.236 23.7894 109.6 23.1448C109.974 22.4898 110.489 21.9804 111.144 21.6165C111.799 21.2526 112.537 21.0707 113.359 21.0707C114.17 21.0707 114.892 21.2526 115.526 21.6165C116.171 21.97 116.67 22.4742 117.023 23.1292C117.387 23.7738 117.569 24.5223 117.569 25.3749ZM113.359 22.6302C112.735 22.6302 112.205 22.8173 111.768 23.1916C111.342 23.5555 111.082 24.0441 110.988 24.6575H115.713C115.63 24.0545 115.376 23.5659 114.949 23.1916C114.523 22.8173 113.993 22.6302 113.359 22.6302Z" fill="white"/>
</g>
<defs>
<linearGradient id="paint0_linear_9_2323" x1="-6.80346" y1="-15.7734" x2="-7.69419" y2="39.6839" gradientUnits="userSpaceOnUse">
<stop stop-color="#5A5C60"/>
<stop offset="1" stop-color="#333539"/>
</linearGradient>
<linearGradient id="paint1_linear_9_2323" x1="-80.5067" y1="-41.6771" x2="-81.8644" y2="12.142" gradientUnits="userSpaceOnUse">
<stop stop-color="#D2E9F8"/>
<stop offset="1" stop-color="#0977BE"/>
</linearGradient>
<clipPath id="clip0_9_2323">
<rect width="134.269" height="41" fill="white" transform="translate(0.730957)"/>
</clipPath>
</defs>
</svg>
