<svg width="32" height="23" viewBox="0 0 32 23" fill="none" xmlns="http://www.w3.org/2000/svg">
<path fill-rule="evenodd" clip-rule="evenodd" d="M8.89019 11.8806C7.96333 15.7087 5.28284 18.9353 0.851203 21.5615L0.901325 23C4.81351 22.4505 8.1207 20.7513 10.8229 17.9022C13.5256 15.0513 14.816 11.8911 14.6949 8.41737C14.609 5.95237 13.8424 3.91518 12.3939 2.30768C10.946 0.699544 9.18783 -0.0677133 7.11934 0.00468129C5.05206 0.0770341 3.33201 0.789739 1.96093 2.14029C0.590457 3.49081 -0.062186 5.12778 0.00465774 7.04623C0.0651546 8.78249 0.655493 10.2303 1.77452 11.3915C2.89359 12.5538 4.23571 13.1067 5.80035 13.052C6.73914 13.0191 7.76865 12.6281 8.89019 11.8806ZM26.1875 11.8806C25.2606 15.7087 22.5801 18.9353 18.1485 21.5615L18.1986 23C22.1108 22.4505 25.418 20.7513 28.1202 17.9022C30.8229 15.0513 32.1132 11.8911 31.9922 8.41737C31.9063 5.95237 31.1397 3.91518 29.6912 2.30768C28.2433 0.699544 26.4851 -0.0677133 24.4166 0.00468129C22.3494 0.0770341 20.6293 0.789739 19.2582 2.14029C17.8878 3.49081 17.2351 5.12778 17.302 7.04623C17.3625 8.78249 17.9528 10.2303 19.0718 11.3915C20.1909 12.5538 21.533 13.1067 23.0976 13.052C24.0364 13.0191 25.0659 12.6281 26.1875 11.8806Z" fill="#2C95EB"/>
</svg>
