<svg width="15" height="16" viewBox="0 0 15 16" fill="none" xmlns="http://www.w3.org/2000/svg">
    <path fill-rule="evenodd" clip-rule="evenodd"
        d="M2.95437 11.1834C0.822965 9.05339 0.822965 5.58726 2.95437 3.45721C3.98666 2.42431 5.35819 1.85647 6.81796 1.85647C8.27773 1.85647 9.65012 2.42431 10.6824 3.45721C12.8129 5.58726 12.8129 9.05339 10.6824 11.1834C8.55186 13.3135 5.08491 13.3135 2.95437 11.1834ZM11.5751 11.4704C13.7424 8.99087 13.6508 5.21298 11.2881 2.85083C10.0939 1.65691 8.50646 1 6.81796 1C5.12946 1 3.54204 1.65691 2.34784 2.85083C-0.115947 5.3149 -0.115947 9.32489 2.34784 11.789C3.58059 13.0214 5.1997 13.6372 6.81796 13.6372C8.30257 13.6372 9.78376 13.1122 10.9694 12.0759L13.7684 14.8741C13.8524 14.958 13.962 15 14.0717 15C14.1813 15 14.291 14.958 14.3741 14.8741C14.542 14.7071 14.542 14.4364 14.3741 14.2686L11.5751 11.4704Z"
        fill="#0977BE" />
    <path
        d="M2.95437 11.1834L3.18533 10.9524L3.18528 10.9524L2.95437 11.1834ZM2.95437 3.45721L3.18528 3.68828L3.18542 3.68813L2.95437 3.45721ZM10.6824 3.45721L10.4513 3.68813L10.4514 3.68823L10.6824 3.45721ZM11.5751 11.4704L11.3291 11.2554L11.128 11.4854L11.3441 11.7014L11.5751 11.4704ZM11.2881 2.85083L11.0571 3.08185L11.2881 2.85083ZM2.34784 2.85083L2.11688 2.61982L2.11684 2.61986L2.34784 2.85083ZM2.34784 11.789L2.11684 12.0199L2.11688 12.02L2.34784 11.789ZM10.9694 12.0759L11.2003 11.8449L10.9844 11.6289L10.7544 11.8299L10.9694 12.0759ZM13.7684 14.8741L13.9994 14.6431L13.9994 14.6431L13.7684 14.8741ZM14.3741 14.8741L14.1437 14.6425L14.1419 14.6443L14.3741 14.8741ZM14.3741 14.2686L14.605 14.0376L14.605 14.0376L14.3741 14.2686ZM3.18528 10.9524C1.18155 8.94992 1.18155 5.69073 3.18528 3.68828L2.72345 3.22615C0.464381 5.48378 0.464381 9.15687 2.72345 11.4145L3.18528 10.9524ZM3.18542 3.68813C4.1564 2.71658 5.4448 2.18314 6.81796 2.18314V1.5298C5.27158 1.5298 3.81691 2.13204 2.72331 3.22629L3.18542 3.68813ZM6.81796 2.18314C8.19117 2.18314 9.48041 2.71662 10.4513 3.68813L10.9135 3.22629C9.81982 2.13201 8.36428 1.5298 6.81796 1.5298V2.18314ZM10.4514 3.68823C12.4544 5.69069 12.4544 8.94995 10.4514 10.9524L10.9134 11.4145C13.1715 9.15683 13.1715 5.48382 10.9134 3.2262L10.4514 3.68823ZM10.4514 10.9524C8.44847 12.9549 5.18831 12.9549 3.18533 10.9524L2.7234 11.4145C4.98151 13.672 8.65526 13.672 10.9134 11.4145L10.4514 10.9524ZM11.821 11.6853C14.1003 9.07779 14.0046 5.10481 11.519 2.61982L11.0571 3.08185C13.2969 5.32115 13.3845 8.90395 11.3291 11.2554L11.821 11.6853ZM11.519 2.61982C10.2635 1.36461 8.59302 0.673333 6.81796 0.673333V1.32667C8.4199 1.32667 9.92421 1.94922 11.0571 3.08185L11.519 2.61982ZM6.81796 0.673333C5.0429 0.673333 3.37239 1.36461 2.11688 2.61982L2.5788 3.08185C3.7117 1.94922 5.21602 1.32667 6.81796 1.32667V0.673333ZM2.11684 2.61986C-0.474502 5.21149 -0.474502 9.4283 2.11684 12.0199L2.57884 11.558C0.242608 9.22149 0.242608 5.41831 2.57884 3.08181L2.11684 2.61986ZM2.11688 12.02C3.41357 13.3164 5.11695 13.9639 6.81796 13.9639V13.3106C5.28246 13.3106 3.74761 12.7265 2.5788 11.5579L2.11688 12.02ZM6.81796 13.9639C8.37957 13.9639 9.93767 13.4115 11.1844 12.3218L10.7544 11.8299C9.62984 12.8129 8.22557 13.3106 6.81796 13.3106V13.9639ZM10.7384 12.3069L13.5374 15.1051L13.9994 14.6431L11.2003 11.8449L10.7384 12.3069ZM13.5374 15.1051C13.6848 15.2524 13.8785 15.3267 14.0717 15.3267V14.6733C14.0455 14.6733 14.0199 14.6636 13.9994 14.6431L13.5374 15.1051ZM14.0717 15.3267C14.2645 15.3267 14.459 15.2526 14.6062 15.1039L14.1419 14.6443C14.1229 14.6635 14.0981 14.6733 14.0717 14.6733V15.3267ZM14.6044 15.1057C14.9011 14.8107 14.9002 14.3327 14.605 14.0376L14.1431 14.4996C14.1837 14.5402 14.1829 14.6035 14.1437 14.6425L14.6044 15.1057ZM14.605 14.0376L11.806 11.2393L11.3441 11.7014L14.1431 14.4996L14.605 14.0376Z"
        fill="#0977BE" />
</svg>