<svg width="57" height="60" viewBox="0 0 57 60" fill="none" xmlns="http://www.w3.org/2000/svg">
<path d="M36.9964 44.6881L6.64234 22.9766C6.14987 22.6243 6.03617 21.9394 6.38839 21.447L17.7209 5.60328C18.0732 5.1108 18.7581 4.99711 19.2505 5.34933L49.6046 27.0607C50.0972 27.4131 50.2108 28.0979 49.8585 28.5904L38.526 44.4341C38.1738 44.9268 37.4889 45.0403 36.9964 44.6881Z" fill="url(#paint0_linear_9_1792)"/>
<path d="M36.7736 43.605L7.73932 22.8376C7.2748 22.5053 7.1676 21.8593 7.49986 21.3948L18.0306 6.67205C18.3629 6.20754 19.0088 6.10034 19.4734 6.4326L48.5076 27.2C48.9722 27.5323 49.0793 28.1782 48.7471 28.6428L38.2162 43.3655C37.8841 43.83 37.2381 43.9372 36.7736 43.605Z" fill="url(#paint1_linear_9_1792)"/>
<path d="M43.9452 31.1617C42.4565 30.0969 42.113 28.0269 43.1777 26.5384C43.2215 26.4772 43.2669 26.418 43.3139 26.3609C43.5398 26.0862 43.4871 25.6787 43.1979 25.4718L22.8246 10.8992C22.5354 10.6923 22.1326 10.7741 21.9457 11.0766C21.9068 11.1396 21.8655 11.2018 21.8218 11.2629C20.757 12.7516 18.687 13.0952 17.1984 12.0303C17.1967 12.029 17.1949 12.0278 17.1932 12.0265C16.914 11.8259 16.5271 11.8818 16.3272 12.1614L12.1447 18.0087C11.9447 18.2883 12.0168 18.6725 12.2968 18.872C12.2985 18.8732 12.3002 18.8745 12.3021 18.8758C13.7908 19.9406 14.1343 22.0105 13.0695 23.4992C13.0258 23.5603 12.9803 23.6195 12.9333 23.6767C12.7074 23.9513 12.7601 24.3588 13.0493 24.5657L33.4226 39.1382C33.7119 39.3451 34.1147 39.2633 34.3016 38.9607C34.3404 38.8977 34.3817 38.8356 34.4255 38.7744C35.4902 37.2857 37.5603 36.9422 39.0488 38.007C39.0506 38.0082 39.0523 38.0095 39.054 38.0108C39.3333 38.2114 39.7202 38.1555 39.9202 37.8759L44.1027 32.0286C44.3027 31.749 44.2306 31.3647 43.9506 31.1653C43.9486 31.1641 43.9469 31.1629 43.9452 31.1617Z" fill="url(#paint2_linear_9_1792)"/>
<circle cx="28.1234" cy="25.0188" r="7.54933" fill="url(#paint3_linear_9_1792)"/>
<path d="M33.1862 23.0361C33.1972 22.8231 33.1035 22.5723 32.9036 22.2829C32.688 21.9713 32.4295 21.6796 32.1297 21.4064C32.12 21.3827 32.1093 21.3601 32.0971 21.3388L31.9837 20.4721C31.9475 20.3617 31.8857 20.2749 31.7976 20.2119C31.7016 20.1432 31.5991 20.1125 31.4913 20.1198C31.383 20.1272 31.3032 20.1669 31.2517 20.2389L31.0025 20.5872C30.3024 20.1954 29.6052 20.0235 28.9111 20.0716C28.2169 20.1198 27.6211 20.4918 27.1236 21.1873C26.9464 21.435 26.8129 21.6808 26.7232 21.9248C26.6333 22.1687 26.5984 22.4123 26.618 22.6558C26.6374 22.8992 26.6666 23.1164 26.7057 23.3075C26.7059 23.3089 26.7064 23.3102 26.7066 23.3115C26.7066 23.3115 27.1366 25.9022 27.1369 25.9035C27.1402 25.9285 27.144 25.9524 27.1475 25.9768L25.7104 27.9859C25.3727 27.7081 25.126 27.3928 24.97 27.0396C24.814 26.6866 24.7089 26.3851 24.6544 26.1345C24.5997 25.884 24.525 25.7248 24.4301 25.6568C24.2867 25.5543 24.1052 25.5393 23.8851 25.6114C23.665 25.6835 23.5008 25.7956 23.3923 25.9473C23.2187 26.19 23.1844 26.5271 23.2892 26.9585L24.782 35.9514L36.7511 44.5126L33.1862 23.0361Z" fill="url(#paint4_linear_9_1792)"/>
<path fill-rule="evenodd" clip-rule="evenodd" d="M23.3924 25.9475C23.5009 25.7956 23.6651 25.6836 23.8852 25.6115C24.1053 25.5395 24.2868 25.5545 24.4302 25.657C24.5252 25.725 24.5999 25.8842 24.6545 26.1346C24.709 26.3852 24.8141 26.6869 24.9701 27.0398C25.1261 27.393 25.3728 27.7082 25.7105 27.9861L27.7252 25.1694C27.5478 24.9098 27.4136 24.7079 27.3228 24.5644C27.2316 24.4209 27.1158 24.2232 26.9752 23.9717C26.8344 23.7201 26.7444 23.4986 26.7057 23.3077C26.6667 23.1168 26.6375 22.8995 26.618 22.6561C26.5984 22.4126 26.6333 22.169 26.7232 21.9251C26.8129 21.6811 26.9464 21.4354 27.1236 21.1876C27.621 20.4921 28.2169 20.1199 28.9111 20.0719C29.6052 20.0236 30.3023 20.1956 31.0025 20.5873L31.2516 20.2391C31.3031 20.167 31.3829 20.1274 31.4911 20.1199C31.599 20.1126 31.7015 20.1432 31.7975 20.2119C31.8856 20.2749 31.9474 20.3617 31.9836 20.4721C32.0194 20.5826 32.0118 20.6739 31.9603 20.7459L31.7283 21.0702C32.2051 21.4356 32.5967 21.8397 32.9034 22.2829C33.2096 22.726 33.2684 23.0797 33.0795 23.3438C32.9763 23.4879 32.8204 23.6033 32.6118 23.6902C32.4033 23.7771 32.2182 23.7627 32.0567 23.6473C31.9929 23.6017 31.8661 23.4082 31.6767 23.0669C31.4871 22.7256 31.2408 22.4282 30.9377 22.1752L29.1967 24.6093C29.4295 24.957 29.6128 25.2602 29.7465 25.5191C29.8803 25.7779 29.9963 26.0872 30.0941 26.4471C30.1919 26.8069 30.1961 27.1754 30.1069 27.5523C30.0176 27.9294 29.8331 28.3138 29.553 28.7054C29.0413 29.4207 28.4394 29.8498 27.7475 29.9925C27.0555 30.1352 26.3406 30.0157 25.6028 29.6338L25.3157 30.0351C25.2652 30.1059 25.1821 30.1415 25.0665 30.1423C24.951 30.1428 24.8493 30.1117 24.7613 30.0488C24.6653 29.9801 24.6027 29.8937 24.574 29.7902C24.5453 29.6864 24.5563 29.5991 24.6069 29.5284L24.8683 29.1629C24.1774 28.6566 23.7008 28.0748 23.4388 27.4176C23.1768 26.7604 23.1614 26.2705 23.3924 25.9475ZM28.3984 21.9185C28.1755 22.2302 28.1024 22.5374 28.1796 22.84C28.2564 23.1427 28.4377 23.5048 28.7233 23.9264L30.2851 21.743C29.4397 21.2833 28.8109 21.342 28.3984 21.9185ZM28.2701 27.9868C27.7958 28.65 27.1604 28.7935 26.3644 28.4174L28.1734 25.8883C28.4067 26.2728 28.5439 26.6308 28.5853 26.9623C28.6266 27.2936 28.5215 27.6353 28.2701 27.9868Z" fill="url(#paint5_linear_9_1792)"/>
<circle cx="18.9896" cy="10.1328" r="1.56745" fill="url(#paint6_linear_9_1792)"/>
<circle cx="45.1623" cy="28.8536" r="1.56757" fill="url(#paint7_linear_9_1792)"/>
<circle cx="11.0848" cy="21.1842" r="1.56745" fill="url(#paint8_linear_9_1792)"/>
<circle cx="37.2575" cy="39.9049" r="1.56757" fill="url(#paint9_linear_9_1792)"/>
<path d="M35.3937 44.3177L14.1742 13.6179C13.8299 13.1197 13.9546 12.4367 14.4528 12.0925L30.477 1.01674C30.9751 0.672411 31.6581 0.797125 32.0023 1.29529L53.2218 31.9953C53.5661 32.4934 53.4414 33.1764 52.9433 33.5206L36.9191 44.5964C36.4209 44.9406 35.7381 44.8159 35.3937 44.3177Z" fill="url(#paint10_linear_9_1792)"/>
<path d="M35.5504 43.2232L15.2536 13.858C14.9289 13.3882 15.0465 12.7441 15.5162 12.4193L30.4068 2.12711C30.8766 1.80239 31.5207 1.92003 31.8454 2.38977L52.1423 31.7549C52.467 32.2248 52.3494 32.8689 51.8796 33.1936L36.9891 43.4858C36.5193 43.8105 35.8752 43.6929 35.5504 43.2232Z" fill="url(#paint11_linear_9_1792)"/>
<path d="M46.5087 33.9395C45.468 32.4339 45.845 30.3698 47.3506 29.329C47.4124 29.2864 47.4752 29.246 47.5389 29.2082C47.8443 29.0263 47.9326 28.6247 47.7304 28.3323L33.488 7.7268C33.2858 7.43433 32.8791 7.37494 32.601 7.5964C32.5431 7.64258 32.4831 7.68701 32.4213 7.7297C30.9157 8.77034 28.8516 8.39342 27.8109 6.8878C27.8097 6.88606 27.8085 6.8842 27.8072 6.88246C27.6123 6.59927 27.2294 6.52096 26.9465 6.71644L21.0325 10.8042C20.7498 10.9997 20.6876 11.3856 20.8837 11.668C20.8849 11.6697 20.8861 11.6716 20.8874 11.6733C21.928 13.179 21.5511 15.2431 20.0455 16.2838C19.9836 16.3265 19.9209 16.3669 19.8572 16.4047C19.5517 16.5866 19.4634 16.9881 19.6656 17.2806L33.908 37.8861C34.1102 38.1785 34.517 38.2379 34.795 38.0165C34.8529 37.9703 34.9129 37.9259 34.9747 37.883C36.4804 36.8424 38.5445 37.2193 39.5852 38.725C39.5865 38.7267 39.5877 38.7286 39.5889 38.7303C39.7838 39.0135 40.1668 39.0918 40.4496 38.8963L46.3637 34.8086C46.6465 34.6131 46.7086 34.2271 46.5125 33.9447C46.5111 33.943 46.5098 33.9413 46.5087 33.9395Z" fill="url(#paint12_linear_9_1792)"/>
<circle cx="33.6979" cy="22.8064" r="7.54933" fill="url(#paint13_linear_9_1792)"/>
<path d="M39.1328 22.6535C39.2152 22.4568 39.2118 22.189 39.1216 21.8492C39.0242 21.483 38.8796 21.121 38.6899 20.7625C38.6889 20.7369 38.6863 20.712 38.6821 20.6879L38.8686 19.8339C38.872 19.7178 38.8431 19.6151 38.7815 19.5261C38.7143 19.4289 38.6283 19.3654 38.5243 19.3359C38.4199 19.3062 38.3315 19.3166 38.2585 19.3669L37.9062 19.6105C37.3799 19.0049 36.782 18.6073 36.1125 18.4178C35.4428 18.2283 34.7563 18.3769 34.0529 18.8631C33.8023 19.0363 33.5936 19.2224 33.4267 19.4216C33.2596 19.6207 33.1443 19.8381 33.0804 20.0738C33.0163 20.3094 32.9703 20.5237 32.9424 20.7166C32.9422 20.718 32.9421 20.7194 32.9419 20.7208C32.9419 20.7208 32.4701 23.3042 32.47 23.3056C32.4647 23.3303 32.46 23.354 32.4552 23.3781L30.4232 24.7826C30.1994 24.4068 30.0738 24.0267 30.0466 23.6416C30.0192 23.2566 30.0224 22.9373 30.0558 22.683C30.0891 22.4289 30.0727 22.2537 30.0062 22.1576C29.906 22.0126 29.7402 21.9371 29.5087 21.9305C29.2772 21.9239 29.0847 21.9739 28.9313 22.08C28.6858 22.2496 28.5395 22.5552 28.4923 22.9967L26.8547 31.9644L35.222 44.0699L39.1328 22.6535Z" fill="url(#paint14_linear_9_1792)"/>
<path fill-rule="evenodd" clip-rule="evenodd" d="M28.9315 22.08C29.0851 21.9739 29.2774 21.924 29.5089 21.9305C29.7403 21.9371 29.9062 22.0126 30.0064 22.1576C30.0727 22.2537 30.0892 22.4289 30.0559 22.683C30.0224 22.9373 30.0193 23.2566 30.0467 23.6416C30.074 24.0267 30.1995 24.4069 30.4233 24.7826L33.2721 22.8135C33.193 22.5092 33.135 22.2738 33.0981 22.108C33.0609 21.9421 33.0188 21.7169 32.9715 21.4326C32.9241 21.1481 32.9145 20.9093 32.9425 20.7166C32.9704 20.5237 33.0164 20.3093 33.0805 20.0738C33.1444 19.8381 33.2597 19.6206 33.4268 19.4216C33.5937 19.2224 33.8024 19.0363 34.053 18.8631C34.7564 18.3769 35.443 18.2283 36.1126 18.4178C36.782 18.6073 37.38 19.0049 37.9063 19.6105L38.2586 19.3669C38.3315 19.3166 38.42 19.3062 38.5244 19.3359C38.6285 19.3654 38.7144 19.4289 38.7816 19.5261C38.8431 19.6151 38.872 19.7178 38.8687 19.8339C38.8651 19.95 38.8271 20.0333 38.7541 20.0837L38.4261 20.3104C38.7512 20.8155 38.9831 21.3284 39.1217 21.8492C39.26 22.3698 39.1958 22.7224 38.9286 22.9072C38.7828 23.0079 38.597 23.0638 38.3714 23.075C38.1457 23.0862 37.9763 23.01 37.8636 22.8468C37.819 22.7823 37.7651 22.5573 37.7024 22.172C37.6394 21.7866 37.5082 21.4235 37.3087 21.083L34.8469 22.7846C34.9483 23.1905 35.0181 23.538 35.0565 23.8267C35.0948 24.1155 35.0993 24.4459 35.0696 24.8176C35.0399 25.1893 34.9193 25.5375 34.7078 25.8621C34.4963 26.1867 34.1925 26.4861 33.7965 26.7598C33.0729 27.2599 32.3614 27.46 31.662 27.3603C30.9624 27.2604 30.3301 26.9062 29.765 26.2971L29.3592 26.5776C29.2876 26.6271 29.1974 26.6325 29.0885 26.5942C28.9796 26.5556 28.8944 26.4919 28.8329 26.4029C28.7657 26.3057 28.7361 26.2033 28.7441 26.0963C28.7524 25.9889 28.7922 25.9106 28.8637 25.861L29.2332 25.6056C28.7545 24.8954 28.5027 24.1867 28.4785 23.4795C28.4536 22.7721 28.6048 22.3058 28.9315 22.08ZM35.0055 19.982C34.6903 20.1999 34.5175 20.4643 34.4878 20.7751C34.4578 21.0859 34.5057 21.488 34.6319 21.9814L36.8403 20.455C36.2001 19.7366 35.5886 19.579 35.0055 19.982ZM32.8317 25.6491C32.1609 26.1128 31.5144 26.0328 30.8927 25.4096L33.4506 23.6416C33.54 24.0824 33.548 24.4656 33.4749 24.7916C33.4016 25.1174 33.1872 25.4033 32.8317 25.6491Z" fill="url(#paint15_linear_9_1792)"/>
<path d="M31.0296 6.99755C30.3174 7.48979 29.3411 7.31148 28.8489 6.59939C28.3566 5.88718 28.5349 4.91093 29.247 4.41869C29.9592 3.92644 30.9356 4.10476 31.4278 4.81685C31.92 5.52893 31.7417 6.5053 31.0296 6.99755Z" fill="url(#paint16_linear_9_1792)"/>
<circle cx="48.4349" cy="32.1791" r="1.56757" fill="url(#paint17_linear_9_1792)"/>
<circle cx="18.961" cy="13.4338" r="1.56745" fill="url(#paint18_linear_9_1792)"/>
<circle cx="37.2575" cy="39.9049" r="1.56745" fill="url(#paint19_linear_9_1792)"/>
<path d="M34.0107 43.427L24.4279 7.35867C24.2724 6.77339 24.6208 6.1729 25.206 6.01745L44.0323 1.01554C44.6176 0.860078 45.218 1.20847 45.3735 1.79364L54.9563 37.8619C55.1118 38.4472 54.7634 39.0477 54.1782 39.2031L35.3519 44.2052C34.7666 44.3606 34.1662 44.0122 34.0107 43.427Z" fill="url(#paint20_linear_9_1792)"/>
<path d="M34.5285 42.45L25.3623 7.94996C25.2157 7.39797 25.5442 6.83171 26.0962 6.68507L43.5907 2.037C44.1427 1.89036 44.7089 2.21891 44.8557 2.7709L54.0219 37.271C54.1685 37.823 53.84 38.3893 53.288 38.536L35.7934 43.1839C35.2415 43.3305 34.6752 43.002 34.5285 42.45Z" fill="url(#paint21_linear_9_1792)"/>
<path d="M47.9813 37.4208C47.5113 35.6519 48.5642 33.8369 50.3332 33.3669C50.4058 33.3476 50.4786 33.3309 50.5513 33.3168C50.9003 33.2489 51.1192 32.901 51.0279 32.5574L44.5959 8.34877C44.5046 8.00514 44.1419 7.81174 43.8053 7.92602C43.7352 7.9498 43.6637 7.97138 43.5911 7.99075C41.8222 8.46072 40.0072 7.40779 39.5372 5.63882C39.5367 5.63673 39.5362 5.63464 39.5356 5.63255C39.448 5.30017 39.114 5.09692 38.7819 5.18521L31.8337 7.03121C31.5015 7.11949 31.3125 7.46162 31.4014 7.79376C31.4019 7.79585 31.4025 7.79794 31.403 7.80003C31.8729 9.56888 30.82 11.3839 29.051 11.8539C28.9784 11.8731 28.9057 11.8898 28.8331 11.904C28.484 11.9719 28.2652 12.3198 28.3565 12.6634L34.7884 36.8721C34.8797 37.2158 35.2423 37.4092 35.579 37.2949C35.6491 37.2711 35.7205 37.2495 35.7931 37.2301C37.562 36.7602 39.377 37.8131 39.847 39.5821C39.8476 39.5842 39.848 39.5863 39.8486 39.5883C39.9362 39.9207 40.2702 40.124 40.6024 40.0357L47.5505 38.1897C47.8828 38.1014 48.0718 37.7593 47.9829 37.4271C47.9824 37.4249 47.9818 37.4228 47.9813 37.4208Z" fill="url(#paint22_linear_9_1792)"/>
<circle cx="39.692" cy="22.6104" r="7.54933" fill="url(#paint23_linear_9_1792)"/>
<path d="M44.8583 24.3051C45.0024 24.1479 45.0899 23.8947 45.1199 23.5444C45.152 23.1669 45.1385 22.7772 45.0813 22.3758C45.0889 22.3514 45.095 22.3272 45.0991 22.3029L45.5637 21.5624C45.606 21.4543 45.6137 21.3479 45.5858 21.2432C45.5554 21.1291 45.496 21.0403 45.4082 20.9772C45.32 20.914 45.2332 20.8938 45.1476 20.9165L44.7337 21.0265C44.4433 20.2786 44.0151 19.7021 43.4493 19.2975C42.8833 18.8925 42.187 18.8001 41.3605 19.0197C41.0662 19.0979 40.8068 19.2025 40.5822 19.3334C40.3577 19.4642 40.1755 19.6298 40.0356 19.8301C39.8956 20.0301 39.7798 20.2163 39.6883 20.3883C39.6876 20.3895 39.687 20.3909 39.6864 20.3922C39.6864 20.3922 38.3685 22.6636 38.3679 22.6649C38.3545 22.6863 38.3422 22.7071 38.3294 22.7281L35.9421 23.3623C35.8586 22.9331 35.869 22.5328 35.9737 22.1613C36.0781 21.7898 36.1891 21.4902 36.3066 21.2623C36.4239 21.0344 36.4678 20.864 36.4377 20.7511C36.3925 20.5808 36.2619 20.4535 36.0464 20.369C35.8308 20.2844 35.6329 20.2664 35.4525 20.3143C35.1641 20.3909 34.923 20.6289 34.7293 21.0284L30.1547 28.9133L33.9333 43.1356L44.8583 24.3051Z" fill="url(#paint24_linear_9_1792)"/>
<path fill-rule="evenodd" clip-rule="evenodd" d="M35.4524 20.3143C35.6328 20.2664 35.8308 20.2845 36.0464 20.3689C36.262 20.4535 36.3925 20.5807 36.4377 20.7511C36.4677 20.864 36.4239 21.0344 36.3066 21.2622C36.1891 21.4902 36.0782 21.7898 35.9737 22.1612C35.869 22.5328 35.8586 22.9331 35.9421 23.3623L39.2891 22.4731C39.3177 22.1599 39.3426 21.9189 39.3641 21.7503C39.3852 21.5816 39.4217 21.3554 39.4735 21.0719C39.5251 20.7881 39.5968 20.5601 39.6884 20.3883C39.78 20.2161 39.8957 20.0301 40.0357 19.8301C40.1756 19.6298 40.3577 19.4641 40.5822 19.3334C40.8067 19.2024 41.0661 19.0979 41.3605 19.0197C42.187 18.8001 42.8833 18.8926 43.4494 19.2974C44.0153 19.7022 44.4435 20.2787 44.7338 21.0265L45.1478 20.9165C45.2334 20.8938 45.3202 20.914 45.4083 20.9772C45.4963 21.0403 45.5557 21.1291 45.586 21.2432C45.6138 21.3477 45.6062 21.4541 45.5638 21.5624C45.5211 21.6704 45.4571 21.7359 45.3715 21.7587L44.9861 21.861C45.1211 22.4464 45.1658 23.0074 45.1201 23.5443C45.074 24.081 44.8943 24.3911 44.5804 24.4745C44.4091 24.52 44.2154 24.5097 43.9993 24.4439C43.7831 24.3781 43.6496 24.2491 43.5985 24.0573C43.5785 23.9816 43.6038 23.7515 43.6751 23.3679C43.7462 22.9839 43.7455 22.5978 43.673 22.2098L40.7807 22.9783C40.7388 23.3946 40.687 23.7452 40.6254 24.03C40.5636 24.3147 40.4562 24.6271 40.3025 24.9669C40.1488 25.3066 39.9174 25.5935 39.6086 25.8274C39.2998 26.0612 38.9127 26.2402 38.4474 26.3639C37.5974 26.5898 36.86 26.5374 36.2355 26.207C35.611 25.8763 35.136 25.3291 34.8102 24.5648L34.3334 24.6915C34.2493 24.7139 34.1625 24.6883 34.073 24.6155C33.9837 24.5424 33.925 24.4535 33.8972 24.349C33.8668 24.2348 33.8736 24.1285 33.9174 24.0304C33.9614 23.9321 34.0254 23.8718 34.1095 23.8496L34.5437 23.7342C34.3334 22.9039 34.3363 22.1518 34.5526 21.4781C34.7687 20.8039 35.0687 20.4163 35.4524 20.3143ZM41.8781 20.3948C41.5076 20.4932 41.2558 20.6836 41.1226 20.9661C40.9892 21.2483 40.8982 21.643 40.8501 22.15L43.4446 21.4606C43.0853 20.5679 42.563 20.2128 41.8781 20.3948ZM37.9153 24.9924C37.1272 25.2018 36.5459 24.9078 36.1716 24.1111L39.1767 23.3127C39.1117 23.7577 38.9897 24.121 38.8106 24.4031C38.6314 24.6849 38.3329 24.8815 37.9153 24.9924Z" fill="url(#paint25_linear_9_1792)"/>
<path d="M42.5291 6.8309C41.6924 7.05319 40.8339 6.55514 40.6117 5.71845C40.3894 4.88177 40.8874 4.02327 41.7241 3.80099C42.5608 3.57871 43.4193 4.07675 43.6416 4.91344C43.864 5.75012 43.3658 6.60862 42.5291 6.8309Z" fill="url(#paint26_linear_9_1792)"/>
<path d="M50.7919 37.9309C49.9553 38.1532 49.0968 37.6551 48.8745 36.8184C48.6522 35.9817 49.1502 35.1232 49.9869 34.901C50.8236 34.6787 51.6821 35.1767 51.9044 36.0134C52.1268 36.8501 51.6286 37.7086 50.7919 37.9309Z" fill="url(#paint27_linear_9_1792)"/>
<circle cx="28.9947" cy="8.80488" r="1.56745" fill="url(#paint28_linear_9_1792)"/>
<circle cx="37.2575" cy="39.9049" r="1.56757" fill="url(#paint29_linear_9_1792)"/>
<path d="M52.6723 56.7944H8.46942C6.75788 56.7944 5.37036 55.4069 5.37036 53.6954V22.5128C5.37036 20.8012 6.75788 19.4137 8.46942 19.4137H52.6722C54.3837 19.4137 55.7713 20.8012 55.7713 22.5128V53.6954C55.7714 55.4069 54.3839 56.7944 52.6723 56.7944Z" fill="url(#paint30_linear_9_1792)"/>
<path d="M10.8764 21.8206C9.16486 21.8206 7.77734 23.2081 7.77734 24.9196V56.1022C7.77734 56.3176 7.79939 56.5277 7.84115 56.7306C8.04406 56.7723 8.25416 56.7944 8.46948 56.7944H52.6723C54.3838 56.7944 55.7713 55.4068 55.7713 53.6953V22.5127C55.7713 22.2974 55.7493 22.0873 55.7075 21.8844C55.5046 21.8426 55.2944 21.8206 55.0792 21.8206L10.8764 21.8206Z" fill="url(#paint31_linear_9_1792)"/>
<path d="M52.6723 19.4137H52.6636V50.5876C52.6636 52.2992 51.2761 53.6867 49.5646 53.6867H5.37036V53.6954C5.37036 55.4069 6.75788 56.7944 8.46942 56.7944H52.6722C54.3837 56.7944 55.7713 55.4069 55.7713 53.6954V22.5128C55.7714 20.8012 54.3839 19.4137 52.6723 19.4137Z" fill="url(#paint32_linear_9_1792)"/>
<path d="M55.7714 53.5782V42.9156H45.1088L55.7714 53.5782Z" fill="url(#paint33_linear_9_1792)"/>
<path d="M54.974 43.0247H45.6871C44.8006 43.0247 44.0819 42.306 44.0819 41.4196V34.7884C44.0819 33.9019 44.8006 33.1832 45.6871 33.1832H54.9742C55.8606 33.1832 56.5793 33.9019 56.5793 34.7884V41.4196C56.5792 42.306 55.8606 43.0247 54.974 43.0247Z" fill="url(#paint34_linear_9_1792)"/>
<path d="M46.6616 34.2795C45.7751 34.2795 45.0564 34.9981 45.0564 35.8846V42.5158C45.0564 42.6541 45.0758 42.7877 45.1086 42.9157C45.2882 42.9852 45.4827 43.0249 45.6869 43.0249H54.974C55.8605 43.0249 56.5792 42.3062 56.5792 41.4197V34.7884C56.5792 34.6501 56.5598 34.5166 56.5269 34.3885C56.3473 34.319 56.1527 34.2794 55.9485 34.2794H46.6616V34.2795Z" fill="url(#paint35_linear_9_1792)"/>
<path d="M56.5792 41.4196V41.3957L50.9776 35.7942C50.3589 35.1302 49.4772 34.7145 48.4981 34.7145C46.6262 34.7145 45.1086 36.2321 45.1086 38.104C45.1086 39.0831 45.5243 39.9647 46.1883 40.5835L48.6295 43.0247H54.9741C55.8606 43.0248 56.5792 42.3061 56.5792 41.4196Z" fill="url(#paint36_linear_9_1792)"/>
<circle cx="48.4982" cy="38.1041" r="3.38944" fill="url(#paint37_radial_9_1792)"/>
<circle cx="48.4982" cy="38.1041" r="3.02551" fill="url(#paint38_linear_9_1792)"/>
<path d="M50.0144 35.0721C50.2429 35.5284 50.3718 36.0432 50.3718 36.5883C50.3718 38.4602 48.8542 39.9777 46.9824 39.9777C46.4373 39.9777 45.9225 39.8488 45.4662 39.6203C46.0227 40.731 47.1713 41.4935 48.4982 41.4935C50.3702 41.4935 51.8876 39.976 51.8876 38.1041C51.8876 36.7771 51.1251 35.6286 50.0144 35.0721Z" fill="url(#paint39_linear_9_1792)"/>
<path d="M50.79 36.6534C50.79 37.5232 49.7638 38.2283 48.4981 38.2283C47.2323 38.2283 46.2063 37.5232 46.2063 36.6534C46.2063 35.7837 47.2323 35.0786 48.4981 35.0786C49.7638 35.0784 50.79 35.7836 50.79 36.6534Z" fill="url(#paint40_linear_9_1792)"/>
<path d="M8.46942 56.7944H38.6078L23.0923 41.2789C22.9742 41.0418 22.7301 40.8785 22.4472 40.8785H19.8026H14.707H9.3546H5.37036V53.6953C5.37036 55.4069 6.75788 56.7944 8.46942 56.7944Z" fill="url(#paint41_linear_9_1792)"/>
<path d="M22.4472 59.9888H1.61445C1.2163 59.9888 0.893433 59.6659 0.893433 59.2678V55.9323C0.893433 55.5341 1.2163 55.2112 1.61445 55.2112H22.4472C22.8453 55.2112 23.1682 55.5341 23.1682 55.9323V59.2678C23.1682 59.666 22.8455 59.9888 22.4472 59.9888Z" fill="url(#paint42_linear_9_1792)"/>
<path d="M19.8026 59.9888H4.25894C3.9131 59.9888 3.63281 59.7085 3.63281 59.3627V55.8373C3.63281 55.4916 3.9131 55.2112 4.25894 55.2112H19.8026C20.1485 55.2112 20.4287 55.4915 20.4287 55.8373V59.3627C20.4287 59.7085 20.1485 59.9888 19.8026 59.9888Z" fill="url(#paint43_linear_9_1792)"/>
<path d="M14.7072 59.9888H9.35468C9.1462 59.9888 8.97717 59.8198 8.97717 59.6113V55.5887C8.97717 55.3803 9.1462 55.2112 9.35468 55.2112H14.7072C14.9157 55.2112 15.0847 55.3803 15.0847 55.5887V59.6113C15.0847 59.8198 14.9157 59.9888 14.7072 59.9888Z" fill="url(#paint44_linear_9_1792)"/>
<path d="M2.24324 55.7925C1.84508 55.7925 1.52222 56.1153 1.52222 56.5135V59.8491C1.52222 59.8954 1.52697 59.9405 1.53533 59.9843C1.56131 59.9872 1.58776 59.9888 1.61456 59.9888H22.4473C22.8454 59.9888 23.1683 59.6659 23.1683 59.2678V55.9323C23.1683 55.886 23.1636 55.8409 23.1552 55.797C23.1292 55.7941 23.1028 55.7925 23.0761 55.7925L2.24324 55.7925Z" fill="url(#paint45_linear_9_1792)"/>
<path d="M22.4472 55.2113H1.61445C1.2163 55.2113 0.893433 54.8884 0.893433 54.4902V51.1547C0.893433 50.7566 1.2163 50.4337 1.61445 50.4337H22.4472C22.8453 50.4337 23.1682 50.7566 23.1682 51.1547V54.4902C23.1682 54.8884 22.8455 55.2113 22.4472 55.2113Z" fill="url(#paint46_linear_9_1792)"/>
<path d="M19.8026 55.2113H4.25894C3.9131 55.2113 3.63281 54.931 3.63281 54.5851V51.0597C3.63281 50.714 3.9131 50.4336 4.25894 50.4336H19.8026C20.1485 50.4336 20.4287 50.7139 20.4287 51.0597V54.5851C20.4287 54.931 20.1485 55.2113 19.8026 55.2113Z" fill="url(#paint47_linear_9_1792)"/>
<path d="M14.7072 55.2113H9.35468C9.1462 55.2113 8.97717 55.0422 8.97717 54.8337V50.8112C8.97717 50.6027 9.1462 50.4337 9.35468 50.4337H14.7072C14.9157 50.4337 15.0847 50.6027 15.0847 50.8112V54.8337C15.0847 55.0422 14.9157 55.2113 14.7072 55.2113Z" fill="url(#paint48_linear_9_1792)"/>
<path d="M2.24324 51.015C1.84508 51.015 1.52222 51.3378 1.52222 51.736V55.0715C1.52222 55.1178 1.52697 55.1629 1.53533 55.2066C1.56131 55.2095 1.58776 55.2112 1.61456 55.2112H22.4473C22.8454 55.2112 23.1683 54.8883 23.1683 54.4901V51.1546C23.1683 51.1083 23.1636 51.0632 23.1552 51.0195C23.1292 51.0166 23.1028 51.015 23.0761 51.015H2.24324Z" fill="url(#paint49_linear_9_1792)"/>
<path d="M22.4472 50.4336H1.61445C1.2163 50.4336 0.893433 50.1107 0.893433 49.7126V46.3771C0.893433 45.9789 1.2163 45.6561 1.61445 45.6561H22.4472C22.8453 45.6561 23.1682 45.9789 23.1682 46.3771V49.7126C23.1682 50.1109 22.8455 50.4336 22.4472 50.4336Z" fill="url(#paint50_linear_9_1792)"/>
<path d="M19.8026 50.4336H4.25894C3.9131 50.4336 3.63281 50.1533 3.63281 49.8075V46.2821C3.63281 45.9363 3.9131 45.6559 4.25894 45.6559H19.8026C20.1485 45.6559 20.4287 45.9362 20.4287 46.2821V49.8075C20.4287 50.1533 20.1485 50.4336 19.8026 50.4336Z" fill="url(#paint51_linear_9_1792)"/>
<path d="M14.7072 50.4336H9.35468C9.1462 50.4336 8.97717 50.2646 8.97717 50.0561V46.0336C8.97717 45.8251 9.1462 45.6561 9.35468 45.6561H14.7072C14.9157 45.6561 15.0847 45.8251 15.0847 46.0336V50.0561C15.0847 50.2646 14.9157 50.4336 14.7072 50.4336Z" fill="url(#paint52_linear_9_1792)"/>
<path d="M2.24324 46.2373C1.84508 46.2373 1.52222 46.5602 1.52222 46.9583V50.2938C1.52222 50.3401 1.52697 50.3852 1.53533 50.429C1.56131 50.4319 1.58776 50.4335 1.61456 50.4335H22.4473C22.8454 50.4335 23.1683 50.1106 23.1683 49.7125V46.377C23.1683 46.3307 23.1636 46.2856 23.1552 46.2418C23.1292 46.2389 23.1028 46.2373 23.0761 46.2373H2.24324Z" fill="url(#paint53_linear_9_1792)"/>
<path d="M22.4472 45.6561H1.61445C1.2163 45.6561 0.893433 45.3332 0.893433 44.9351V41.5996C0.893433 41.2014 1.2163 40.8785 1.61445 40.8785H22.4472C22.8453 40.8785 23.1682 41.2014 23.1682 41.5996V44.9351C23.1682 45.3333 22.8455 45.6561 22.4472 45.6561Z" fill="url(#paint54_linear_9_1792)"/>
<path d="M19.8026 45.6561H4.25894C3.9131 45.6561 3.63281 45.3758 3.63281 45.03V41.5045C3.63281 41.1588 3.9131 40.8784 4.25894 40.8784H19.8026C20.1485 40.8784 20.4287 41.1587 20.4287 41.5045V45.03C20.4287 45.3758 20.1485 45.6561 19.8026 45.6561Z" fill="url(#paint55_linear_9_1792)"/>
<path d="M14.7072 45.6561H9.35468C9.1462 45.6561 8.97717 45.487 8.97717 45.2786V41.256C8.97717 41.0476 9.1462 40.8785 9.35468 40.8785H14.7072C14.9157 40.8785 15.0847 41.0476 15.0847 41.256V45.2786C15.0847 45.487 14.9157 45.6561 14.7072 45.6561Z" fill="url(#paint56_linear_9_1792)"/>
<path d="M2.24324 41.4598C1.84508 41.4598 1.52222 41.7826 1.52222 42.1808V45.5163C1.52222 45.5626 1.52697 45.6077 1.53533 45.6515C1.56131 45.6544 1.58776 45.656 1.61456 45.656H22.4473C22.8454 45.656 23.1683 45.3331 23.1683 44.935V41.5996C23.1683 41.5533 23.1636 41.5082 23.1552 41.4644C23.1292 41.4615 23.1028 41.4599 23.0761 41.4599H2.24324V41.4598Z" fill="url(#paint57_linear_9_1792)"/>
<defs>
<linearGradient id="paint0_linear_9_1792" x1="13.3421" y1="16.2273" x2="7.29525" y2="45.7169" gradientUnits="userSpaceOnUse">
<stop stop-color="#4AB272"/>
<stop offset="1" stop-color="#077565"/>
</linearGradient>
<linearGradient id="paint1_linear_9_1792" x1="54.8972" y1="33.1159" x2="62.5472" y2="-16.7988" gradientUnits="userSpaceOnUse">
<stop stop-color="#92F37F" stop-opacity="0.01"/>
<stop offset="1" stop-color="#FFEE83"/>
</linearGradient>
<linearGradient id="paint2_linear_9_1792" x1="18.7796" y1="18.2452" x2="14.1102" y2="37.3473" gradientUnits="userSpaceOnUse">
<stop stop-color="#91F27F"/>
<stop offset="1" stop-color="#00B302"/>
</linearGradient>
<linearGradient id="paint3_linear_9_1792" x1="43.2383" y1="26.5068" x2="33.3632" y2="1.28054" gradientUnits="userSpaceOnUse">
<stop stop-color="#92F37F"/>
<stop offset="1" stop-color="#4AB272"/>
</linearGradient>
<linearGradient id="paint4_linear_9_1792" x1="34.3377" y1="23.2491" x2="21.2014" y2="16.4348" gradientUnits="userSpaceOnUse">
<stop stop-color="#4AB272" stop-opacity="0.01"/>
<stop offset="1" stop-color="#009245"/>
</linearGradient>
<linearGradient id="paint5_linear_9_1792" x1="24.4497" y1="25.3891" x2="27.1096" y2="32.3548" gradientUnits="userSpaceOnUse">
<stop stop-color="#4AB272"/>
<stop offset="1" stop-color="#077565"/>
</linearGradient>
<linearGradient id="paint6_linear_9_1792" x1="16.7343" y1="9.67416" x2="17.2789" y2="13.986" gradientUnits="userSpaceOnUse">
<stop stop-color="#91F27F"/>
<stop offset="1" stop-color="#00B302"/>
</linearGradient>
<linearGradient id="paint7_linear_9_1792" x1="42.8942" y1="28.4014" x2="43.4388" y2="32.7133" gradientUnits="userSpaceOnUse">
<stop stop-color="#91F27F"/>
<stop offset="1" stop-color="#00B302"/>
</linearGradient>
<linearGradient id="paint8_linear_9_1792" x1="8.82685" y1="20.7202" x2="9.37148" y2="25.0319" gradientUnits="userSpaceOnUse">
<stop stop-color="#91F27F"/>
<stop offset="1" stop-color="#00B302"/>
</linearGradient>
<linearGradient id="paint9_linear_9_1792" x1="34.9867" y1="39.4474" x2="35.5314" y2="43.7591" gradientUnits="userSpaceOnUse">
<stop stop-color="#91F27F"/>
<stop offset="1" stop-color="#00B302"/>
</linearGradient>
<linearGradient id="paint10_linear_9_1792" x1="25.6002" y1="8.78412" x2="6.42793" y2="31.8466" gradientUnits="userSpaceOnUse">
<stop stop-color="#4AB272"/>
<stop offset="1" stop-color="#077565"/>
</linearGradient>
<linearGradient id="paint11_linear_9_1792" x1="51.1667" y1="40.5703" x2="80.9833" y2="0.0682114" gradientUnits="userSpaceOnUse">
<stop stop-color="#92F37F" stop-opacity="0.01"/>
<stop offset="1" stop-color="#FFEE83"/>
</linearGradient>
<linearGradient id="paint12_linear_9_1792" x1="29.4708" y1="12.5273" x2="15.7071" y2="26.4004" gradientUnits="userSpaceOnUse">
<stop stop-color="#91F27F"/>
<stop offset="1" stop-color="#00B302"/>
</linearGradient>
<linearGradient id="paint13_linear_9_1792" x1="47.4466" y1="29.3474" x2="46.673" y2="2.24739" gradientUnits="userSpaceOnUse">
<stop stop-color="#92F37F"/>
<stop offset="1" stop-color="#4AB272"/>
</linearGradient>
<linearGradient id="paint14_linear_9_1792" x1="37.6509" y1="26.0077" x2="27.8878" y2="14.2207" gradientUnits="userSpaceOnUse">
<stop stop-color="#4AB272" stop-opacity="0.01"/>
<stop offset="1" stop-color="#009245"/>
</linearGradient>
<linearGradient id="paint15_linear_9_1792" x1="29.404" y1="21.9066" x2="29.469" y2="29.3686" gradientUnits="userSpaceOnUse">
<stop stop-color="#4AB272"/>
<stop offset="1" stop-color="#077565"/>
</linearGradient>
<linearGradient id="paint16_linear_9_1792" x1="28.1722" y1="4.53179" x2="27.2275" y2="8.77748" gradientUnits="userSpaceOnUse">
<stop stop-color="#91F27F"/>
<stop offset="1" stop-color="#00B302"/>
</linearGradient>
<linearGradient id="paint17_linear_9_1792" x1="46.4817" y1="31.0159" x2="45.5371" y2="35.2616" gradientUnits="userSpaceOnUse">
<stop stop-color="#91F27F"/>
<stop offset="1" stop-color="#00B302"/>
</linearGradient>
<linearGradient id="paint18_linear_9_1792" x1="16.9896" y1="12.263" x2="16.0449" y2="16.5086" gradientUnits="userSpaceOnUse">
<stop stop-color="#91F27F"/>
<stop offset="1" stop-color="#00B302"/>
</linearGradient>
<linearGradient id="paint19_linear_9_1792" x1="35.2989" y1="38.7469" x2="34.3543" y2="42.9926" gradientUnits="userSpaceOnUse">
<stop stop-color="#91F27F"/>
<stop offset="1" stop-color="#00B302"/>
</linearGradient>
<linearGradient id="paint20_linear_9_1792" x1="37.8962" y1="2.12595" x2="10.7313" y2="12.1652" gradientUnits="userSpaceOnUse">
<stop stop-color="#4AB272"/>
<stop offset="1" stop-color="#077565"/>
</linearGradient>
<linearGradient id="paint21_linear_9_1792" x1="47.9331" y1="53.0208" x2="92.5643" y2="34.9437" gradientUnits="userSpaceOnUse">
<stop stop-color="#92F37F" stop-opacity="0.01"/>
<stop offset="1" stop-color="#FFEE83"/>
</linearGradient>
<linearGradient id="paint22_linear_9_1792" x1="39.8407" y1="7.55468" x2="21.7322" y2="12.5625" gradientUnits="userSpaceOnUse">
<stop stop-color="#91F27F"/>
<stop offset="1" stop-color="#00B302"/>
</linearGradient>
<linearGradient id="paint23_linear_9_1792" x1="50.4165" y1="33.4153" x2="58.8572" y2="7.6524" gradientUnits="userSpaceOnUse">
<stop stop-color="#92F37F"/>
<stop offset="1" stop-color="#4AB272"/>
</linearGradient>
<linearGradient id="paint24_linear_9_1792" x1="42.8045" y1="30.9165" x2="49.0014" y2="15.0067" gradientUnits="userSpaceOnUse">
<stop stop-color="#4AB272" stop-opacity="0.01"/>
<stop offset="1" stop-color="#009245"/>
</linearGradient>
<linearGradient id="paint25_linear_9_1792" x1="34.6864" y1="20.9779" x2="33.633" y2="28.2315" gradientUnits="userSpaceOnUse">
<stop stop-color="#4AB272"/>
<stop offset="1" stop-color="#077565"/>
</linearGradient>
<linearGradient id="paint26_linear_9_1792" x1="40.675" y1="3.54277" x2="38.3498" y2="7.2184" gradientUnits="userSpaceOnUse">
<stop stop-color="#91F27F"/>
<stop offset="1" stop-color="#00B302"/>
</linearGradient>
<linearGradient id="paint27_linear_9_1792" x1="48.9443" y1="34.6589" x2="46.6191" y2="38.3345" gradientUnits="userSpaceOnUse">
<stop stop-color="#91F27F"/>
<stop offset="1" stop-color="#00B302"/>
</linearGradient>
<linearGradient id="paint28_linear_9_1792" x1="27.5365" y1="7.03447" x2="25.2111" y2="10.71" gradientUnits="userSpaceOnUse">
<stop stop-color="#91F27F"/>
<stop offset="1" stop-color="#00B302"/>
</linearGradient>
<linearGradient id="paint29_linear_9_1792" x1="35.8056" y1="38.1506" x2="33.4804" y2="41.8261" gradientUnits="userSpaceOnUse">
<stop stop-color="#91F27F"/>
<stop offset="1" stop-color="#00B302"/>
</linearGradient>
<linearGradient id="paint30_linear_9_1792" x1="-14.339" y1="26.5921" x2="2.7128" y2="76.9099" gradientUnits="userSpaceOnUse">
<stop stop-color="#FCB37E"/>
<stop offset="1" stop-color="#8C6239"/>
</linearGradient>
<linearGradient id="paint31_linear_9_1792" x1="53.8883" y1="30.65" x2="33.4834" y2="-3.57981" gradientUnits="userSpaceOnUse">
<stop stop-color="#C59B6D" stop-opacity="0.01"/>
<stop offset="0.1809" stop-color="#C69D71" stop-opacity="0.181"/>
<stop offset="0.3458" stop-color="#CBA57C" stop-opacity="0.346"/>
<stop offset="0.5044" stop-color="#D2B28E" stop-opacity="0.504"/>
<stop offset="0.6593" stop-color="#DDC4A8" stop-opacity="0.659"/>
<stop offset="0.8113" stop-color="#EADBCA" stop-opacity="0.811"/>
<stop offset="0.9593" stop-color="#FAF6F2" stop-opacity="0.959"/>
<stop offset="1" stop-color="white"/>
</linearGradient>
<linearGradient id="paint32_linear_9_1792" x1="0.274702" y1="45.763" x2="24.0499" y2="88.985" gradientUnits="userSpaceOnUse">
<stop stop-color="#8C6239" stop-opacity="0.01"/>
<stop offset="1" stop-color="#8C6239"/>
</linearGradient>
<linearGradient id="paint33_linear_9_1792" x1="60.2027" y1="48.1717" x2="54.3717" y2="38.5204" gradientUnits="userSpaceOnUse">
<stop stop-color="#8C6239" stop-opacity="0.01"/>
<stop offset="1" stop-color="#8C6239"/>
</linearGradient>
<linearGradient id="paint34_linear_9_1792" x1="39.1344" y1="35.8144" x2="44.6624" y2="48.5085" gradientUnits="userSpaceOnUse">
<stop stop-color="#FCB37E"/>
<stop offset="1" stop-color="#8C6239"/>
</linearGradient>
<linearGradient id="paint35_linear_9_1792" x1="56.2015" y1="36.7851" x2="51.7778" y2="28.3526" gradientUnits="userSpaceOnUse">
<stop stop-color="#C59B6D" stop-opacity="0.01"/>
<stop offset="0.1809" stop-color="#C69D71" stop-opacity="0.181"/>
<stop offset="0.3458" stop-color="#CBA57C" stop-opacity="0.346"/>
<stop offset="0.5044" stop-color="#D2B28E" stop-opacity="0.504"/>
<stop offset="0.6593" stop-color="#DDC4A8" stop-opacity="0.659"/>
<stop offset="0.8113" stop-color="#EADBCA" stop-opacity="0.811"/>
<stop offset="0.9593" stop-color="#FAF6F2" stop-opacity="0.959"/>
<stop offset="1" stop-color="white"/>
</linearGradient>
<linearGradient id="paint36_linear_9_1792" x1="59.4942" y1="42.2493" x2="55.4095" y2="34.4668" gradientUnits="userSpaceOnUse">
<stop stop-color="#8C6239" stop-opacity="0.01"/>
<stop offset="1" stop-color="#8C6239"/>
</linearGradient>
<radialGradient id="paint37_radial_9_1792" cx="0" cy="0" r="1" gradientUnits="userSpaceOnUse" gradientTransform="translate(47.522 36.8024) scale(4.22323)">
<stop stop-color="#FFD945"/>
<stop offset="0.4169" stop-color="#FFD744"/>
<stop offset="0.6278" stop-color="#FFCF3F"/>
<stop offset="0.7926" stop-color="#FFC237"/>
<stop offset="0.9326" stop-color="#FFAF2C"/>
<stop offset="1" stop-color="#FFA325"/>
</radialGradient>
<linearGradient id="paint38_linear_9_1792" x1="51.1143" y1="36.6655" x2="47.0596" y2="32.6108" gradientUnits="userSpaceOnUse">
<stop stop-color="#FFD945" stop-opacity="0.01"/>
<stop offset="1" stop-color="#FBED21"/>
</linearGradient>
<linearGradient id="paint39_linear_9_1792" x1="52.6102" y1="41.3884" x2="58.9242" y2="36.044" gradientUnits="userSpaceOnUse">
<stop stop-color="#E87264" stop-opacity="0.01"/>
<stop offset="1" stop-color="#FF7044"/>
</linearGradient>
<linearGradient id="paint40_linear_9_1792" x1="50.8238" y1="37.0617" x2="50.8238" y2="33.8654" gradientUnits="userSpaceOnUse">
<stop stop-color="white" stop-opacity="0.01"/>
<stop offset="1" stop-color="white"/>
</linearGradient>
<linearGradient id="paint41_linear_9_1792" x1="41.6013" y1="52.6479" x2="34.6345" y2="39.5095" gradientUnits="userSpaceOnUse">
<stop stop-color="#8C6239" stop-opacity="0.01"/>
<stop offset="1" stop-color="#8C6239"/>
</linearGradient>
<linearGradient id="paint42_linear_9_1792" x1="-2.40957" y1="55.3096" x2="-2.40957" y2="61.504" gradientUnits="userSpaceOnUse">
<stop stop-color="#FFD945"/>
<stop offset="0.3043" stop-color="#FFCD3E"/>
<stop offset="0.8558" stop-color="#FFAD2B"/>
<stop offset="1" stop-color="#FFA325"/>
</linearGradient>
<linearGradient id="paint43_linear_9_1792" x1="-6.28039" y1="55.3996" x2="-6.28039" y2="65.817" gradientUnits="userSpaceOnUse">
<stop stop-color="#E87264" stop-opacity="0.01"/>
<stop offset="1" stop-color="#FF7044"/>
</linearGradient>
<linearGradient id="paint44_linear_9_1792" x1="5.37228" y1="55.3995" x2="5.37228" y2="65.8169" gradientUnits="userSpaceOnUse">
<stop stop-color="#E87264" stop-opacity="0.01"/>
<stop offset="1" stop-color="#FF7044"/>
</linearGradient>
<linearGradient id="paint45_linear_9_1792" x1="27.4105" y1="56.829" x2="27.3171" y2="50.8191" gradientUnits="userSpaceOnUse">
<stop stop-color="#FFD945" stop-opacity="0.01"/>
<stop offset="1" stop-color="#FBED21"/>
</linearGradient>
<linearGradient id="paint46_linear_9_1792" x1="-2.4093" y1="50.5321" x2="-2.4093" y2="56.7264" gradientUnits="userSpaceOnUse">
<stop stop-color="#FFD945"/>
<stop offset="0.3043" stop-color="#FFCD3E"/>
<stop offset="0.8558" stop-color="#FFAD2B"/>
<stop offset="1" stop-color="#FFA325"/>
</linearGradient>
<linearGradient id="paint47_linear_9_1792" x1="-6.28059" y1="50.6219" x2="-6.28059" y2="61.0394" gradientUnits="userSpaceOnUse">
<stop stop-color="#E87264" stop-opacity="0.01"/>
<stop offset="1" stop-color="#FF7044"/>
</linearGradient>
<linearGradient id="paint48_linear_9_1792" x1="5.37221" y1="50.6219" x2="5.37221" y2="61.0394" gradientUnits="userSpaceOnUse">
<stop stop-color="#E87264" stop-opacity="0.01"/>
<stop offset="1" stop-color="#FF7044"/>
</linearGradient>
<linearGradient id="paint49_linear_9_1792" x1="27.4106" y1="52.0513" x2="27.3172" y2="46.0416" gradientUnits="userSpaceOnUse">
<stop stop-color="#FFD945" stop-opacity="0.01"/>
<stop offset="1" stop-color="#FBED21"/>
</linearGradient>
<linearGradient id="paint50_linear_9_1792" x1="-2.4093" y1="45.7546" x2="-2.4093" y2="51.9489" gradientUnits="userSpaceOnUse">
<stop stop-color="#FFD945"/>
<stop offset="0.3043" stop-color="#FFCD3E"/>
<stop offset="0.8558" stop-color="#FFAD2B"/>
<stop offset="1" stop-color="#FFA325"/>
</linearGradient>
<linearGradient id="paint51_linear_9_1792" x1="-6.28039" y1="45.8444" x2="-6.28039" y2="56.2618" gradientUnits="userSpaceOnUse">
<stop stop-color="#E87264" stop-opacity="0.01"/>
<stop offset="1" stop-color="#FF7044"/>
</linearGradient>
<linearGradient id="paint52_linear_9_1792" x1="5.37228" y1="45.8444" x2="5.37228" y2="56.2618" gradientUnits="userSpaceOnUse">
<stop stop-color="#E87264" stop-opacity="0.01"/>
<stop offset="1" stop-color="#FF7044"/>
</linearGradient>
<linearGradient id="paint53_linear_9_1792" x1="27.4106" y1="47.2738" x2="27.3172" y2="41.2641" gradientUnits="userSpaceOnUse">
<stop stop-color="#FFD945" stop-opacity="0.01"/>
<stop offset="1" stop-color="#FBED21"/>
</linearGradient>
<linearGradient id="paint54_linear_9_1792" x1="-2.40957" y1="40.9769" x2="-2.40957" y2="47.1713" gradientUnits="userSpaceOnUse">
<stop stop-color="#FFD945"/>
<stop offset="0.3043" stop-color="#FFCD3E"/>
<stop offset="0.8558" stop-color="#FFAD2B"/>
<stop offset="1" stop-color="#FFA325"/>
</linearGradient>
<linearGradient id="paint55_linear_9_1792" x1="-6.28039" y1="41.0668" x2="-6.28039" y2="51.4842" gradientUnits="userSpaceOnUse">
<stop stop-color="#E87264" stop-opacity="0.01"/>
<stop offset="1" stop-color="#FF7044"/>
</linearGradient>
<linearGradient id="paint56_linear_9_1792" x1="5.37228" y1="41.0668" x2="5.37228" y2="51.4842" gradientUnits="userSpaceOnUse">
<stop stop-color="#E87264" stop-opacity="0.01"/>
<stop offset="1" stop-color="#FF7044"/>
</linearGradient>
<linearGradient id="paint57_linear_9_1792" x1="27.4109" y1="42.4963" x2="27.3175" y2="36.4864" gradientUnits="userSpaceOnUse">
<stop stop-color="#FFD945" stop-opacity="0.01"/>
<stop offset="1" stop-color="#FBED21"/>
</linearGradient>
</defs>
</svg>
