<svg width="60" height="60" viewBox="0 0 60 60" fill="none" xmlns="http://www.w3.org/2000/svg">
<path d="M19.2374 58.7412H6.91285C6.26793 58.7412 5.74518 58.2185 5.74518 57.5735C5.74518 56.9286 6.26805 56.4059 6.91285 56.4059H19.2374C20.1939 56.4059 20.9722 55.6277 20.9722 54.671V49.0794C20.9722 48.4345 21.4951 47.9117 22.1399 47.9117C22.7848 47.9117 23.3076 48.4345 23.3076 49.0794V54.671C23.3076 56.9153 21.4817 58.7412 19.2374 58.7412Z" fill="url(#paint0_linear_9_1945)"/>
<circle cx="6.15426" cy="57.5366" r="2.45217" fill="url(#paint1_linear_9_1945)"/>
<path d="M41.5221 58.7412H53.8466C54.4916 58.7412 55.0143 58.2185 55.0143 57.5735C55.0143 56.9286 54.4914 56.4059 53.8466 56.4059H41.5221C40.5656 56.4059 39.7872 55.6277 39.7872 54.671V49.0794C39.7872 48.4345 39.2644 47.9117 38.6196 47.9117C37.9748 47.9117 37.4519 48.4345 37.4519 49.0794V54.671C37.4519 56.9153 39.2778 58.7412 41.5221 58.7412Z" fill="url(#paint2_linear_9_1945)"/>
<circle cx="54.6052" cy="57.5366" r="2.45217" fill="url(#paint3_linear_9_1945)"/>
<path d="M30.3798 59.9888C29.7349 59.9888 29.2121 59.4661 29.2121 58.8211V49.0794C29.2121 48.4345 29.7349 47.9117 30.3798 47.9117C31.0247 47.9117 31.5474 48.4345 31.5474 49.0794V58.8211C31.5474 59.4661 31.0247 59.9888 30.3798 59.9888Z" fill="url(#paint4_linear_9_1945)"/>
<path d="M19.2374 2.0697H6.91285C6.26793 2.0697 5.74518 2.59246 5.74518 3.23737C5.74518 3.88229 6.26805 4.40505 6.91285 4.40505H19.2374C20.1939 4.40505 20.9722 5.18326 20.9722 6.1399V11.7315C20.9722 12.3764 21.4951 12.8992 22.1399 12.8992C22.7848 12.8992 23.3076 12.3764 23.3076 11.7315V6.14002C23.3076 3.89563 21.4817 2.0697 19.2374 2.0697Z" fill="url(#paint5_linear_9_1945)"/>
<circle cx="6.15426" cy="3.27431" r="2.45217" fill="url(#paint6_linear_9_1945)"/>
<path d="M41.5221 2.0697H53.8466C54.4916 2.0697 55.0143 2.59246 55.0143 3.23737C55.0143 3.88229 54.4914 4.40505 53.8466 4.40505H41.5221C40.5656 4.40505 39.7872 5.18326 39.7872 6.1399V11.7315C39.7872 12.3764 39.2644 12.8992 38.6196 12.8992C37.9748 12.8992 37.4519 12.3764 37.4519 11.7315V6.14002C37.4519 3.89563 39.2778 2.0697 41.5221 2.0697Z" fill="url(#paint7_linear_9_1945)"/>
<circle cx="54.6052" cy="3.27431" r="2.45217" fill="url(#paint8_linear_9_1945)"/>
<path d="M30.3798 0.822144C29.7349 0.822144 29.2121 1.3449 29.2121 1.98982V11.7315C29.2121 12.3765 29.7349 12.8992 30.3798 12.8992C31.0247 12.8992 31.5474 12.3765 31.5474 11.7315V1.98982C31.5474 1.3449 31.0247 0.822144 30.3798 0.822144Z" fill="url(#paint9_linear_9_1945)"/>
<path d="M2.14105 19.2631V13.6579C2.14105 13.013 2.66381 12.4902 3.30872 12.4902C3.95364 12.4902 4.4764 13.0131 4.4764 13.6579V19.2631C4.4764 20.2196 5.25461 20.9979 6.21126 20.9979H11.8029C12.4478 20.9979 12.9705 21.5208 12.9705 22.1656C12.9705 22.8104 12.4478 23.3333 11.8029 23.3333H6.21126C3.96698 23.3333 2.14105 21.5074 2.14105 19.2631Z" fill="url(#paint10_linear_9_1945)"/>
<circle cx="3.34548" cy="12.8993" r="2.45217" fill="url(#paint11_linear_9_1945)"/>
<path d="M2.14105 41.5478V47.153C2.14105 47.7979 2.66381 48.3206 3.30872 48.3206C3.95364 48.3206 4.4764 47.7978 4.4764 47.153V41.5478C4.4764 40.5913 5.25461 39.8129 6.21126 39.8129H11.8029C12.4478 39.8129 12.9705 39.2901 12.9705 38.6453C12.9705 38.0005 12.4478 37.4776 11.8029 37.4776H6.21126C3.96698 37.4776 2.14105 39.3035 2.14105 41.5478Z" fill="url(#paint12_linear_9_1945)"/>
<circle cx="3.34548" cy="47.9116" r="2.45217" fill="url(#paint13_linear_9_1945)"/>
<path d="M0.893311 30.4055C0.893311 29.7605 1.41607 29.2378 2.06098 29.2378H11.8027C12.4476 29.2378 12.9704 29.7605 12.9704 30.4055C12.9704 31.0504 12.4476 31.5731 11.8027 31.5731H2.0611C1.41618 31.5731 0.893311 31.0504 0.893311 30.4055Z" fill="url(#paint14_linear_9_1945)"/>
<path d="M58.6185 19.2631V13.6579C58.6185 13.013 58.0958 12.4902 57.4509 12.4902C56.8059 12.4902 56.2832 13.0131 56.2832 13.6579V19.2631C56.2832 20.2196 55.505 20.9979 54.5483 20.9979H48.9567C48.3118 20.9979 47.7891 21.5208 47.7891 22.1656C47.7891 22.8104 48.3118 23.3333 48.9567 23.3333H54.5483C56.7926 23.3333 58.6185 21.5074 58.6185 19.2631Z" fill="url(#paint15_linear_9_1945)"/>
<circle cx="57.4141" cy="12.8993" r="2.45217" fill="url(#paint16_linear_9_1945)"/>
<path d="M58.6185 41.5478V47.153C58.6185 47.7979 58.0958 48.3206 57.4509 48.3206C56.8059 48.3206 56.2832 47.7978 56.2832 47.153V41.5478C56.2832 40.5913 55.505 39.8129 54.5483 39.8129H48.9567C48.3118 39.8129 47.7891 39.2901 47.7891 38.6453C47.7891 38.0005 48.3118 37.4776 48.9567 37.4776H54.5483C56.7926 37.4776 58.6185 39.3035 58.6185 41.5478Z" fill="url(#paint17_linear_9_1945)"/>
<circle cx="57.4141" cy="47.9116" r="2.45217" fill="url(#paint18_linear_9_1945)"/>
<path d="M59.8663 30.4055C59.8663 29.7605 59.3435 29.2378 58.6986 29.2378H48.9569C48.3119 29.2378 47.7892 29.7605 47.7892 30.4055C47.7892 31.0504 48.3119 31.5731 48.9569 31.5731H58.6986C59.3434 31.5731 59.8663 31.0504 59.8663 30.4055Z" fill="url(#paint19_linear_9_1945)"/>
<path d="M47.8294 26.3583H45.6438C44.0595 26.3583 42.7753 25.074 42.7753 23.4897V21.1322C42.7753 19.5479 44.0595 18.2637 45.6438 18.2637H47.8294C49.4137 18.2637 50.6979 19.5479 50.6979 21.1322V23.4897C50.6979 25.074 49.4137 26.3583 47.8294 26.3583Z" fill="url(#paint20_linear_9_1945)"/>
<path d="M47.8294 34.4527H45.6438C44.0595 34.4527 42.7753 33.1685 42.7753 31.5842V29.2268C42.7753 27.6425 44.0595 26.3583 45.6438 26.3583H47.8294C49.4137 26.3583 50.6979 27.6425 50.6979 29.2268V31.5843C50.6979 33.1685 49.4137 34.4527 47.8294 34.4527Z" fill="url(#paint21_linear_9_1945)"/>
<path d="M47.8294 42.5472H45.6438C44.0595 42.5472 42.7753 41.2629 42.7753 39.6786V37.3211C42.7753 35.7368 44.0595 34.4526 45.6438 34.4526H47.8294C49.4137 34.4526 50.6979 35.7368 50.6979 37.3211V39.6786C50.6979 41.2629 49.4137 42.5472 47.8294 42.5472Z" fill="url(#paint22_linear_9_1945)"/>
<path d="M15.1157 26.3583H12.9301C11.3458 26.3583 10.0616 25.074 10.0616 23.4897V21.1322C10.0616 19.5479 11.3458 18.2637 12.9301 18.2637H15.1157C16.7 18.2637 17.9842 19.5479 17.9842 21.1322V23.4897C17.9841 25.074 16.6999 26.3583 15.1157 26.3583Z" fill="url(#paint23_linear_9_1945)"/>
<path d="M15.1157 34.4527H12.9301C11.3458 34.4527 10.0616 33.1685 10.0616 31.5842V29.2268C10.0616 27.6425 11.3458 26.3583 12.9301 26.3583H15.1157C16.7 26.3583 17.9842 27.6425 17.9842 29.2268V31.5843C17.9841 33.1685 16.6999 34.4527 15.1157 34.4527Z" fill="url(#paint24_linear_9_1945)"/>
<path d="M15.1157 42.5472H12.9301C11.3458 42.5472 10.0616 41.2629 10.0616 39.6786V37.3211C10.0616 35.7368 11.3458 34.4526 12.9301 34.4526H15.1157C16.7 34.4526 17.9842 35.7368 17.9842 37.3211V39.6786C17.9841 41.2629 16.6999 42.5472 15.1157 42.5472Z" fill="url(#paint25_linear_9_1945)"/>
<path d="M26.3326 47.8551V45.6696C26.3326 44.0853 25.0483 42.801 23.464 42.801H21.1065C19.5222 42.801 18.238 44.0853 18.238 45.6696V47.8551C18.238 49.4394 19.5222 50.7237 21.1065 50.7237H23.464C25.0483 50.7237 26.3326 49.4394 26.3326 47.8551Z" fill="url(#paint26_linear_9_1945)"/>
<path d="M34.427 47.8551V45.6696C34.427 44.0853 33.1428 42.801 31.5585 42.801H29.2011C27.6168 42.801 26.3326 44.0853 26.3326 45.6696V47.8551C26.3326 49.4394 27.6168 50.7237 29.2011 50.7237H31.5586C33.1428 50.7237 34.427 49.4394 34.427 47.8551Z" fill="url(#paint27_linear_9_1945)"/>
<path d="M42.5215 47.8551V45.6696C42.5215 44.0853 41.2372 42.801 39.6529 42.801H37.2954C35.7111 42.801 34.4269 44.0853 34.4269 45.6696V47.8551C34.4269 49.4394 35.7111 50.7237 37.2954 50.7237H39.6529C41.2372 50.7237 42.5215 49.4394 42.5215 47.8551Z" fill="url(#paint28_linear_9_1945)"/>
<path d="M26.3326 15.1414V12.9558C26.3326 11.3715 25.0483 10.0873 23.464 10.0873H21.1065C19.5222 10.0873 18.238 11.3715 18.238 12.9558V15.1414C18.238 16.7257 19.5222 18.0099 21.1065 18.0099H23.464C25.0483 18.0098 26.3326 16.7255 26.3326 15.1414Z" fill="url(#paint29_linear_9_1945)"/>
<path d="M34.427 15.1414V12.9558C34.427 11.3715 33.1428 10.0873 31.5585 10.0873H29.2011C27.6168 10.0873 26.3326 11.3715 26.3326 12.9558V15.1414C26.3326 16.7257 27.6168 18.0099 29.2011 18.0099H31.5586C33.1428 18.0098 34.427 16.7255 34.427 15.1414Z" fill="url(#paint30_linear_9_1945)"/>
<path d="M42.5215 15.1414V12.9558C42.5215 11.3715 41.2372 10.0873 39.6529 10.0873H37.2954C35.7111 10.0873 34.4269 11.3715 34.4269 12.9558V15.1414C34.4269 16.7257 35.7111 18.0099 37.2954 18.0099H39.6529C41.2372 18.0098 42.5215 16.7255 42.5215 15.1414Z" fill="url(#paint31_linear_9_1945)"/>
<path d="M41.9858 46.4419H18.7737C16.327 46.4419 14.3434 44.4584 14.3434 42.0116V18.7994C14.3434 16.3527 16.3269 14.3691 18.7737 14.3691H41.9858C44.4325 14.3691 46.4161 16.3526 46.4161 18.7994V42.0116C46.4161 44.4583 44.4325 46.4419 41.9858 46.4419Z" fill="url(#paint32_linear_9_1945)"/>
<path d="M21.1766 17.6893H39.5829C41.5231 17.6893 43.0958 19.2621 43.0958 21.2023V39.6086C43.0958 41.5488 41.5231 43.1216 39.5829 43.1216H21.1766C19.2364 43.1216 17.6636 41.5488 17.6636 39.6086V21.2023C17.6636 19.2621 19.2364 17.6893 21.1766 17.6893Z" fill="url(#paint33_linear_9_1945)"/>
<path d="M37.6109 40.3967H23.1487C21.6243 40.3967 20.3884 39.161 20.3884 37.6364V23.1744C20.3884 21.6499 21.6241 20.4141 23.1487 20.4141H37.6109C39.1353 20.4141 40.3712 21.6498 40.3712 23.1744V37.6366C40.371 39.161 39.1353 40.3967 37.6109 40.3967Z" fill="url(#paint34_linear_9_1945)"/>
<path d="M26.3107 27.3387H25.1163C24.4312 27.3387 23.8759 26.7834 23.8759 26.0983V24.9039C23.8759 24.2188 24.4312 23.6635 25.1163 23.6635H26.3107C26.9958 23.6635 27.5511 24.2188 27.5511 24.9039V26.0983C27.5513 26.7834 26.9959 27.3387 26.3107 27.3387Z" fill="url(#paint35_linear_9_1945)"/>
<path d="M30.9968 27.3387H29.8024C29.1173 27.3387 28.562 26.7834 28.562 26.0983V24.9039C28.562 24.2188 29.1173 23.6635 29.8024 23.6635H30.9968C31.6819 23.6635 32.2372 24.2188 32.2372 24.9039V26.0983C32.2374 26.7834 31.682 27.3387 30.9968 27.3387Z" fill="url(#paint36_linear_9_1945)"/>
<path d="M35.6433 27.3387H34.4488C33.7638 27.3387 33.2084 26.7834 33.2084 26.0983V24.9039C33.2084 24.2188 33.7638 23.6635 34.4488 23.6635H35.6433C36.3284 23.6635 36.8837 24.2188 36.8837 24.9039V26.0983C36.8837 26.7834 36.3284 27.3387 35.6433 27.3387Z" fill="url(#paint37_linear_9_1945)"/>
<path d="M26.3107 32.243H25.1163C24.4312 32.243 23.8759 31.6877 23.8759 31.0026V29.8082C23.8759 29.1231 24.4312 28.5677 25.1163 28.5677H26.3107C26.9958 28.5677 27.5511 29.1231 27.5511 29.8082V31.0026C27.5513 31.6877 26.9959 32.243 26.3107 32.243Z" fill="url(#paint38_linear_9_1945)"/>
<path d="M30.9968 32.243H29.8024C29.1173 32.243 28.562 31.6877 28.562 31.0026V29.8082C28.562 29.1231 29.1173 28.5677 29.8024 28.5677H30.9968C31.6819 28.5677 32.2372 29.1231 32.2372 29.8082V31.0026C32.2374 31.6877 31.682 32.243 30.9968 32.243Z" fill="url(#paint39_linear_9_1945)"/>
<path d="M35.6433 32.243H34.4488C33.7638 32.243 33.2084 31.6877 33.2084 31.0026V29.8082C33.2084 29.1231 33.7638 28.5677 34.4488 28.5677H35.6433C36.3284 28.5677 36.8837 29.1231 36.8837 29.8082V31.0026C36.8837 31.6877 36.3284 32.243 35.6433 32.243Z" fill="url(#paint40_linear_9_1945)"/>
<path d="M26.3107 37.1475H25.1163C24.4312 37.1475 23.8759 36.5922 23.8759 35.9071V34.7126C23.8759 34.0276 24.4312 33.4722 25.1163 33.4722H26.3107C26.9958 33.4722 27.5511 34.0276 27.5511 34.7126V35.9071C27.5513 36.5922 26.9959 37.1475 26.3107 37.1475Z" fill="url(#paint41_linear_9_1945)"/>
<path d="M30.9968 37.1475H29.8024C29.1173 37.1475 28.562 36.5922 28.562 35.9071V34.7126C28.562 34.0276 29.1173 33.4722 29.8024 33.4722H30.9968C31.6819 33.4722 32.2372 34.0276 32.2372 34.7126V35.9071C32.2374 36.5922 31.682 37.1475 30.9968 37.1475Z" fill="url(#paint42_linear_9_1945)"/>
<path d="M35.6433 37.1475H34.4488C33.7638 37.1475 33.2084 36.5922 33.2084 35.9071V34.7126C33.2084 34.0276 33.7638 33.4722 34.4488 33.4722H35.6433C36.3284 33.4722 36.8837 34.0276 36.8837 34.7126V35.9071C36.8837 36.5922 36.3284 37.1475 35.6433 37.1475Z" fill="url(#paint43_linear_9_1945)"/>
<defs>
<linearGradient id="paint0_linear_9_1945" x1="8.67303" y1="56.1248" x2="12.2176" y2="65.447" gradientUnits="userSpaceOnUse">
<stop stop-color="#0B799D"/>
<stop offset="1" stop-color="#07485E"/>
</linearGradient>
<linearGradient id="paint1_linear_9_1945" x1="4.27206" y1="57.8425" x2="6.46018" y2="60.0305" gradientUnits="userSpaceOnUse">
<stop stop-color="#FFDA2D"/>
<stop offset="1" stop-color="#FDBF00"/>
</linearGradient>
<linearGradient id="paint2_linear_9_1945" x1="29.5942" y1="51.4918" x2="34.2682" y2="63.7846" gradientUnits="userSpaceOnUse">
<stop stop-color="#0B799D"/>
<stop offset="1" stop-color="#07485E"/>
</linearGradient>
<linearGradient id="paint3_linear_9_1945" x1="52.723" y1="57.8425" x2="54.9112" y2="60.0305" gradientUnits="userSpaceOnUse">
<stop stop-color="#FFDA2D"/>
<stop offset="1" stop-color="#FDBF00"/>
</linearGradient>
<linearGradient id="paint4_linear_9_1945" x1="29.2121" y1="59.9888" x2="31.5474" y2="59.9888" gradientUnits="userSpaceOnUse">
<stop stop-color="#0B799D"/>
<stop offset="1" stop-color="#07485E"/>
</linearGradient>
<linearGradient id="paint5_linear_9_1945" x1="21.2098" y1="9.45295" x2="24.7544" y2="0.130788" gradientUnits="userSpaceOnUse">
<stop stop-color="#0B799D"/>
<stop offset="1" stop-color="#07485E"/>
</linearGradient>
<linearGradient id="paint6_linear_9_1945" x1="4.272" y1="3.58018" x2="6.46012" y2="5.7683" gradientUnits="userSpaceOnUse">
<stop stop-color="#FFDA2D"/>
<stop offset="1" stop-color="#FDBF00"/>
</linearGradient>
<linearGradient id="paint7_linear_9_1945" x1="46.1259" y1="15.605" x2="50.8" y2="3.3122" gradientUnits="userSpaceOnUse">
<stop stop-color="#0B799D"/>
<stop offset="1" stop-color="#07485E"/>
</linearGradient>
<linearGradient id="paint8_linear_9_1945" x1="52.723" y1="3.58018" x2="54.9111" y2="5.7683" gradientUnits="userSpaceOnUse">
<stop stop-color="#FFDA2D"/>
<stop offset="1" stop-color="#FDBF00"/>
</linearGradient>
<linearGradient id="paint9_linear_9_1945" x1="29.2121" y1="12.8993" x2="31.5474" y2="12.8993" gradientUnits="userSpaceOnUse">
<stop stop-color="#0B799D"/>
<stop offset="1" stop-color="#07485E"/>
</linearGradient>
<linearGradient id="paint10_linear_9_1945" x1="4.30969" y1="16.5144" x2="-0.339658" y2="21.1521" gradientUnits="userSpaceOnUse">
<stop stop-color="#0B799D"/>
<stop offset="1" stop-color="#07485E"/>
</linearGradient>
<linearGradient id="paint11_linear_9_1945" x1="3.03978" y1="11.0171" x2="0.851662" y2="13.2051" gradientUnits="userSpaceOnUse">
<stop stop-color="#FFDA2D"/>
<stop offset="1" stop-color="#FDBF00"/>
</linearGradient>
<linearGradient id="paint12_linear_9_1945" x1="8.94742" y1="39.6472" x2="4.29807" y2="35.0094" gradientUnits="userSpaceOnUse">
<stop stop-color="#0B799D"/>
<stop offset="1" stop-color="#07485E"/>
</linearGradient>
<linearGradient id="paint13_linear_9_1945" x1="5.22779" y1="47.6057" x2="3.03967" y2="45.4177" gradientUnits="userSpaceOnUse">
<stop stop-color="#FFDA2D"/>
<stop offset="1" stop-color="#FDBF00"/>
</linearGradient>
<linearGradient id="paint14_linear_9_1945" x1="0.893369" y1="29.2378" x2="0.893369" y2="31.5731" gradientUnits="userSpaceOnUse">
<stop stop-color="#0B799D"/>
<stop offset="1" stop-color="#07485E"/>
</linearGradient>
<linearGradient id="paint15_linear_9_1945" x1="51.8123" y1="21.1637" x2="56.4616" y2="25.8014" gradientUnits="userSpaceOnUse">
<stop stop-color="#0B799D"/>
<stop offset="1" stop-color="#07485E"/>
</linearGradient>
<linearGradient id="paint16_linear_9_1945" x1="55.5319" y1="13.2052" x2="57.72" y2="15.3932" gradientUnits="userSpaceOnUse">
<stop stop-color="#FFDA2D"/>
<stop offset="1" stop-color="#FDBF00"/>
</linearGradient>
<linearGradient id="paint17_linear_9_1945" x1="56.45" y1="44.2965" x2="61.0994" y2="39.6588" gradientUnits="userSpaceOnUse">
<stop stop-color="#0B799D"/>
<stop offset="1" stop-color="#07485E"/>
</linearGradient>
<linearGradient id="paint18_linear_9_1945" x1="57.7199" y1="49.7938" x2="59.908" y2="47.6058" gradientUnits="userSpaceOnUse">
<stop stop-color="#FFDA2D"/>
<stop offset="1" stop-color="#FDBF00"/>
</linearGradient>
<linearGradient id="paint19_linear_9_1945" x1="47.7891" y1="29.2378" x2="47.7891" y2="31.5731" gradientUnits="userSpaceOnUse">
<stop stop-color="#0B799D"/>
<stop offset="1" stop-color="#07485E"/>
</linearGradient>
<linearGradient id="paint20_linear_9_1945" x1="44.5196" y1="23.4826" x2="48.1732" y2="26.1493" gradientUnits="userSpaceOnUse">
<stop stop-color="#EDF5FF"/>
<stop offset="1" stop-color="#B5DBFF"/>
</linearGradient>
<linearGradient id="paint21_linear_9_1945" x1="44.5197" y1="31.5772" x2="48.1732" y2="34.2438" gradientUnits="userSpaceOnUse">
<stop stop-color="#EDF5FF"/>
<stop offset="1" stop-color="#B5DBFF"/>
</linearGradient>
<linearGradient id="paint22_linear_9_1945" x1="44.5196" y1="39.6716" x2="48.1732" y2="42.3383" gradientUnits="userSpaceOnUse">
<stop stop-color="#EDF5FF"/>
<stop offset="1" stop-color="#B5DBFF"/>
</linearGradient>
<linearGradient id="paint23_linear_9_1945" x1="11.806" y1="23.4825" x2="15.4594" y2="26.1492" gradientUnits="userSpaceOnUse">
<stop stop-color="#EDF5FF"/>
<stop offset="1" stop-color="#B5DBFF"/>
</linearGradient>
<linearGradient id="paint24_linear_9_1945" x1="11.806" y1="31.5771" x2="15.4594" y2="34.2437" gradientUnits="userSpaceOnUse">
<stop stop-color="#EDF5FF"/>
<stop offset="1" stop-color="#B5DBFF"/>
</linearGradient>
<linearGradient id="paint25_linear_9_1945" x1="11.806" y1="39.6715" x2="15.4594" y2="42.3382" gradientUnits="userSpaceOnUse">
<stop stop-color="#EDF5FF"/>
<stop offset="1" stop-color="#B5DBFF"/>
</linearGradient>
<linearGradient id="paint26_linear_9_1945" x1="19.7801" y1="47.229" x2="22.4468" y2="50.8825" gradientUnits="userSpaceOnUse">
<stop stop-color="#EDF5FF"/>
<stop offset="1" stop-color="#B5DBFF"/>
</linearGradient>
<linearGradient id="paint27_linear_9_1945" x1="27.8748" y1="47.229" x2="30.5414" y2="50.8824" gradientUnits="userSpaceOnUse">
<stop stop-color="#EDF5FF"/>
<stop offset="1" stop-color="#B5DBFF"/>
</linearGradient>
<linearGradient id="paint28_linear_9_1945" x1="35.9691" y1="47.229" x2="38.6357" y2="50.8824" gradientUnits="userSpaceOnUse">
<stop stop-color="#EDF5FF"/>
<stop offset="1" stop-color="#B5DBFF"/>
</linearGradient>
<linearGradient id="paint29_linear_9_1945" x1="19.7801" y1="14.5153" x2="22.4468" y2="18.1688" gradientUnits="userSpaceOnUse">
<stop stop-color="#EDF5FF"/>
<stop offset="1" stop-color="#B5DBFF"/>
</linearGradient>
<linearGradient id="paint30_linear_9_1945" x1="27.8748" y1="14.5152" x2="30.5414" y2="18.1687" gradientUnits="userSpaceOnUse">
<stop stop-color="#EDF5FF"/>
<stop offset="1" stop-color="#B5DBFF"/>
</linearGradient>
<linearGradient id="paint31_linear_9_1945" x1="35.9691" y1="14.5152" x2="38.6357" y2="18.1687" gradientUnits="userSpaceOnUse">
<stop stop-color="#EDF5FF"/>
<stop offset="1" stop-color="#B5DBFF"/>
</linearGradient>
<linearGradient id="paint32_linear_9_1945" x1="10.3665" y1="34.6749" x2="34.6492" y2="58.9576" gradientUnits="userSpaceOnUse">
<stop stop-color="#0B799D"/>
<stop offset="1" stop-color="#07485E"/>
</linearGradient>
<linearGradient id="paint33_linear_9_1945" x1="46.2495" y1="27.02" x2="26.9943" y2="7.76482" gradientUnits="userSpaceOnUse">
<stop stop-color="#0B799D"/>
<stop offset="1" stop-color="#07485E"/>
</linearGradient>
<linearGradient id="paint34_linear_9_1945" x1="20.673" y1="31.4328" x2="31.407" y2="42.167" gradientUnits="userSpaceOnUse">
<stop stop-color="#B9DD39"/>
<stop offset="1" stop-color="#90CC1C"/>
</linearGradient>
<linearGradient id="paint35_linear_9_1945" x1="24.6654" y1="26.0296" x2="26.3447" y2="27.309" gradientUnits="userSpaceOnUse">
<stop stop-color="#FFDA2D"/>
<stop offset="1" stop-color="#FDBF00"/>
</linearGradient>
<linearGradient id="paint36_linear_9_1945" x1="29.3515" y1="26.0296" x2="31.0308" y2="27.309" gradientUnits="userSpaceOnUse">
<stop stop-color="#FFDA2D"/>
<stop offset="1" stop-color="#FDBF00"/>
</linearGradient>
<linearGradient id="paint37_linear_9_1945" x1="33.998" y1="26.0295" x2="35.6772" y2="27.3089" gradientUnits="userSpaceOnUse">
<stop stop-color="#FFDA2D"/>
<stop offset="1" stop-color="#FDBF00"/>
</linearGradient>
<linearGradient id="paint38_linear_9_1945" x1="24.6654" y1="30.9339" x2="26.3447" y2="32.2133" gradientUnits="userSpaceOnUse">
<stop stop-color="#FFDA2D"/>
<stop offset="1" stop-color="#FDBF00"/>
</linearGradient>
<linearGradient id="paint39_linear_9_1945" x1="29.3515" y1="30.9339" x2="31.0308" y2="32.2133" gradientUnits="userSpaceOnUse">
<stop stop-color="#FFDA2D"/>
<stop offset="1" stop-color="#FDBF00"/>
</linearGradient>
<linearGradient id="paint40_linear_9_1945" x1="33.998" y1="30.9338" x2="35.6772" y2="32.2132" gradientUnits="userSpaceOnUse">
<stop stop-color="#FFDA2D"/>
<stop offset="1" stop-color="#FDBF00"/>
</linearGradient>
<linearGradient id="paint41_linear_9_1945" x1="24.6654" y1="35.8384" x2="26.3447" y2="37.1178" gradientUnits="userSpaceOnUse">
<stop stop-color="#FFDA2D"/>
<stop offset="1" stop-color="#FDBF00"/>
</linearGradient>
<linearGradient id="paint42_linear_9_1945" x1="29.3515" y1="35.8384" x2="31.0308" y2="37.1178" gradientUnits="userSpaceOnUse">
<stop stop-color="#FFDA2D"/>
<stop offset="1" stop-color="#FDBF00"/>
</linearGradient>
<linearGradient id="paint43_linear_9_1945" x1="33.998" y1="35.8383" x2="35.6772" y2="37.1177" gradientUnits="userSpaceOnUse">
<stop stop-color="#FFDA2D"/>
<stop offset="1" stop-color="#FDBF00"/>
</linearGradient>
</defs>
</svg>
