<svg width="53" height="60" viewBox="0 0 53 60" fill="none" xmlns="http://www.w3.org/2000/svg">
<path d="M47.2802 56.5659H6.01881C2.96488 56.5659 0.489166 54.0902 0.489166 51.0363V9.77488C0.489166 6.72096 2.96488 4.24524 6.01881 4.24524H47.2802C50.3342 4.24524 52.8099 6.72096 52.8099 9.77488V51.0363C52.8099 54.0902 50.3342 56.5659 47.2802 56.5659Z" fill="url(#paint0_linear_9_2025)"/>
<path d="M45.7148 54.5809H7.58441C4.76217 54.5809 2.47427 52.293 2.47427 49.4708V11.3405C2.47427 8.51825 4.76217 6.23047 7.58441 6.23047H45.7148C48.537 6.23047 50.8249 8.51836 50.8249 11.3405V49.4708C50.8248 52.293 48.5369 54.5809 45.7148 54.5809Z" fill="url(#paint1_linear_9_2025)"/>
<path d="M47.5705 4.25293V56.5584C50.4895 56.4074 52.8099 53.9929 52.8099 51.0363V9.77492C52.8099 6.81833 50.4895 4.40386 47.5705 4.25293Z" fill="url(#paint2_linear_9_2025)"/>
<path d="M47.5705 4.25293V56.5584C50.4895 56.4074 52.8099 53.9929 52.8099 51.0363V9.77492C52.8099 6.81833 50.4895 4.40386 47.5705 4.25293Z" fill="url(#paint3_linear_9_2025)"/>
<path d="M14.2555 4.24524H26.6495V56.5661H14.2555V4.24524Z" fill="url(#paint4_linear_9_2025)"/>
<path d="M52.8099 28.8458L29.6722 5.70813C28.9592 4.99511 27.74 5.50023 27.7399 6.50873C27.7399 7.13381 27.2331 7.64067 26.6079 7.64067L18.4958 7.64125C18.0443 7.64125 18.0951 8.00739 18.095 8.45891L18.0944 14.9663C18.0944 15.4178 18.0434 15.784 18.495 15.7839H18.5852L43.5633 40.8523L51.2054 40.8517C51.2798 40.9191 51.3629 40.9759 51.4516 41.0216C51.5605 41.2379 51.7362 41.4064 51.9431 41.5131C52.0521 41.7295 52.2277 41.8979 52.4347 42.0047C52.5223 42.1787 52.6543 42.3199 52.8099 42.4247V28.8458Z" fill="url(#paint5_linear_9_2025)"/>
<path d="M45.7146 54.5809C47.342 54.5809 48.7904 53.8194 49.7263 52.6343C49.7159 52.6275 49.7071 52.6198 49.6967 52.6129C49.5367 52.3498 49.3097 52.1243 49.0185 51.9347L16.4652 19.3814C16.2446 19.0184 15.9001 18.7247 15.4297 18.5019C14.7926 18.2001 14.06 18.0492 13.2333 18.0492C12.406 18.0492 11.6741 18.2001 11.0371 18.5019C10.3998 18.8037 9.9918 19.2344 9.81325 19.7929L3.57628 40.2471C3.53126 40.4262 3.50934 40.5489 3.50934 40.6159C3.50934 41.1361 3.80065 41.5932 4.38199 41.9877L16.9751 54.5808H45.7146V54.5809Z" fill="url(#paint6_linear_9_2025)"/>
<path fill-rule="evenodd" clip-rule="evenodd" d="M3.57627 40.2472C3.53114 40.4264 3.50922 40.549 3.50922 40.6161C3.50922 41.1976 3.87234 41.7005 4.59893 42.125C5.32517 42.5499 6.07972 42.7621 6.86234 42.7621C7.82328 42.7621 8.39336 42.4383 8.57249 41.7896L9.71266 37.5982H16.7877L17.9279 41.7896C18.1064 42.4383 18.6765 42.7621 19.6379 42.7621C20.4202 42.7621 21.1746 42.55 21.9013 42.125C22.6276 41.7007 22.991 41.1976 22.991 40.6161C22.991 40.549 22.9685 40.4264 22.924 40.2472L16.6537 19.793C16.4744 19.2345 16.0667 18.8039 15.4297 18.502C14.7926 18.2002 14.0601 18.0493 13.2333 18.0493C12.406 18.0493 11.6741 18.2002 11.0371 18.502C10.3999 18.8037 9.99179 19.2345 9.81325 19.793L3.57627 40.2472ZM15.6812 33.5744H10.7857L13.2333 24.5879L15.6812 33.5744Z" fill="url(#paint7_linear_9_2025)"/>
<path d="M26.6495 4.24524L47.6793 0.83365C48.2064 0.748149 48.6847 1.15512 48.6847 1.68901V59.1221C48.6847 59.6561 48.2064 60.063 47.6793 59.9775L26.6495 56.566L26.6495 4.24524Z" fill="url(#paint8_linear_9_2025)"/>
<path d="M52.8099 28.8458L29.6723 5.70813C28.9592 4.99511 27.7401 5.50023 27.7399 6.50873C27.7399 7.11977 27.2552 7.61654 26.6495 7.63858V23.8773L43.5634 40.8523L51.2055 40.8517C51.2799 40.9191 51.363 40.9759 51.4517 41.0216C51.5607 41.2379 51.7363 41.4064 51.9433 41.5131C52.0522 41.7295 52.2279 41.8979 52.4348 42.0047C52.5224 42.1787 52.6544 42.3199 52.81 42.4247V28.8458H52.8099Z" fill="url(#paint9_linear_9_2025)"/>
<path d="M47.6793 0.83365L46.4563 1.03203C46.6398 1.18981 46.7582 1.42369 46.7582 1.68901V59.122C46.7582 59.3874 46.6398 59.6212 46.4563 59.7789L47.6793 59.9773C48.2064 60.0628 48.6847 59.6558 48.6847 59.1218V1.68913C48.6847 1.15512 48.2064 0.748149 47.6793 0.83365Z" fill="url(#paint10_linear_9_2025)"/>
<path d="M47.6793 0.83365L46.4563 1.03203C46.6398 1.18981 46.7582 1.42369 46.7582 1.68901V59.122C46.7582 59.3874 46.6398 59.6212 46.4563 59.7789L47.6793 59.9773C48.2064 60.0628 48.6847 59.6558 48.6847 59.1218V1.68913C48.6847 1.15512 48.2064 0.748149 47.6793 0.83365Z" fill="url(#paint11_linear_9_2025)"/>
<path d="M52.8099 51.0363V31.1321L45.5964 23.9186C45.3259 23.5189 44.8682 23.2563 44.3493 23.2563H41.3945L37.9503 19.8496C37.6798 19.4499 37.2221 19.1873 36.7032 19.1873C35.872 19.1873 35.198 19.8612 35.198 20.6924V23.2563H29.0571C28.2259 23.2563 27.552 23.9302 27.552 24.7614C27.552 25.2804 27.8147 25.7379 28.2143 26.0086L32.6258 30.4293C31.8757 30.6905 31.4519 31.4948 31.6754 32.267C32.2633 34.2981 33.223 36.0855 34.4436 37.5409C33.3093 38.2284 32.0387 38.6139 30.6978 38.6139C29.8665 38.6139 29.1926 39.2877 29.1926 40.119C29.1926 40.6379 29.4554 41.0955 29.8549 41.3662L48.3181 59.8293C48.5379 59.6735 48.6846 59.4176 48.6846 59.1223V56.3851C51.0583 55.7633 52.8099 53.6048 52.8099 51.0363Z" fill="url(#paint12_linear_9_2025)"/>
<path d="M44.3493 23.2562H38.2083V20.6923C38.2083 19.8611 37.5344 19.1871 36.7032 19.1871C35.872 19.1871 35.198 19.8611 35.198 20.6923V23.2562H29.0571C28.2259 23.2562 27.552 23.9301 27.552 24.7613C27.552 25.5926 28.2259 26.2665 29.0571 26.2665H39.3575V27.7187C39.3575 30.7933 38.3397 33.574 36.706 35.5569C35.7706 34.4258 35.0288 33.0254 34.5669 31.4299C34.3358 30.6314 33.5012 30.1717 32.7027 30.4026C31.9043 30.6337 31.4443 31.4684 31.6754 32.2669C32.2633 34.2979 33.223 36.0854 34.4436 37.5407C33.3093 38.2282 32.0387 38.6137 30.6978 38.6137C29.8665 38.6137 29.1926 39.2875 29.1926 40.1189C29.1926 40.9501 29.8665 41.6241 30.6978 41.6241C32.8559 41.6241 34.9173 40.9368 36.711 39.6497C38.483 40.9128 40.544 41.6241 42.7085 41.6241C43.5397 41.6241 44.2136 40.9501 44.2136 40.1189C44.2136 39.2877 43.5397 38.6137 42.7085 38.6137C41.3883 38.6137 40.1157 38.2295 38.9702 37.5354C38.9965 37.5038 39.0232 37.4731 39.0493 37.4412C41.1891 34.8308 42.3675 31.378 42.3675 27.7188V26.2666H44.3491C45.1804 26.2666 45.8543 25.5927 45.8543 24.7614C45.8544 23.9301 45.1805 23.2562 44.3493 23.2562Z" fill="url(#paint13_linear_9_2025)"/>
<path d="M26.6072 15.7833L18.495 15.7839C18.0434 15.7839 18.0942 15.4179 18.0944 14.9664L18.0949 8.45896C18.0949 8.00744 18.0441 7.6413 18.4958 7.6413L26.608 7.64072C27.2331 7.64072 27.7399 7.13386 27.7399 6.50878C27.74 5.50039 28.9592 4.99527 29.6722 5.70817L34.8749 10.9109C35.317 11.3529 35.3168 12.0695 34.8748 12.5116L29.6711 17.7153C28.9579 18.4284 27.7388 17.9235 27.7389 16.9151C27.739 16.2901 27.2322 15.7833 26.6072 15.7833Z" fill="url(#paint14_linear_9_2025)"/>
<path d="M19.0156 8.56197L26.6079 8.56139C27.7396 8.56128 28.6605 7.64048 28.6606 6.50866C28.6606 6.41492 28.7046 6.34937 28.791 6.31353C28.8775 6.27768 28.9549 6.29299 29.0212 6.35924L34.2239 11.562C34.275 11.6131 34.2857 11.6715 34.2857 11.7113C34.2857 11.7512 34.2749 11.8094 34.2239 11.8607L29.0201 17.0643C28.9539 17.1306 28.8764 17.146 28.7898 17.1102C28.7033 17.0743 28.6594 17.0088 28.6594 16.915C28.6595 15.7832 27.7389 14.8625 26.6072 14.8626L19.0149 14.8632L19.0156 8.56197Z" fill="url(#paint15_linear_9_2025)"/>
<path d="M18.0944 14.9664C18.0944 15.4179 18.0434 15.7841 18.495 15.7841L26.6072 15.7835C27.2323 15.7834 27.739 16.2901 27.739 16.9153C27.7389 17.9237 28.9581 18.4286 29.6712 17.7154L34.8748 12.5118C35.0959 12.2908 35.2064 12.0011 35.2064 11.7114L18.0947 11.7127L18.0944 14.9664Z" fill="url(#paint16_linear_9_2025)"/>
<defs>
<linearGradient id="paint0_linear_9_2025" x1="-8.31796" y1="42.8034" x2="39.0474" y2="90.1688" gradientUnits="userSpaceOnUse">
<stop stop-color="#F9F7FC"/>
<stop offset="1" stop-color="#F0DDFC"/>
</linearGradient>
<linearGradient id="paint1_linear_9_2025" x1="26.4796" y1="14.8793" x2="11.1233" y2="-0.477209" gradientUnits="userSpaceOnUse">
<stop stop-color="#E9EDF5" stop-opacity="0.01"/>
<stop offset="1" stop-color="white"/>
</linearGradient>
<linearGradient id="paint2_linear_9_2025" x1="39.9017" y1="92.112" x2="52.2638" y2="92.112" gradientUnits="userSpaceOnUse">
<stop stop-color="#18CFFC"/>
<stop offset="1" stop-color="#4A98F7"/>
</linearGradient>
<linearGradient id="paint3_linear_9_2025" x1="52.9392" y1="9.15369" x2="48.6817" y2="9.15369" gradientUnits="userSpaceOnUse">
<stop stop-color="#0469BC" stop-opacity="0.01"/>
<stop offset="1" stop-color="#0469BC"/>
</linearGradient>
<linearGradient id="paint4_linear_9_2025" x1="17.8677" y1="87.3339" x2="44.8386" y2="87.3339" gradientUnits="userSpaceOnUse">
<stop stop-color="#F0DDFC" stop-opacity="0.01"/>
<stop offset="0.2889" stop-color="#C8B7E0" stop-opacity="0.289"/>
<stop offset="0.5915" stop-color="#A595C8" stop-opacity="0.592"/>
<stop offset="0.8395" stop-color="#8F81B8" stop-opacity="0.84"/>
<stop offset="1" stop-color="#8779B3"/>
</linearGradient>
<linearGradient id="paint5_linear_9_2025" x1="45.9757" y1="11.6579" x2="24.3519" y2="-8.84966" gradientUnits="userSpaceOnUse">
<stop stop-color="#F0DDFC" stop-opacity="0.01"/>
<stop offset="0.2889" stop-color="#C8B7E0" stop-opacity="0.289"/>
<stop offset="0.5915" stop-color="#A595C8" stop-opacity="0.592"/>
<stop offset="0.8395" stop-color="#8F81B8" stop-opacity="0.84"/>
<stop offset="1" stop-color="#8779B3"/>
</linearGradient>
<linearGradient id="paint6_linear_9_2025" x1="46.3305" y1="35.5169" x2="30.0423" y2="-1.13965" gradientUnits="userSpaceOnUse">
<stop stop-color="#F0DDFC" stop-opacity="0.01"/>
<stop offset="0.2889" stop-color="#C8B7E0" stop-opacity="0.289"/>
<stop offset="0.5915" stop-color="#A595C8" stop-opacity="0.592"/>
<stop offset="0.8395" stop-color="#8F81B8" stop-opacity="0.84"/>
<stop offset="1" stop-color="#8779B3"/>
</linearGradient>
<linearGradient id="paint7_linear_9_2025" x1="2.1362" y1="42.104" x2="24.8387" y2="49.5547" gradientUnits="userSpaceOnUse">
<stop stop-color="#18CFFC"/>
<stop offset="1" stop-color="#4A98F7"/>
</linearGradient>
<linearGradient id="paint8_linear_9_2025" x1="30.3931" y1="59.3831" x2="56.2114" y2="61.5529" gradientUnits="userSpaceOnUse">
<stop stop-color="#18CFFC"/>
<stop offset="1" stop-color="#4A98F7"/>
</linearGradient>
<linearGradient id="paint9_linear_9_2025" x1="44.7591" y1="6.71251" x2="16.6992" y2="-6.25228" gradientUnits="userSpaceOnUse">
<stop stop-color="#0469BC" stop-opacity="0.01"/>
<stop offset="1" stop-color="#0469BC"/>
</linearGradient>
<linearGradient id="paint10_linear_9_2025" x1="44.6477" y1="217.101" x2="58.7351" y2="217.103" gradientUnits="userSpaceOnUse">
<stop stop-color="#0469BC" stop-opacity="0.01"/>
<stop offset="1" stop-color="#0469BC"/>
</linearGradient>
<linearGradient id="paint11_linear_9_2025" x1="50.8718" y1="-188.527" x2="34.0325" y2="-188.559" gradientUnits="userSpaceOnUse">
<stop stop-color="#18CFFC" stop-opacity="0.01"/>
<stop offset="1" stop-color="#65E1DC"/>
</linearGradient>
<linearGradient id="paint12_linear_9_2025" x1="51.5815" y1="19.3921" x2="21.8615" y2="11.4136" gradientUnits="userSpaceOnUse">
<stop stop-color="#0469BC" stop-opacity="0.01"/>
<stop offset="1" stop-color="#0469BC"/>
</linearGradient>
<linearGradient id="paint13_linear_9_2025" x1="22.3409" y1="34.1786" x2="41.6246" y2="47.3819" gradientUnits="userSpaceOnUse">
<stop stop-color="#F9F7FC"/>
<stop offset="1" stop-color="#F0DDFC"/>
</linearGradient>
<linearGradient id="paint14_linear_9_2025" x1="21.1657" y1="5.52904" x2="16.7572" y2="16.6673" gradientUnits="userSpaceOnUse">
<stop stop-color="#92F37F"/>
<stop offset="1" stop-color="#4AB272"/>
</linearGradient>
<linearGradient id="paint15_linear_9_2025" x1="33.0747" y1="15.3263" x2="35.8907" y2="3.43049" gradientUnits="userSpaceOnUse">
<stop stop-color="#92F37F" stop-opacity="0.01"/>
<stop offset="1" stop-color="#FFEE83"/>
</linearGradient>
<linearGradient id="paint16_linear_9_2025" x1="43.0747" y1="11.6157" x2="40.2433" y2="-2.23432" gradientUnits="userSpaceOnUse">
<stop stop-color="#4AB272" stop-opacity="0.01"/>
<stop offset="1" stop-color="#009245"/>
</linearGradient>
</defs>
</svg>
