<svg width="135" height="41" viewBox="0 0 135 41" fill="none" xmlns="http://www.w3.org/2000/svg">
<path fill-rule="evenodd" clip-rule="evenodd" d="M5.18903 41C2.32218 41 0 38.6683 0 35.7896V5.21304C0 2.3344 2.32218 0 5.18903 0H129.077C131.947 0 134.272 2.3344 134.272 5.21304V35.7896C134.272 38.6683 131.947 41 129.077 41H5.18903Z" fill="url(#paint0_linear_9_2336)"/>
<path d="M41.7599 12.8934H38.0549L37.2427 14.6912H36.7408L39.6792 8.30315H40.1447L43.0831 14.6912H42.5812L41.7599 12.8934ZM41.5865 12.501L39.9074 8.81419L38.2374 12.501H41.5865ZM47.6817 9.92753L45.528 14.6912H45.0626L42.918 9.92753H43.4017L45.2998 14.1892L47.2162 9.92753H47.6817ZM50.1397 9.89103C50.7298 9.89103 51.183 10.0431 51.4994 10.3473C51.8158 10.6454 51.9739 11.0865 51.9739 11.6705V14.6912H51.5359V13.8425C51.3838 14.1223 51.1618 14.3413 50.8697 14.4995C50.5777 14.6516 50.2279 14.7277 49.8203 14.7277C49.291 14.7277 48.8712 14.6029 48.5609 14.3535C48.2567 14.1041 48.1046 13.7755 48.1046 13.3679C48.1046 12.9725 48.2446 12.6531 48.5244 12.4097C48.8104 12.1603 49.2636 12.0356 49.8842 12.0356H51.5177V11.6523C51.5177 11.2082 51.396 10.8705 51.1526 10.6393C50.9154 10.4082 50.5655 10.2926 50.1032 10.2926C49.7868 10.2926 49.4826 10.3473 49.1906 10.4568C48.9047 10.5663 48.6613 10.7123 48.4605 10.8949L48.2324 10.5663C48.4697 10.3534 48.7556 10.1891 49.0902 10.0735C49.4248 9.95187 49.7746 9.89103 50.1397 9.89103ZM49.8842 14.3535C50.2796 14.3535 50.6142 14.2623 50.888 14.0797C51.1678 13.8972 51.3777 13.6326 51.5177 13.2858V12.3915H49.8933C49.4248 12.3915 49.0841 12.4767 48.8712 12.647C48.6643 12.8173 48.5609 13.0516 48.5609 13.3497C48.5609 13.66 48.6765 13.9063 48.9077 14.0889C49.1389 14.2653 49.4644 14.3535 49.8842 14.3535ZM53.8542 9.92753H54.3105V14.6912H53.8542V9.92753ZM54.0823 8.76856C53.9789 8.76856 53.8907 8.7351 53.8177 8.66818C53.7447 8.59517 53.7082 8.50696 53.7082 8.40353C53.7082 8.30011 53.7447 8.21189 53.8177 8.13889C53.8907 8.06588 53.9789 8.02938 54.0823 8.02938C54.1857 8.02938 54.274 8.06588 54.347 8.13889C54.42 8.20581 54.4565 8.29098 54.4565 8.39441C54.4565 8.49783 54.42 8.58605 54.347 8.65905C54.274 8.73206 54.1857 8.76856 54.0823 8.76856ZM56.2339 7.91987H56.6902V14.6912H56.2339V7.91987ZM60.2198 9.89103C60.8099 9.89103 61.2631 10.0431 61.5795 10.3473C61.8959 10.6454 62.054 11.0865 62.054 11.6705V14.6912H61.616V13.8425C61.4639 14.1223 61.2418 14.3413 60.9498 14.4995C60.6578 14.6516 60.308 14.7277 59.9004 14.7277C59.3711 14.7277 58.9513 14.6029 58.641 14.3535C58.3368 14.1041 58.1847 13.7755 58.1847 13.3679C58.1847 12.9725 58.3247 12.6531 58.6045 12.4097C58.8905 12.1603 59.3437 12.0356 59.9642 12.0356H61.5978V11.6523C61.5978 11.2082 61.4761 10.8705 61.2327 10.6393C60.9955 10.4082 60.6456 10.2926 60.1833 10.2926C59.8669 10.2926 59.5627 10.3473 59.2707 10.4568C58.9848 10.5663 58.7414 10.7123 58.5406 10.8949L58.3125 10.5663C58.5498 10.3534 58.8357 10.1891 59.1703 10.0735C59.5049 9.95187 59.8547 9.89103 60.2198 9.89103ZM59.9642 14.3535C60.3597 14.3535 60.6943 14.2623 60.9681 14.0797C61.2479 13.8972 61.4578 13.6326 61.5978 13.2858V12.3915H59.9734C59.5049 12.3915 59.1642 12.4767 58.9513 12.647C58.7444 12.8173 58.641 13.0516 58.641 13.3497C58.641 13.66 58.7566 13.9063 58.9878 14.0889C59.219 14.2653 59.5445 14.3535 59.9642 14.3535ZM66.3252 9.89103C66.7693 9.89103 67.1709 9.99445 67.5298 10.2013C67.8888 10.4021 68.1686 10.688 68.3694 11.0591C68.5762 11.4242 68.6797 11.8409 68.6797 12.3093C68.6797 12.7778 68.5762 13.1945 68.3694 13.5596C68.1686 13.9246 67.8888 14.2105 67.5298 14.4174C67.1709 14.6242 66.7693 14.7277 66.3252 14.7277C65.8994 14.7277 65.513 14.6273 65.1663 14.4265C64.8256 14.2197 64.5609 13.9337 64.3723 13.5687V14.6912H63.9343V7.91987H64.3906V11.0135C64.5792 10.6606 64.8438 10.3869 65.1845 10.1922C65.5252 9.99141 65.9054 9.89103 66.3252 9.89103ZM66.2978 14.317C66.6629 14.317 66.9914 14.2318 67.2834 14.0615C67.5754 13.8911 67.8036 13.6539 67.9678 13.3497C68.1382 13.0455 68.2234 12.6987 68.2234 12.3093C68.2234 11.92 68.1382 11.5732 67.9678 11.269C67.8036 10.9648 67.5754 10.7276 67.2834 10.5572C66.9914 10.3869 66.6629 10.3017 66.2978 10.3017C65.9328 10.3017 65.6043 10.3869 65.3123 10.5572C65.0263 10.7276 64.7982 10.9648 64.6278 11.269C64.4636 11.5732 64.3814 11.92 64.3814 12.3093C64.3814 12.6987 64.4636 13.0455 64.6278 13.3497C64.7982 13.6539 65.0263 13.8911 65.3123 14.0615C65.6043 14.2318 65.9328 14.317 66.2978 14.317ZM70.0926 7.91987H70.5489V14.6912H70.0926V7.91987ZM76.4968 12.4189H72.3993C72.4115 12.79 72.5058 13.1215 72.6822 13.4136C72.8587 13.6995 73.0959 13.9216 73.3941 14.0797C73.6982 14.2379 74.0389 14.317 74.4161 14.317C74.7264 14.317 75.0123 14.2623 75.274 14.1527C75.5416 14.0372 75.7637 13.8698 75.9401 13.6508L76.2048 13.952C75.9979 14.2014 75.7363 14.3931 75.42 14.5269C75.1097 14.6607 74.772 14.7277 74.407 14.7277C73.9325 14.7277 73.5096 14.6242 73.1385 14.4174C72.7674 14.2105 72.4754 13.9246 72.2625 13.5596C72.0556 13.1945 71.9522 12.7778 71.9522 12.3093C71.9522 11.847 72.0495 11.4333 72.2442 11.0682C72.445 10.6971 72.7187 10.4082 73.0655 10.2013C73.4123 9.99445 73.8017 9.89103 74.2336 9.89103C74.6656 9.89103 75.0519 9.99445 75.3926 10.2013C75.7394 10.4021 76.0101 10.685 76.2048 11.05C76.4055 11.415 76.5059 11.8287 76.5059 12.2911L76.4968 12.4189ZM74.2336 10.2926C73.899 10.2926 73.5979 10.3686 73.3302 10.5207C73.0625 10.6667 72.8465 10.8766 72.6822 11.1504C72.5241 11.4181 72.4328 11.7223 72.4085 12.063H76.0588C76.0405 11.7223 75.9493 11.4181 75.785 11.1504C75.6207 10.8827 75.4048 10.6728 75.1371 10.5207C74.8694 10.3686 74.5682 10.2926 74.2336 10.2926ZM82.1235 14.7277C81.6733 14.7277 81.2657 14.6242 80.9006 14.4174C80.5417 14.2105 80.2588 13.9246 80.0519 13.5596C79.8451 13.1885 79.7417 12.7717 79.7417 12.3093C79.7417 11.847 79.8451 11.4333 80.0519 11.0682C80.2588 10.6971 80.5417 10.4082 80.9006 10.2013C81.2657 9.99445 81.6733 9.89103 82.1235 9.89103C82.5737 9.89103 82.9783 9.99445 83.3372 10.2013C83.7022 10.4082 83.9882 10.6971 84.195 11.0682C84.4019 11.4333 84.5053 11.847 84.5053 12.3093C84.5053 12.7717 84.4019 13.1885 84.195 13.5596C83.9882 13.9246 83.7022 14.2105 83.3372 14.4174C82.9783 14.6242 82.5737 14.7277 82.1235 14.7277ZM82.1235 14.317C82.4885 14.317 82.814 14.2318 83.0999 14.0615C83.392 13.8911 83.6201 13.6539 83.7844 13.3497C83.9547 13.0455 84.0399 12.6987 84.0399 12.3093C84.0399 11.92 83.9547 11.5732 83.7844 11.269C83.6201 10.9648 83.392 10.7276 83.0999 10.5572C82.814 10.3869 82.4885 10.3017 82.1235 10.3017C81.7585 10.3017 81.4299 10.3869 81.1379 10.5572C80.852 10.7276 80.6238 10.9648 80.4535 11.269C80.2892 11.5732 80.2071 11.92 80.2071 12.3093C80.2071 12.6987 80.2892 13.0455 80.4535 13.3497C80.6238 13.6539 80.852 13.8911 81.1379 14.0615C81.4299 14.2318 81.7585 14.317 82.1235 14.317ZM88.2482 9.89103C88.8444 9.89103 89.3159 10.0644 89.6627 10.4112C90.0095 10.758 90.1828 11.2568 90.1828 11.9078V14.6912H89.7266V11.9443C89.7266 11.4089 89.5897 11.0013 89.3159 10.7215C89.0482 10.4416 88.671 10.3017 88.1843 10.3017C87.6246 10.3017 87.1835 10.469 86.8611 10.8036C86.5386 11.1382 86.3774 11.5884 86.3774 12.1542V14.6912H85.9211V9.92753H86.3592V10.9587C86.5234 10.6241 86.7668 10.3625 87.0892 10.1739C87.4177 9.98533 87.8041 9.89103 88.2482 9.89103ZM96.7693 14.39C96.6537 14.4995 96.5077 14.5847 96.3313 14.6455C96.1609 14.7003 95.9814 14.7277 95.7928 14.7277C95.3791 14.7277 95.0597 14.6151 94.8346 14.39C94.6095 14.1588 94.497 13.8394 94.497 13.4318V10.3199H93.6209V9.92753H94.497V8.8872H94.9533V9.92753H96.4682V10.3199H94.9533V13.3862C94.9533 13.6965 95.0263 13.9337 95.1723 14.098C95.3244 14.2562 95.5465 14.3353 95.8385 14.3353C96.1366 14.3353 96.383 14.247 96.5777 14.0706L96.7693 14.39ZM100.369 9.89103C100.965 9.89103 101.437 10.0644 101.784 10.4112C102.13 10.758 102.304 11.2568 102.304 11.9078V14.6912H101.847V11.9443C101.847 11.4089 101.711 11.0013 101.437 10.7215C101.169 10.4416 100.792 10.3017 100.305 10.3017C99.7455 10.3017 99.3044 10.469 98.982 10.8036C98.6595 11.1382 98.4983 11.5884 98.4983 12.1542V14.6912H98.042V7.91987H98.4983V10.9222C98.6626 10.5937 98.9059 10.3412 99.2284 10.1648C99.5508 9.98229 99.9311 9.89103 100.369 9.89103ZM108.216 12.4189H104.118C104.131 12.79 104.225 13.1215 104.401 13.4136C104.578 13.6995 104.815 13.9216 105.113 14.0797C105.417 14.2379 105.758 14.317 106.135 14.317C106.446 14.317 106.731 14.2623 106.993 14.1527C107.261 14.0372 107.483 13.8698 107.659 13.6508L107.924 13.952C107.717 14.2014 107.455 14.3931 107.139 14.5269C106.829 14.6607 106.491 14.7277 106.126 14.7277C105.652 14.7277 105.229 14.6242 104.858 14.4174C104.487 14.2105 104.195 13.9246 103.982 13.5596C103.775 13.1945 103.671 12.7778 103.671 12.3093C103.671 11.847 103.769 11.4333 103.963 11.0682C104.164 10.6971 104.438 10.4082 104.785 10.2013C105.131 9.99445 105.521 9.89103 105.953 9.89103C106.385 9.89103 106.771 9.99445 107.112 10.2013C107.458 10.4021 107.729 10.685 107.924 11.05C108.125 11.415 108.225 11.8287 108.225 12.2911L108.216 12.4189ZM105.953 10.2926C105.618 10.2926 105.317 10.3686 105.049 10.5207C104.782 10.6667 104.566 10.8766 104.401 11.1504C104.243 11.4181 104.152 11.7223 104.128 12.063H107.778C107.76 11.7223 107.668 11.4181 107.504 11.1504C107.34 10.8827 107.124 10.6728 106.856 10.5207C106.588 10.3686 106.287 10.2926 105.953 10.2926Z" fill="white"/>
<path d="M43.8798 24.488H45.7253V28.6741C45.1852 29.1042 44.555 29.4343 43.8348 29.6643C43.1146 29.8944 42.3744 30.0094 41.6142 30.0094C40.544 30.0094 39.5787 29.7794 38.7185 29.3192C37.8583 28.8491 37.1831 28.2039 36.693 27.3837C36.2028 26.5635 35.9578 25.6383 35.9578 24.608C35.9578 23.5778 36.2028 22.6525 36.693 21.8323C37.1831 21.0121 37.8583 20.3719 38.7185 19.9118C39.5887 19.4417 40.564 19.2066 41.6442 19.2066C42.5245 19.2066 43.3247 19.3517 44.0449 19.6417C44.7651 19.9318 45.3702 20.3569 45.8603 20.9171L44.63 22.1174C43.8298 21.3172 42.8646 20.9171 41.7343 20.9171C40.9941 20.9171 40.3339 21.0721 39.7538 21.3822C39.1836 21.6923 38.7335 22.1274 38.4034 22.6875C38.0833 23.2477 37.9233 23.8878 37.9233 24.608C37.9233 25.3082 38.0833 25.9384 38.4034 26.4985C38.7335 27.0587 39.1836 27.4988 39.7538 27.8188C40.3339 28.1389 40.9891 28.299 41.7193 28.299C42.5395 28.299 43.2597 28.1189 43.8798 27.7588V24.488ZM51.7188 29.9644C50.9086 29.9644 50.1784 29.7894 49.5282 29.4393C48.878 29.0892 48.3679 28.6041 47.9978 27.9839C47.6377 27.3537 47.4577 26.6435 47.4577 25.8533C47.4577 25.0631 47.6377 24.358 47.9978 23.7378C48.3679 23.1176 48.878 22.6325 49.5282 22.2824C50.1784 21.9323 50.9086 21.7573 51.7188 21.7573C52.539 21.7573 53.2742 21.9323 53.9243 22.2824C54.5745 22.6325 55.0796 23.1176 55.4397 23.7378C55.8098 24.358 55.9949 25.0631 55.9949 25.8533C55.9949 26.6435 55.8098 27.3537 55.4397 27.9839C55.0796 28.6041 54.5745 29.0892 53.9243 29.4393C53.2742 29.7894 52.539 29.9644 51.7188 29.9644ZM51.7188 28.359C52.4089 28.359 52.9791 28.1289 53.4292 27.6688C53.8793 27.2087 54.1044 26.6035 54.1044 25.8533C54.1044 25.1031 53.8793 24.498 53.4292 24.0379C52.9791 23.5778 52.4089 23.3477 51.7188 23.3477C51.0286 23.3477 50.4584 23.5778 50.0083 24.0379C49.5682 24.498 49.3482 25.1031 49.3482 25.8533C49.3482 26.6035 49.5682 27.2087 50.0083 27.6688C50.4584 28.1289 51.0286 28.359 51.7188 28.359ZM61.3892 29.9644C60.579 29.9644 59.8488 29.7894 59.1987 29.4393C58.5485 29.0892 58.0384 28.6041 57.6683 27.9839C57.3082 27.3537 57.1281 26.6435 57.1281 25.8533C57.1281 25.0631 57.3082 24.358 57.6683 23.7378C58.0384 23.1176 58.5485 22.6325 59.1987 22.2824C59.8488 21.9323 60.579 21.7573 61.3892 21.7573C62.2094 21.7573 62.9446 21.9323 63.5948 22.2824C64.245 22.6325 64.7501 23.1176 65.1102 23.7378C65.4803 24.358 65.6653 25.0631 65.6653 25.8533C65.6653 26.6435 65.4803 27.3537 65.1102 27.9839C64.7501 28.6041 64.245 29.0892 63.5948 29.4393C62.9446 29.7894 62.2094 29.9644 61.3892 29.9644ZM61.3892 28.359C62.0794 28.359 62.6496 28.1289 63.0997 27.6688C63.5498 27.2087 63.7749 26.6035 63.7749 25.8533C63.7749 25.1031 63.5498 24.498 63.0997 24.0379C62.6496 23.5778 62.0794 23.3477 61.3892 23.3477C60.6991 23.3477 60.1289 23.5778 59.6788 24.0379C59.2387 24.498 59.0186 25.1031 59.0186 25.8533C59.0186 26.6035 59.2387 27.2087 59.6788 27.6688C60.1289 28.1289 60.6991 28.359 61.3892 28.359ZM75.4108 21.8473V28.6441C75.4108 31.4648 73.9705 32.8752 71.0897 32.8752C70.3195 32.8752 69.5893 32.7751 68.8991 32.5751C68.209 32.385 67.6388 32.105 67.1887 31.7349L68.0289 30.3245C68.379 30.6146 68.8191 30.8446 69.3493 31.0147C69.8894 31.1947 70.4345 31.2847 70.9847 31.2847C71.8649 31.2847 72.5101 31.0847 72.9202 30.6846C73.3303 30.2845 73.5353 29.6743 73.5353 28.8541V28.434C73.2153 28.7841 72.8252 29.0492 72.365 29.2292C71.9049 29.4093 71.3998 29.4993 70.8496 29.4993C70.0895 29.4993 69.3993 29.3392 68.7791 29.0192C68.169 28.6891 67.6838 28.229 67.3237 27.6388C66.9736 27.0486 66.7986 26.3735 66.7986 25.6133C66.7986 24.8531 66.9736 24.1829 67.3237 23.6028C67.6838 23.0126 68.169 22.5575 68.7791 22.2374C69.3993 21.9173 70.0895 21.7573 70.8496 21.7573C71.4298 21.7573 71.9549 21.8523 72.4251 22.0424C72.9052 22.2324 73.3053 22.5225 73.6254 22.9126V21.8473H75.4108ZM71.1347 27.9089C71.8449 27.9089 72.4251 27.6988 72.8752 27.2787C73.3353 26.8486 73.5654 26.2935 73.5654 25.6133C73.5654 24.9431 73.3353 24.398 72.8752 23.9779C72.4251 23.5577 71.8449 23.3477 71.1347 23.3477C70.4145 23.3477 69.8244 23.5577 69.3643 23.9779C68.9141 24.398 68.6891 24.9431 68.6891 25.6133C68.6891 26.2935 68.9141 26.8486 69.3643 27.2787C69.8244 27.6988 70.4145 27.9089 71.1347 27.9089ZM77.8765 18.7265H79.752V29.8594H77.8765V18.7265ZM89.7455 25.8984C89.7455 26.0284 89.7355 26.2134 89.7155 26.4535H83.4289C83.5389 27.0436 83.824 27.5138 84.2841 27.8639C84.7542 28.2039 85.3344 28.374 86.0245 28.374C86.9048 28.374 87.63 28.0839 88.2001 27.5038L89.2054 28.6591C88.8453 29.0892 88.3902 29.4143 87.84 29.6343C87.2899 29.8544 86.6697 29.9644 85.9795 29.9644C85.0993 29.9644 84.3241 29.7894 83.6539 29.4393C82.9838 29.0892 82.4636 28.6041 82.0935 27.9839C81.7334 27.3537 81.5534 26.6435 81.5534 25.8533C81.5534 25.0731 81.7284 24.373 82.0785 23.7528C82.4386 23.1226 82.9337 22.6325 83.5639 22.2824C84.1941 21.9323 84.9043 21.7573 85.6945 21.7573C86.4747 21.7573 87.1698 21.9323 87.78 22.2824C88.4002 22.6225 88.8803 23.1076 89.2204 23.7378C89.5705 24.358 89.7455 25.0781 89.7455 25.8984ZM85.6945 23.2577C85.0943 23.2577 84.5842 23.4377 84.1641 23.7978C83.754 24.1479 83.5039 24.618 83.4139 25.2082H87.96C87.88 24.628 87.635 24.1579 87.2249 23.7978C86.8147 23.4377 86.3046 23.2577 85.6945 23.2577ZM100.195 19.3567C101.105 19.3567 101.895 19.5067 102.565 19.8068C103.246 20.1069 103.766 20.537 104.126 21.0971C104.486 21.6573 104.666 22.3224 104.666 23.0926C104.666 23.8528 104.486 24.518 104.126 25.0881C103.766 25.6483 103.246 26.0784 102.565 26.3785C101.895 26.6786 101.105 26.8286 100.195 26.8286H97.8242V29.8594H95.8737V19.3567H100.195ZM100.105 25.1782C100.955 25.1782 101.6 24.9981 102.04 24.638C102.48 24.2779 102.7 23.7628 102.7 23.0926C102.7 22.4225 102.48 21.9073 102.04 21.5472C101.6 21.1871 100.955 21.0071 100.105 21.0071H97.8242V25.1782H100.105ZM106.58 18.7265H108.456V29.8594H106.58V18.7265ZM113.978 21.7573C115.158 21.7573 116.059 22.0424 116.679 22.6125C117.309 23.1726 117.624 24.0229 117.624 25.1632V29.8594H115.854V28.8841C115.623 29.2342 115.293 29.5043 114.863 29.6943C114.443 29.8744 113.933 29.9644 113.333 29.9644C112.733 29.9644 112.208 29.8644 111.757 29.6643C111.307 29.4543 110.957 29.1692 110.707 28.8091C110.467 28.439 110.347 28.0239 110.347 27.5638C110.347 26.8436 110.612 26.2684 111.142 25.8383C111.682 25.3982 112.528 25.1782 113.678 25.1782H115.749V25.0581C115.749 24.498 115.578 24.0679 115.238 23.7678C114.908 23.4677 114.413 23.3177 113.753 23.3177C113.303 23.3177 112.858 23.3877 112.418 23.5277C111.988 23.6678 111.622 23.8628 111.322 24.1129L110.587 22.7475C111.007 22.4275 111.512 22.1824 112.103 22.0123C112.693 21.8423 113.318 21.7573 113.978 21.7573ZM113.723 28.599C114.193 28.599 114.608 28.494 114.968 28.284C115.338 28.0639 115.598 27.7538 115.749 27.3537V26.4235H113.813C112.733 26.4235 112.193 26.7786 112.193 27.4888C112.193 27.8289 112.328 28.0989 112.598 28.299C112.868 28.499 113.243 28.599 113.723 28.599ZM127.383 21.8473L123.632 30.5045C123.282 31.3748 122.857 31.9849 122.357 32.335C121.856 32.6951 121.251 32.8752 120.541 32.8752C120.141 32.8752 119.746 32.8101 119.356 32.6801C118.966 32.5501 118.646 32.37 118.396 32.14L119.146 30.7596C119.326 30.9297 119.536 31.0647 119.776 31.1647C120.026 31.2647 120.276 31.3148 120.526 31.3148C120.856 31.3148 121.126 31.2297 121.336 31.0597C121.556 30.8896 121.756 30.6046 121.936 30.2045L122.071 29.8894L118.576 21.8473H120.526L123.047 27.7738L125.582 21.8473H127.383Z" fill="white"/>
<path fill-rule="evenodd" clip-rule="evenodd" d="M19.0005 14.1065L24.005 17.0068L20.4199 20.4857L8.03494 8.46484L19.0005 14.1065ZM24.7773 17.455L29.3236 20.0897C29.5929 20.2438 29.7511 20.526 29.7511 20.8343C29.7511 21.145 29.5929 21.4248 29.3236 21.5813L24.4537 24.401L21.0363 21.0857L24.7773 17.455ZM8.2168 33.5287L19.0194 27.5526L23.6838 24.8516L20.4199 21.6833L8.2168 33.5287ZM7.28864 33.2299L7.30281 8.95099L19.8035 21.0857L7.28864 33.2299Z" fill="white"/>
<defs>
<linearGradient id="paint0_linear_9_2336" x1="-7.53456" y1="-15.7734" x2="-8.42528" y2="39.6839" gradientUnits="userSpaceOnUse">
<stop stop-color="#5A5C60"/>
<stop offset="1" stop-color="#333539"/>
</linearGradient>
</defs>
</svg>
